<svg version="1.1" viewBox="0.0 0.0 1158.9658792650919 683.3044619422573" fill="none" stroke="none" stroke-linecap="square" stroke-miterlimit="10" xmlns:xlink="http://www.w3.org/1999/xlink" xmlns="http://www.w3.org/2000/svg"><clipPath id="p.0"><path d="m0 0l1158.9658 0l0 683.30444l-1158.9658 0l0 -683.30444z" clip-rule="nonzero"/></clipPath><g clip-path="url(#p.0)"><path fill="#000000" fill-opacity="0.0" d="m0 0l1158.9658 0l0 683.30444l-1158.9658 0z" fill-rule="evenodd"/><path fill="#f1f3f4" d="m469.67325 28.702452l0 0c0 -10.840775 8.7881775 -19.62896 19.628967 -19.62896l179.41922 0c5.2059326 0 10.198608 2.0680447 13.879761 5.7491894c3.6811523 3.6811438 5.7492065 8.673848 5.7492065 13.879771l0 111.51373c0 10.840775 -8.788208 19.628952 -19.628967 19.628952l-179.41922 0c-10.84079 0 -19.628967 -8.7881775 -19.628967 -19.628952z" fill-rule="evenodd"/><path stroke="#78909c" stroke-width="2.0" stroke-miterlimit="400.0" stroke-linecap="butt" d="m469.67325 28.702452l0 0c0 -10.840775 8.7881775 -19.62896 19.628967 -19.62896l179.41922 0c5.2059326 0 10.198608 2.0680447 13.879761 5.7491894c3.6811523 3.6811438 5.7492065 8.673848 5.7492065 13.879771l0 111.51373c0 10.840775 -8.788208 19.628952 -19.628967 19.628952l-179.41922 0c-10.84079 0 -19.628967 -8.7881775 -19.628967 -19.628952z" fill-rule="evenodd"/><path fill="#000000" d="m505.28937 77.33932l7.5625 -20.046875l3.5 0l7.578125 20.046875l-3.375 0l-5.109375 -14.140625l-0.75 -2.296875l-0.171875 0l-0.75 2.296875l-5.09375 14.140625l-3.390625 0zm9.0625 -5.15625l0 -2.859375l4.65625 0l1.0 2.859375l-5.65625 0zm-5.453125 0l1.015625 -2.859375l4.4375 0l0 2.859375l-5.453125 0zm17.331238 11.203125l0 -20.328125l2.828125 0l0 1.9375l0.171875 0q0.390625 -0.625 1.046875 -1.171875q0.65625 -0.546875 1.546875 -0.875q0.90625 -0.34375 2.0 -0.34375q1.953125 0 3.484375 0.984375q1.546875 0.984375 2.453125 2.6875q0.921875 1.703125 0.921875 3.921875q0 2.21875 -0.921875 3.921875q-0.90625 1.703125 -2.453125 2.6875q-1.53125 0.984375 -3.484375 0.984375q-1.625 0 -2.828125 -0.734375q-1.203125 -0.734375 -1.765625 -1.625l-0.171875 0l0.171875 1.984375l0 5.96875l-3.0 0zm7.140625 -8.375q1.125 0 2.109375 -0.578125q1.0 -0.59375 1.59375 -1.6875q0.609375 -1.09375 0.609375 -2.546875q0 -1.484375 -0.609375 -2.5625q-0.59375 -1.078125 -1.59375 -1.65625q-0.984375 -0.59375 -2.109375 -0.59375q-1.125 0 -2.109375 0.59375q-0.96875 0.578125 -1.59375 1.65625q-0.609375 1.078125 -0.609375 2.5625q0 1.484375 0.609375 2.5625q0.625 1.078125 1.59375 1.671875q0.984375 0.578125 2.109375 0.578125zm9.771423 8.375l0 -20.328125l2.828125 0l0 1.9375l0.171875 0q0.390625 -0.625 1.046875 -1.171875q0.65625 -0.546875 1.546875 -0.875q0.90625 -0.34375 2.0 -0.34375q1.953125 0 3.484375 0.984375q1.546875 0.984375 2.453125 2.6875q0.921875 1.703125 0.921875 3.921875q0 2.21875 -0.921875 3.921875q-0.90625 1.703125 -2.453125 2.6875q-1.53125 0.984375 -3.484375 0.984375q-1.625 0 -2.828125 -0.734375q-1.203125 -0.734375 -1.765625 -1.625l-0.171875 0l0.171875 1.984375l0 5.96875l-3.0 0zm7.140625 -8.375q1.125 0 2.109375 -0.578125q1.0 -0.59375 1.59375 -1.6875q0.609375 -1.09375 0.609375 -2.546875q0 -1.484375 -0.609375 -2.5625q-0.59375 -1.078125 -1.59375 -1.65625q-0.984375 -0.59375 -2.109375 -0.59375q-1.125 0 -2.109375 0.59375q-0.96875 0.578125 -1.59375 1.65625q-0.609375 1.078125 -0.609375 2.5625q0 1.484375 0.609375 2.5625q0.625 1.078125 1.59375 1.671875q0.984375 0.578125 2.109375 0.578125zm9.833984 2.328125l0 -20.046875l3.015625 0l0 20.046875l-3.015625 0zm6.795532 0l0 -14.28125l3.03125 0l0 14.28125l-3.03125 0zm1.515625 -16.375q-0.84375 0 -1.453125 -0.59375q-0.59375 -0.609375 -0.59375 -1.453125q0 -0.875 0.59375 -1.4375q0.609375 -0.578125 1.453125 -0.578125q0.875 0 1.453125 0.578125q0.59375 0.5625 0.59375 1.4375q0 0.84375 -0.59375 1.453125q-0.578125 0.59375 -1.453125 0.59375zm11.734985 16.828125q-2.15625 0 -3.828125 -0.984375q-1.65625 -0.984375 -2.59375 -2.703125q-0.9375 -1.71875 -0.9375 -3.90625q0 -2.1875 0.9375 -3.890625q0.9375 -1.703125 2.59375 -2.703125q1.671875 -1.0 3.828125 -1.0q2.375 0 4.015625 1.078125q1.640625 1.0625 2.34375 2.875l-2.75 1.125q-0.5 -1.15625 -1.4375 -1.71875q-0.9375 -0.578125 -2.234375 -0.578125q-1.171875 0 -2.15625 0.609375q-0.96875 0.59375 -1.5625 1.65625q-0.59375 1.0625 -0.59375 2.546875q0 1.453125 0.59375 2.546875q0.59375 1.09375 1.5625 1.6875q0.984375 0.578125 2.15625 0.578125q1.375 0 2.328125 -0.609375q0.953125 -0.625 1.484375 -1.734375l2.6875 1.171875q-0.78125 1.703125 -2.421875 2.828125q-1.640625 1.125 -4.015625 1.125zm13.387085 0q-1.546875 0 -2.734375 -0.609375q-1.1875 -0.625 -1.875 -1.703125q-0.6875 -1.078125 -0.6875 -2.484375q0 -1.53125 0.796875 -2.59375q0.796875 -1.078125 2.140625 -1.625q1.34375 -0.5625 2.96875 -0.5625q0.890625 0 1.65625 0.125q0.78125 0.125 1.34375 0.296875q0.578125 0.15625 0.921875 0.359375l0 -0.75q0 -1.40625 -1.015625 -2.25q-1.0 -0.84375 -2.59375 -0.84375q-1.09375 0 -2.078125 0.5q-0.984375 0.484375 -1.5625 1.328125l-2.078125 -1.59375q0.625 -0.875 1.5 -1.484375q0.890625 -0.625 1.984375 -0.953125q1.109375 -0.34375 2.3125 -0.34375q3.109375 0 4.78125 1.53125q1.6875 1.53125 1.6875 4.265625l0 8.9375l-2.9375 0l0 -1.765625l-0.171875 0q-0.359375 0.5625 -1.0 1.0625q-0.625 0.5 -1.484375 0.828125q-0.84375 0.328125 -1.875 0.328125zm0.53125 -2.46875q1.171875 0 2.078125 -0.5625q0.90625 -0.5625 1.40625 -1.46875q0.515625 -0.90625 0.515625 -1.96875q-0.625 -0.375 -1.5 -0.609375q-0.875 -0.234375 -1.859375 -0.234375q-1.84375 0 -2.640625 0.734375q-0.78125 0.71875 -0.78125 1.8125q0 1.015625 0.75 1.65625q0.765625 0.640625 2.03125 0.640625zm9.008057 -12.265625l9.015625 0l0 2.640625l-9.015625 0l0 -2.640625zm2.5 10.140625l0 -14.171875l3.015625 0l0 13.53125q0 1.0625 0.4375 1.625q0.4375 0.546875 1.46875 0.546875q0.5 0 0.890625 -0.140625q0.390625 -0.15625 0.796875 -0.390625l0 2.9375q-0.484375 0.203125 -1.015625 0.3125q-0.53125 0.109375 -1.265625 0.109375q-1.984375 0 -3.15625 -1.15625q-1.171875 -1.15625 -1.171875 -3.203125zm9.791199 4.140625l0 -14.28125l3.03125 0l0 14.28125l-3.03125 0zm1.515625 -16.375q-0.84375 0 -1.453125 -0.59375q-0.59375 -0.609375 -0.59375 -1.453125q0 -0.875 0.59375 -1.4375q0.609375 -0.578125 1.453125 -0.578125q0.875 0 1.453125 0.578125q0.59375 0.5625 0.59375 1.4375q0 0.84375 -0.59375 1.453125q-0.578125 0.59375 -1.453125 0.59375zm11.844421 16.828125q-2.21875 0 -3.90625 -1.0q-1.671875 -1.015625 -2.625 -2.734375q-0.9375 -1.734375 -0.9375 -3.859375q0 -2.125 0.9375 -3.84375q0.953125 -1.734375 2.625 -2.734375q1.6875 -1.015625 3.90625 -1.015625q2.1875 0 3.859375 1.03125q1.6875 1.015625 2.640625 2.734375q0.953125 1.703125 0.953125 3.828125q0 2.125 -0.953125 3.859375q-0.953125 1.71875 -2.640625 2.734375q-1.671875 1.0 -3.859375 1.0zm0 -2.78125q1.171875 0 2.171875 -0.5625q1.015625 -0.578125 1.640625 -1.65625q0.640625 -1.078125 0.640625 -2.59375q0 -1.515625 -0.640625 -2.59375q-0.625 -1.078125 -1.640625 -1.640625q-1.0 -0.578125 -2.171875 -0.578125q-1.171875 0 -2.203125 0.578125q-1.015625 0.5625 -1.65625 1.640625q-0.625 1.078125 -0.625 2.59375q0 1.515625 0.625 2.59375q0.640625 1.078125 1.671875 1.65625q1.046875 0.5625 2.1875 0.5625zm9.941284 2.328125l0 -14.28125l2.859375 0l0 1.96875l0.15625 0q0.625 -1.046875 1.84375 -1.734375q1.21875 -0.6875 2.671875 -0.6875q2.625 0 3.9375 1.5625q1.328125 1.546875 1.328125 4.15625l0 9.015625l-3.0 0l0 -8.625q0 -1.734375 -0.875 -2.53125q-0.859375 -0.796875 -2.265625 -0.796875q-1.078125 0 -1.890625 0.609375q-0.8125 0.59375 -1.28125 1.578125q-0.46875 0.96875 -0.46875 2.09375l0 7.671875l-3.015625 0z" fill-rule="nonzero"/><path fill="#000000" d="m552.4364 111.79244q-1.703125 0 -2.96875 -0.515625q-1.25 -0.53125 -2.0625 -1.40625q-0.8125 -0.890625 -1.203125 -1.921875l2.703125 -1.171875q0.515625 1.140625 1.453125 1.75q0.9375 0.59375 2.171875 0.59375q1.109375 0 1.921875 -0.40625q0.8125 -0.40625 0.8125 -1.328125q0 -0.578125 -0.375 -0.953125q-0.375 -0.390625 -1.015625 -0.640625q-0.625 -0.25 -1.4375 -0.4375l-1.703125 -0.40625q-1.015625 -0.25 -1.921875 -0.796875q-0.90625 -0.546875 -1.46875 -1.375q-0.5625 -0.84375 -0.5625 -2.0q0 -1.28125 0.734375 -2.21875q0.75 -0.9375 2.0 -1.4375q1.265625 -0.515625 2.734375 -0.515625q1.34375 0 2.4375 0.359375q1.109375 0.34375 1.9375 1.03125q0.828125 0.6875 1.296875 1.703125l-2.59375 1.171875q-0.484375 -0.953125 -1.296875 -1.328125q-0.8125 -0.390625 -1.765625 -0.390625q-1.0625 0 -1.78125 0.4375q-0.703125 0.4375 -0.703125 1.140625q0 0.71875 0.625 1.140625q0.640625 0.421875 1.5625 0.671875l2.0625 0.515625q2.140625 0.53125 3.203125 1.609375q1.0625 1.078125 1.0625 2.609375q0 1.375 -0.796875 2.40625q-0.78125 1.015625 -2.109375 1.5625q-1.328125 0.546875 -2.953125 0.546875zm7.364563 -14.734375l9.015625 0l0 2.640625l-9.015625 0l0 -2.640625zm2.5 10.140625l0 -14.171875l3.015625 0l0 13.53125q0 1.0625 0.4375 1.625q0.4375 0.546875 1.46875 0.546875q0.5 0 0.890625 -0.140625q0.390625 -0.15625 0.796875 -0.390625l0 2.9375q-0.484375 0.203125 -1.015625 0.3125q-0.53125 0.109375 -1.265625 0.109375q-1.984375 0 -3.15625 -1.15625q-1.171875 -1.15625 -1.171875 -3.203125zm15.591187 4.59375q-2.21875 0 -3.90625 -1.0q-1.671875 -1.015625 -2.625 -2.734375q-0.9375 -1.734375 -0.9375 -3.859375q0 -2.125 0.9375 -3.84375q0.953125 -1.734375 2.625 -2.734375q1.6875 -1.015625 3.90625 -1.015625q2.1875 0 3.859375 1.03125q1.6875 1.015625 2.640625 2.734375q0.953125 1.703125 0.953125 3.828125q0 2.125 -0.953125 3.859375q-0.953125 1.71875 -2.640625 2.734375q-1.671875 1.0 -3.859375 1.0zm0 -2.78125q1.171875 0 2.171875 -0.5625q1.015625 -0.578125 1.640625 -1.65625q0.640625 -1.078125 0.640625 -2.59375q0 -1.515625 -0.640625 -2.59375q-0.625 -1.078125 -1.640625 -1.640625q-1.0 -0.578125 -2.171875 -0.578125q-1.171875 0 -2.203125 0.578125q-1.015625 0.5625 -1.65625 1.640625q-0.625 1.078125 -0.625 2.59375q0 1.515625 0.625 2.59375q0.640625 1.078125 1.671875 1.65625q1.046875 0.5625 2.1875 0.5625zm9.941345 2.328125l0 -14.28125l2.859375 0l0 2.09375l0.15625 0q0.34375 -0.71875 0.96875 -1.28125q0.640625 -0.5625 1.453125 -0.890625q0.828125 -0.34375 1.734375 -0.34375q0.578125 0 0.984375 0.078125q0.40625 0.0625 0.75 0.203125l0 3.140625q-0.53125 -0.234375 -1.078125 -0.359375q-0.546875 -0.140625 -1.140625 -0.140625q-1.0625 0 -1.890625 0.578125q-0.828125 0.5625 -1.3125 1.515625q-0.46875 0.953125 -0.46875 2.125l0 7.5625l-3.015625 0zm16.903687 0.453125q-2.093811 0 -3.750061 -0.984375q-1.640625 -0.984375 -2.578125 -2.6875q-0.9375 -1.703125 -0.9375 -3.890625q0 -2.046875 0.890625 -3.78125q0.890625 -1.734375 2.5 -2.78125q1.609375 -1.0625 3.718811 -1.0625q2.203125 0 3.75 0.953125q1.5625 0.953125 2.375 2.609375q0.8125 1.65625 0.8125 3.71875q0 0.3125 -0.015625 0.5625q-0.015625 0.25 -0.03125 0.390625l-12.296936 0l0 -2.265625l9.343811 0q-0.015625 -0.53125 -0.28125 -1.125q-0.25 -0.609375 -0.734375 -1.109375q-0.46875 -0.515625 -1.203125 -0.828125q-0.71875 -0.328125 -1.703125 -0.328125q-1.218811 0 -2.171936 0.640625q-0.953125 0.625 -1.484375 1.75q-0.53125 1.109375 -0.53125 2.59375q0 1.625 0.609375 2.71875q0.625 1.09375 1.625 1.65625q1.015686 0.5625 2.187561 0.5625q1.421875 0 2.390625 -0.65625q0.96875 -0.671875 1.53125 -1.640625l2.484375 1.203125q-0.921875 1.671875 -2.515625 2.734375q-1.59375 1.046875 -3.984375 1.046875z" fill-rule="nonzero"/><path fill="#ffca28" d="m8.471047 306.3921l0 0c0 -8.268158 6.702667 -14.970825 14.970826 -14.970825l160.89299 0c3.9705048 0 7.7783966 1.5772705 10.585968 4.384857c2.8075714 2.8075562 4.384857 6.615448 4.384857 10.585968l0 85.050476c0 8.268158 -6.702667 14.970825 -14.970825 14.970825l-160.89299 0c-8.268159 0 -14.970826 -6.702667 -14.970826 -14.970825z" fill-rule="evenodd"/><path stroke="#5f6368" stroke-width="2.0" stroke-miterlimit="400.0" stroke-linecap="butt" d="m8.471047 306.3921l0 0c0 -8.268158 6.702667 -14.970825 14.970826 -14.970825l160.89299 0c3.9705048 0 7.7783966 1.5772705 10.585968 4.384857c2.8075714 2.8075562 4.384857 6.615448 4.384857 10.585968l0 85.050476c0 8.268158 -6.702667 14.970825 -14.970825 14.970825l-160.89299 0c-8.268159 0 -14.970826 -6.702667 -14.970826 -14.970825z" fill-rule="evenodd"/><path fill="#000000" d="m84.64001 342.25046q-1.59375 0 -3.0625 -0.625q-1.453125 -0.640625 -2.5625 -1.875q-1.09375 -1.234375 -1.625 -3.046875l2.90625 -1.171875q0.453125 1.625 1.5625 2.71875q1.125 1.078125 2.8125 1.078125q0.953125 0 1.765625 -0.328125q0.828125 -0.34375 1.328125 -1.0q0.515625 -0.65625 0.515625 -1.609375q0 -0.890625 -0.421875 -1.515625q-0.421875 -0.640625 -1.34375 -1.15625q-0.921875 -0.515625 -2.359375 -1.015625l-1.25 -0.453125q-0.8125 -0.3125 -1.65625 -0.75q-0.84375 -0.453125 -1.5625 -1.109375q-0.703125 -0.65625 -1.125 -1.546875q-0.421875 -0.90625 -0.421875 -2.078125q0 -1.515625 0.796875 -2.75q0.796875 -1.234375 2.203125 -1.96875q1.421875 -0.75 3.296875 -0.75q1.9375 0 3.234375 0.6875q1.3125 0.6875 2.046875 1.640625q0.75 0.953125 1.03125 1.8125l-2.78125 1.1875q-0.171875 -0.59375 -0.609375 -1.15625q-0.421875 -0.5625 -1.140625 -0.9375q-0.71875 -0.375 -1.75 -0.375q-0.890625 0 -1.640625 0.34375q-0.734375 0.328125 -1.1875 0.90625q-0.453125 0.578125 -0.453125 1.328125q0 1.09375 0.890625 1.78125q0.90625 0.6875 2.609375 1.234375l1.296875 0.453125q0.984375 0.34375 1.921875 0.8125q0.953125 0.453125 1.734375 1.171875q0.796875 0.703125 1.25 1.734375q0.46875 1.015625 0.46875 2.421875q0 1.53125 -0.609375 2.671875q-0.59375 1.125 -1.59375 1.84375q-0.984375 0.71875 -2.1875 1.046875q-1.1875 0.34375 -2.328125 0.34375zm10.271942 -0.453125l0 -20.046875l6.421875 0q3.15625 0 5.4375 1.28125q2.28125 1.265625 3.53125 3.53125q1.25 2.265625 1.25 5.203125q0 2.953125 -1.25 5.21875q-1.25 2.265625 -3.53125 3.546875q-2.28125 1.265625 -5.4375 1.265625l-6.421875 0zm3.078125 -2.90625l3.25 0q2.265625 0 3.890625 -0.859375q1.625 -0.859375 2.46875 -2.453125q0.84375 -1.59375 0.84375 -3.8125q0 -2.203125 -0.84375 -3.796875q-0.84375 -1.59375 -2.46875 -2.453125q-1.625 -0.859375 -3.890625 -0.859375l-3.25 0l0 14.234375zm17.081955 2.90625l0 -20.046875l3.078125 0l0 12.453125l0 7.59375l-3.078125 0zm12.125 0l-7.109375 -10.15625l2.09375 -2.390625l8.765633 12.375l0 0.171875l-3.7500076 0zm-10.546875 -4.109375l0.015625 -4.34375l9.828125 -11.59375l3.8125076 0l0 0.171875l-13.656258 15.765625z" fill-rule="nonzero"/><path fill="#000000" d="m39.355053 376.25046q-1.9375 0 -3.515625 -0.984375q-1.5625 -0.984375 -2.453125 -2.6875q-0.890625 -1.703125 -0.890625 -3.921875q0 -2.21875 0.890625 -3.921875q0.890625 -1.703125 2.453125 -2.6875q1.578125 -0.984375 3.515625 -0.984375q1.109375 0 2.0 0.34375q0.90625 0.328125 1.5625 0.875q0.65625 0.546875 1.015625 1.171875l0.171875 0l-0.171875 -2.0l0 -5.703125l3.0 0l0 20.046875l-2.828125 0l0 -1.90625l-0.171875 0q-0.359375 0.59375 -1.015625 1.140625q-0.65625 0.546875 -1.5625 0.875q-0.890625 0.34375 -2.0 0.34375zm0.4375 -2.78125q1.125 0 2.109375 -0.578125q1.0 -0.59375 1.59375 -1.671875q0.609375 -1.078125 0.609375 -2.5625q0 -1.484375 -0.609375 -2.5625q-0.59375 -1.078125 -1.59375 -1.65625q-0.984375 -0.59375 -2.109375 -0.59375q-1.109375 0 -2.09375 0.59375q-0.984375 0.578125 -1.609375 1.65625q-0.609375 1.078125 -0.609375 2.5625q0 1.453125 0.609375 2.546875q0.625 1.09375 1.609375 1.6875q0.984375 0.578125 2.09375 0.578125zm17.076828 2.78125q-2.09375 0 -3.75 -0.984375q-1.640625 -0.984375 -2.578125 -2.6875q-0.9375 -1.703125 -0.9375 -3.890625q0 -2.046875 0.890625 -3.78125q0.890625 -1.734375 2.5 -2.78125q1.609375 -1.0625 3.71875 -1.0625q2.203125 0 3.75 0.953125q1.5625 0.953125 2.375 2.609375q0.8125 1.65625 0.8125 3.71875q0 0.3125 -0.015625 0.5625q-0.015625 0.25 -0.03125 0.390625l-12.296875 0l0 -2.265625l9.34375 0q-0.015625 -0.53125 -0.28125 -1.125q-0.25 -0.609375 -0.734375 -1.109375q-0.46875 -0.515625 -1.203125 -0.828125q-0.71875 -0.328125 -1.703125 -0.328125q-1.21875 0 -2.171875 0.640625q-0.953125 0.625 -1.484375 1.75q-0.53125 1.109375 -0.53125 2.59375q0 1.625 0.609375 2.71875q0.625 1.09375 1.625 1.65625q1.015625 0.5625 2.1875 0.5625q1.421875 0 2.390625 -0.65625q0.96875 -0.671875 1.53125 -1.640625l2.484375 1.203125q-0.921875 1.671875 -2.515625 2.734375q-1.59375 1.046875 -3.984375 1.046875zm13.64819 -0.453125l-5.90625 -14.28125l3.359375 0l4.0 10.390625l0.140625 0l4.078125 -10.390625l3.3125 0l-5.96875 14.28125l-3.015625 0zm17.039948 0.453125q-2.09375 0 -3.75 -0.984375q-1.640625 -0.984375 -2.578125 -2.6875q-0.9375 -1.703125 -0.9375 -3.890625q0 -2.046875 0.890625 -3.78125q0.890625 -1.734375 2.5 -2.78125q1.609375 -1.0625 3.71875 -1.0625q2.203125 0 3.75 0.953125q1.5625 0.953125 2.375 2.609375q0.8125 1.65625 0.8125 3.71875q0 0.3125 -0.015625 0.5625q-0.015625 0.25 -0.03125 0.390625l-12.296875 0l0 -2.265625l9.34375 0q-0.015625 -0.53125 -0.28125 -1.125q-0.25 -0.609375 -0.734375 -1.109375q-0.46875 -0.515625 -1.203125 -0.828125q-0.71875 -0.328125 -1.703125 -0.328125q-1.21875 0 -2.171875 0.640625q-0.953125 0.625 -1.484375 1.75q-0.53125 1.109375 -0.53125 2.59375q0 1.625 0.609375 2.71875q0.625 1.09375 1.625 1.65625q1.015625 0.5625 2.1875 0.5625q1.421875 0 2.390625 -0.65625q0.96875 -0.671875 1.53125 -1.640625l2.484375 1.203125q-0.921875 1.671875 -2.515625 2.734375q-1.59375 1.046875 -3.984375 1.046875zm9.615692 -0.453125l0 -20.046875l3.015625 0l0 20.046875l-3.015625 0zm13.155533 0.453125q-2.21875 0 -3.90625 -1.0q-1.671875 -1.015625 -2.625 -2.734375q-0.9375 -1.734375 -0.9375 -3.859375q0 -2.125 0.9375 -3.84375q0.953125 -1.734375 2.625 -2.734375q1.6875 -1.015625 3.90625 -1.015625q2.1875 0 3.859375 1.03125q1.6875 1.015625 2.640625 2.734375q0.953125 1.703125 0.953125 3.828125q0 2.125 -0.953125 3.859375q-0.953125 1.71875 -2.640625 2.734375q-1.671875 1.0 -3.859375 1.0zm0 -2.78125q1.171875 0 2.171875 -0.5625q1.015625 -0.578125 1.640625 -1.65625q0.640625 -1.078125 0.640625 -2.59375q0 -1.515625 -0.640625 -2.59375q-0.625 -1.078125 -1.640625 -1.640625q-1.0 -0.578125 -2.171875 -0.578125q-1.171875 0 -2.203125 0.578125q-1.015625 0.5625 -1.65625 1.640625q-0.625 1.078125 -0.625 2.59375q0 1.515625 0.625 2.59375q0.640625 1.078125 1.671875 1.65625q1.046875 0.5625 2.1875 0.5625zm10.050064 8.375l0 -20.328125l2.828125 0l0 1.9375l0.171875 0q0.390625 -0.625 1.046875 -1.171875q0.65625 -0.546875 1.546875 -0.875q0.90625 -0.34375 2.0 -0.34375q1.9531326 0 3.4843826 0.984375q1.546875 0.984375 2.453125 2.6875q0.921875 1.703125 0.921875 3.921875q0 2.21875 -0.921875 3.921875q-0.90625 1.703125 -2.453125 2.6875q-1.53125 0.984375 -3.4843826 0.984375q-1.625 0 -2.828125 -0.734375q-1.203125 -0.734375 -1.765625 -1.625l-0.171875 0l0.171875 1.984375l0 5.96875l-3.0 0zm7.140625 -8.375q1.1250076 0 2.1093826 -0.578125q1.0 -0.59375 1.59375 -1.6875q0.609375 -1.09375 0.609375 -2.546875q0 -1.484375 -0.609375 -2.5625q-0.59375 -1.078125 -1.59375 -1.65625q-0.984375 -0.59375 -2.1093826 -0.59375q-1.125 0 -2.109375 0.59375q-0.96875 0.578125 -1.59375 1.65625q-0.609375 1.078125 -0.609375 2.5625q0 1.484375 0.609375 2.5625q0.625 1.078125 1.59375 1.671875q0.984375 0.578125 2.109375 0.578125zm16.59832 2.78125q-2.09375 0 -3.7499847 -0.984375q-1.640625 -0.984375 -2.578125 -2.6875q-0.9375 -1.703125 -0.9375 -3.890625q0 -2.046875 0.890625 -3.78125q0.890625 -1.734375 2.5 -2.78125q1.6093597 -1.0625 3.7187347 -1.0625q2.203125 0 3.75 0.953125q1.5625 0.953125 2.375 2.609375q0.8125 1.65625 0.8125 3.71875q0 0.3125 -0.015625 0.5625q-0.015625 0.25 -0.03125 0.390625l-12.29686 0l0 -2.265625l9.343735 0q-0.015625 -0.53125 -0.28125 -1.125q-0.25 -0.609375 -0.734375 -1.109375q-0.46875 -0.515625 -1.203125 -0.828125q-0.71875 -0.328125 -1.703125 -0.328125q-1.21875 0 -2.171875 0.640625q-0.95310974 0.625 -1.4843597 1.75q-0.53125 1.109375 -0.53125 2.59375q0 1.625 0.609375 2.71875q0.62498474 1.09375 1.6249847 1.65625q1.015625 0.5625 2.1875 0.5625q1.421875 0 2.390625 -0.65625q0.96875 -0.671875 1.53125 -1.640625l2.484375 1.203125q-0.921875 1.671875 -2.515625 2.734375q-1.59375 1.046875 -3.984375 1.046875zm9.584442 -0.453125l0 -14.28125l2.859375 0l0 2.09375l0.15625 0q0.34375 -0.71875 0.96875 -1.28125q0.640625 -0.5625 1.453125 -0.890625q0.828125 -0.34375 1.734375 -0.34375q0.578125 0 0.984375 0.078125q0.40625 0.0625 0.75 0.203125l0 3.140625q-0.53125 -0.234375 -1.078125 -0.359375q-0.546875 -0.140625 -1.140625 -0.140625q-1.0625 0 -1.890625 0.578125q-0.828125 0.5625 -1.3125 1.515625q-0.46875 0.953125 -0.46875 2.125l0 7.5625l-3.015625 0zm15.871185 0.453125q-1.703125 0 -2.96875 -0.515625q-1.25 -0.53125 -2.0625 -1.40625q-0.8125 -0.890625 -1.203125 -1.921875l2.703125 -1.171875q0.515625 1.140625 1.453125 1.75q0.9375 0.59375 2.171875 0.59375q1.109375 0 1.921875 -0.40625q0.8125 -0.40625 0.8125 -1.328125q0 -0.578125 -0.375 -0.953125q-0.375 -0.390625 -1.015625 -0.640625q-0.625 -0.25 -1.4375 -0.4375l-1.703125 -0.40625q-1.015625 -0.25 -1.921875 -0.796875q-0.90625 -0.546875 -1.46875 -1.375q-0.5625 -0.84375 -0.5625 -2.0q0 -1.28125 0.734375 -2.21875q0.75 -0.9375 2.0 -1.4375q1.265625 -0.515625 2.734375 -0.515625q1.34375 0 2.4375 0.359375q1.109375 0.34375 1.9375 1.03125q0.828125 0.6875 1.296875 1.703125l-2.59375 1.171875q-0.484375 -0.953125 -1.296875 -1.328125q-0.8125 -0.390625 -1.765625 -0.390625q-1.0625 0 -1.78125 0.4375q-0.703125 0.4375 -0.703125 1.140625q0 0.71875 0.625 1.140625q0.640625 0.421875 1.5625 0.671875l2.0625 0.515625q2.140625 0.53125 3.203125 1.609375q1.0625 1.078125 1.0625 2.609375q0 1.375 -0.796875 2.40625q-0.78125 1.015625 -2.109375 1.5625q-1.328125 0.546875 -2.953125 0.546875z" fill-rule="nonzero"/><path fill="#3ddb85" fill-opacity="0.2179" d="m500.98032 299.217l0 0c0 -5.605011 4.543762 -10.148773 10.148773 -10.148773l135.76544 0c2.6916504 0 5.2730103 1.0692444 7.1762695 2.9725037c1.9032593 1.9032593 2.9725342 4.4846497 2.9725342 7.1762695l0 262.19064c0 5.6050415 -4.543762 10.148804 -10.148804 10.148804l-135.76544 0l0 0c-5.605011 0 -10.148773 -4.543762 -10.148773 -10.148804z" fill-rule="evenodd"/><path stroke="#72d98c" stroke-width="3.0" stroke-miterlimit="400.0" stroke-linecap="butt" d="m500.98032 299.217l0 0c0 -5.605011 4.543762 -10.148773 10.148773 -10.148773l135.76544 0c2.6916504 0 5.2730103 1.0692444 7.1762695 2.9725037c1.9032593 1.9032593 2.9725342 4.4846497 2.9725342 7.1762695l0 262.19064c0 5.6050415 -4.543762 10.148804 -10.148804 10.148804l-135.76544 0l0 0c-5.605011 0 -10.148773 -4.543762 -10.148773 -10.148804z" fill-rule="evenodd"/><path fill="#000000" fill-opacity="0.0" d="m506.24014 383.4462l145.5433 0l0 93.73227l-145.5433 0z" fill-rule="evenodd"/><path fill="#000000" d="m522.4597 421.8862l8.28125 -21.953125l3.828125 0l8.3125 21.953125l-3.703125 0l-5.578125 -15.484375l-0.828125 -2.515625l-0.1875 0l-0.828125 2.515625l-5.578125 15.484375l-3.71875 0zm9.9375 -5.640625l0 -3.125l5.09375 0l1.09375 3.125l-6.1875 0zm-5.96875 0l1.09375 -3.125l4.875 0l0 3.125l-5.96875 0zm18.852417 5.640625l0 -15.640625l3.125 0l0 2.15625l0.1875 0q0.671875 -1.140625 2.0 -1.890625q1.328125 -0.75 2.921875 -0.75q2.890625 0 4.328125 1.703125q1.4375 1.703125 1.4375 4.546875l0 9.875l-3.28125 0l0 -9.4375q0 -1.90625 -0.953125 -2.78125q-0.9375 -0.875 -2.46875 -0.875q-1.203125 0 -2.09375 0.671875q-0.890625 0.65625 -1.390625 1.734375q-0.5 1.0625 -0.5 2.28125l0 8.40625l-3.3125 0zm24.452576 0.484375q-2.109375 0 -3.828125 -1.0625q-1.71875 -1.078125 -2.703125 -2.9375q-0.96875 -1.875 -0.96875 -4.296875q0 -2.421875 0.96875 -4.296875q0.984375 -1.875 2.703125 -2.9375q1.71875 -1.078125 3.828125 -1.078125q1.234375 0 2.203125 0.375q0.984375 0.359375 1.703125 0.96875q0.734375 0.59375 1.125 1.265625l0.1875 0l-0.1875 -2.1875l0 -6.25l3.28125 0l0 21.953125l-3.09375 0l0 -2.078125l-0.1875 0q-0.390625 0.640625 -1.125 1.234375q-0.71875 0.59375 -1.703125 0.953125q-0.96875 0.375 -2.203125 0.375zm0.5 -3.03125q1.21875 0 2.296875 -0.640625q1.09375 -0.640625 1.75 -1.8125q0.671875 -1.1875 0.671875 -2.8125q0 -1.625 -0.671875 -2.796875q-0.65625 -1.1875 -1.75 -1.828125q-1.078125 -0.65625 -2.296875 -0.65625q-1.234375 0 -2.3125 0.65625q-1.0625 0.640625 -1.734375 1.828125q-0.671875 1.171875 -0.671875 2.796875q0 1.59375 0.671875 2.796875q0.671875 1.1875 1.734375 1.828125q1.078125 0.640625 2.3125 0.640625zm11.712402 2.546875l0 -15.640625l3.125 0l0 2.3125l0.1875 0q0.359375 -0.796875 1.046875 -1.40625q0.6875 -0.625 1.59375 -0.984375q0.90625 -0.375 1.890625 -0.375q0.640625 0 1.078125 0.078125q0.453125 0.078125 0.828125 0.234375l0 3.421875q-0.59375 -0.234375 -1.1875 -0.390625q-0.59375 -0.15625 -1.234375 -0.15625q-1.171875 0 -2.078125 0.625q-0.90625 0.625 -1.421875 1.671875q-0.515625 1.046875 -0.515625 2.328125l0 8.28125l-3.3125 0zm18.71698 0.484375q-2.421875 0 -4.265625 -1.09375q-1.828125 -1.109375 -2.875 -2.984375q-1.03125 -1.890625 -1.03125 -4.21875q0 -2.328125 1.03125 -4.21875q1.046875 -1.890625 2.875 -2.984375q1.84375 -1.109375 4.265625 -1.109375q2.40625 0 4.234375 1.125q1.84375 1.109375 2.875 2.984375q1.046875 1.875 1.046875 4.203125q0 2.328125 -1.046875 4.21875q-1.03125 1.875 -2.875 2.984375q-1.828125 1.09375 -4.234375 1.09375zm0 -3.03125q1.296875 0 2.390625 -0.625q1.109375 -0.625 1.796875 -1.796875q0.6875 -1.1875 0.6875 -2.84375q0 -1.65625 -0.6875 -2.828125q-0.6875 -1.1875 -1.796875 -1.8125q-1.09375 -0.640625 -2.390625 -0.640625q-1.28125 0 -2.40625 0.640625q-1.109375 0.625 -1.796875 1.8125q-0.6875 1.171875 -0.6875 2.828125q0 1.65625 0.6875 2.84375q0.6875 1.171875 1.8125 1.796875q1.140625 0.625 2.390625 0.625zm11.1310425 2.546875l0 -15.640625l3.3125 0l0 15.640625l-3.3125 0zm1.65625 -17.9375q-0.921875 0 -1.578125 -0.65625q-0.65625 -0.65625 -0.65625 -1.578125q0 -0.953125 0.65625 -1.578125q0.65625 -0.625 1.578125 -0.625q0.953125 0 1.59375 0.625q0.640625 0.625 0.640625 1.578125q0 0.921875 -0.640625 1.578125q-0.640625 0.65625 -1.59375 0.65625zm12.291992 18.421875q-2.109375 0 -3.828125 -1.0625q-1.71875 -1.078125 -2.703125 -2.9375q-0.96875 -1.875 -0.96875 -4.296875q0 -2.421875 0.96875 -4.296875q0.984375 -1.875 2.703125 -2.9375q1.71875 -1.078125 3.828125 -1.078125q1.234375 0 2.203125 0.375q0.984375 0.359375 1.703125 0.96875q0.734375 0.59375 1.125 1.265625l0.1875 0l-0.1875 -2.1875l0 -6.25l3.28125 0l0 21.953125l-3.09375 0l0 -2.078125l-0.1875 0q-0.390625 0.640625 -1.125 1.234375q-0.71875 0.59375 -1.703125 0.953125q-0.96875 0.375 -2.203125 0.375zm0.5 -3.03125q1.21875 0 2.296875 -0.640625q1.09375 -0.640625 1.75 -1.8125q0.671875 -1.1875 0.671875 -2.8125q0 -1.625 -0.671875 -2.796875q-0.65625 -1.1875 -1.75 -1.828125q-1.078125 -0.65625 -2.296875 -0.65625q-1.234375 0 -2.3125 0.65625q-1.0625 0.640625 -1.734375 1.828125q-0.671875 1.171875 -0.671875 2.796875q0 1.59375 0.671875 2.796875q0.671875 1.1875 1.734375 1.828125q1.078125 0.640625 2.3125 0.640625z" fill-rule="nonzero"/><path fill="#000000" d="m540.1653 459.17056q-2.109375 0 -3.828125 -1.0625q-1.71875 -1.078125 -2.703125 -2.9375q-0.96875 -1.875 -0.96875 -4.296875q0 -2.421875 0.96875 -4.296875q0.984375 -1.875 2.703125 -2.9375q1.71875 -1.078125 3.828125 -1.078125q1.234375 0 2.203125 0.375q0.984375 0.359375 1.703125 0.96875q0.734375 0.59375 1.125 1.265625l0.1875 0l-0.1875 -2.1875l0 -6.25l3.28125 0l0 21.953125l-3.09375 0l0 -2.078125l-0.1875 0q-0.390625 0.640625 -1.125 1.234375q-0.71875 0.59375 -1.703125 0.953125q-0.96875 0.375 -2.203125 0.375zm0.5 -3.03125q1.21875 0 2.296875 -0.640625q1.09375 -0.640625 1.75 -1.8125q0.671875 -1.1875 0.671875 -2.8125q0 -1.625 -0.671875 -2.796875q-0.65625 -1.1875 -1.75 -1.828125q-1.078125 -0.65625 -2.296875 -0.65625q-1.234375 0 -2.3125 0.65625q-1.0625 0.640625 -1.734375 1.828125q-0.671875 1.171875 -0.671875 2.796875q0 1.59375 0.671875 2.796875q0.671875 1.1875 1.734375 1.828125q1.078125 0.640625 2.3125 0.640625zm18.699768 3.03125q-2.296875 0 -4.109375 -1.0625q-1.8125 -1.078125 -2.84375 -2.9375q-1.015625 -1.875 -1.015625 -4.265625q0 -2.25 0.96875 -4.140625q0.984375 -1.90625 2.75 -3.046875q1.765625 -1.15625 4.0625 -1.15625q2.421875 0 4.125 1.046875q1.703125 1.03125 2.59375 2.84375q0.890625 1.8125 0.890625 4.078125q0 0.34375 -0.015625 0.625q-0.015625 0.265625 -0.046875 0.421875l-13.46875 0l0 -2.484375l10.25 0q-0.03125 -0.578125 -0.3125 -1.234375q-0.28125 -0.671875 -0.796875 -1.21875q-0.515625 -0.546875 -1.3125 -0.90625q-0.796875 -0.359375 -1.875 -0.359375q-1.34375 0 -2.390625 0.703125q-1.046875 0.6875 -1.625 1.921875q-0.578125 1.21875 -0.578125 2.84375q0 1.78125 0.671875 2.984375q0.671875 1.1875 1.765625 1.796875q1.109375 0.609375 2.40625 0.609375q1.5625 0 2.609375 -0.71875q1.0625 -0.71875 1.671875 -1.796875l2.734375 1.328125q-1.015625 1.828125 -2.765625 2.984375q-1.734375 1.140625 -4.34375 1.140625zm14.930054 -0.484375l-6.46875 -15.640625l3.671875 0l4.390625 11.375l0.15625 0l4.46875 -11.375l3.625 0l-6.53125 15.640625l-3.3125 0zm12.222778 0l0 -15.640625l3.3125 0l0 15.640625l-3.3125 0zm1.65625 -17.9375q-0.921875 0 -1.578125 -0.65625q-0.65625 -0.65625 -0.65625 -1.578125q0 -0.953125 0.65625 -1.578125q0.65625 -0.625 1.578125 -0.625q0.953125 0 1.59375 0.625q0.640625 0.625 0.640625 1.578125q0 0.921875 -0.640625 1.578125q-0.640625 0.65625 -1.59375 0.65625zm12.854492 18.421875q-2.359375 0 -4.1875 -1.0625q-1.828125 -1.078125 -2.859375 -2.953125q-1.015625 -1.890625 -1.015625 -4.28125q0 -2.390625 1.015625 -4.265625q1.03125 -1.875 2.859375 -2.953125q1.828125 -1.09375 4.1875 -1.09375q2.59375 0 4.390625 1.171875q1.796875 1.15625 2.5625 3.15625l-3.0 1.21875q-0.5625 -1.25 -1.59375 -1.875q-1.015625 -0.640625 -2.421875 -0.640625q-1.296875 0 -2.375 0.671875q-1.0625 0.65625 -1.703125 1.828125q-0.640625 1.15625 -0.640625 2.78125q0 1.59375 0.640625 2.796875q0.640625 1.1875 1.703125 1.828125q1.078125 0.640625 2.375 0.640625q1.5 0 2.53125 -0.671875q1.046875 -0.671875 1.640625 -1.90625l2.9375 1.296875q-0.859375 1.859375 -2.65625 3.09375q-1.796875 1.21875 -4.390625 1.21875zm16.88977 0q-2.296875 0 -4.109375 -1.0625q-1.8125 -1.078125 -2.84375 -2.9375q-1.015625 -1.875 -1.015625 -4.265625q0 -2.25 0.96875 -4.140625q0.984375 -1.90625 2.75 -3.046875q1.765625 -1.15625 4.0625 -1.15625q2.421875 0 4.125 1.046875q1.703125 1.03125 2.59375 2.84375q0.890625 1.8125 0.890625 4.078125q0 0.34375 -0.015625 0.625q-0.015625 0.265625 -0.046875 0.421875l-13.46875 0l0 -2.484375l10.25 0q-0.03125 -0.578125 -0.3125 -1.234375q-0.28125 -0.671875 -0.796875 -1.21875q-0.515625 -0.546875 -1.3125 -0.90625q-0.796875 -0.359375 -1.875 -0.359375q-1.34375 0 -2.390625 0.703125q-1.046875 0.6875 -1.625 1.921875q-0.578125 1.21875 -0.578125 2.84375q0 1.78125 0.671875 2.984375q0.671875 1.1875 1.765625 1.796875q1.109375 0.609375 2.40625 0.609375q1.5625 0 2.609375 -0.71875q1.0625 -0.71875 1.671875 -1.796875l2.734375 1.328125q-1.015625 1.828125 -2.765625 2.984375q-1.734375 1.140625 -4.34375 1.140625z" fill-rule="nonzero"/><path fill="#000000" fill-opacity="0.0" d="m109.07743 414.01968l29.894173 0l0 207.3071l919.42865 0" fill-rule="evenodd"/><path stroke="#4285f4" stroke-width="4.0" stroke-linejoin="round" stroke-linecap="butt" d="m109.07743 414.01968l29.894173 0l0 207.3071l919.42865 0" fill-rule="evenodd"/><path fill="#000000" fill-opacity="0.0" d="m1056.2375 618.9659l0 -167.93701" fill-rule="evenodd"/><path stroke="#4285f4" stroke-width="4.0" stroke-linejoin="round" stroke-linecap="butt" d="m1056.2375 618.9659l0 -143.93701" fill-rule="evenodd"/><path fill="#4285f4" stroke="#4285f4" stroke-width="4.0" stroke-linecap="butt" d="m1062.8445 475.02887l-6.6069336 -18.152374l-6.6069336 18.152374z" fill-rule="evenodd"/><path fill="#000000" fill-opacity="0.0" d="m688.3504 84.45932l365.79523 0l0 238.96063" fill-rule="evenodd"/><path stroke="#4285f4" stroke-width="4.0" stroke-linejoin="round" stroke-linecap="butt" d="m712.3504 84.45932l341.79523 0l0 238.96063" fill-rule="evenodd"/><path fill="#4285f4" stroke="#4285f4" stroke-width="4.0" stroke-linecap="butt" d="m712.3504 77.85239l-18.152405 6.6069336l18.152405 6.606926z" fill-rule="evenodd"/><path fill="#000000" fill-opacity="0.0" d="m579.01184 289.06824l0 -64.61159l0.06298828 0l0 -64.61676" fill-rule="evenodd"/><path stroke="#4285f4" stroke-width="4.0" stroke-linejoin="round" stroke-linecap="butt" d="m579.01184 265.06824l0 -40.611588l0.06298828 0l0 -64.61676" fill-rule="evenodd"/><path fill="#4285f4" stroke="#4285f4" stroke-width="4.0" stroke-linecap="butt" d="m572.4049 265.06824l6.6069336 18.152405l6.6068726 -18.152405z" fill-rule="evenodd"/><path fill="#000000" fill-opacity="0.0" d="m426.81235 621.31757l314.9606 0l0 52.91339l-314.9606 0z" fill-rule="evenodd"/><path fill="#000000" d="m555.87396 660.24194q-1.75 0 -3.34375 -0.6875q-1.59375 -0.6875 -2.8125 -2.03125q-1.203125 -1.359375 -1.78125 -3.34375l3.1875 -1.28125q0.484375 1.765625 1.703125 2.96875q1.234375 1.1875 3.078125 1.1875q1.046875 0 1.9375 -0.359375q0.90625 -0.375 1.453125 -1.09375q0.5625 -0.71875 0.5625 -1.765625q0 -0.96875 -0.46875 -1.65625q-0.453125 -0.703125 -1.46875 -1.265625q-1.0 -0.5625 -2.5625 -1.125l-1.390625 -0.484375q-0.890625 -0.34375 -1.8125 -0.828125q-0.90625 -0.484375 -1.6875 -1.203125q-0.78125 -0.734375 -1.25 -1.703125q-0.453125 -0.984375 -0.453125 -2.28125q0 -1.65625 0.875 -3.0q0.875 -1.34375 2.421875 -2.15625q1.546875 -0.8125 3.59375 -0.8125q2.125 0 3.546875 0.75q1.421875 0.75 2.234375 1.796875q0.8125 1.03125 1.125 1.984375l-3.046875 1.296875q-0.171875 -0.65625 -0.65625 -1.265625q-0.46875 -0.609375 -1.25 -1.015625q-0.78125 -0.421875 -1.921875 -0.421875q-0.984375 0 -1.796875 0.375q-0.8125 0.359375 -1.296875 0.984375q-0.484375 0.625 -0.484375 1.453125q0 1.203125 0.96875 1.953125q0.984375 0.75 2.859375 1.359375l1.40625 0.5q1.078125 0.359375 2.109375 0.875q1.046875 0.5 1.90625 1.28125q0.859375 0.78125 1.359375 1.90625q0.515625 1.109375 0.515625 2.640625q0 1.6875 -0.65625 2.9375q-0.65625 1.234375 -1.75 2.015625q-1.09375 0.78125 -2.40625 1.140625q-1.296875 0.375 -2.546875 0.375zm11.25238 -0.484375l0 -21.953125l7.015625 0q3.46875 0 5.96875 1.40625q2.5 1.390625 3.859375 3.875q1.359375 2.484375 1.359375 5.703125q0 3.21875 -1.359375 5.703125q-1.359375 2.46875 -3.859375 3.875q-2.5 1.390625 -5.96875 1.390625l-7.015625 0zm3.375 -3.1875l3.546875 0q2.484375 0 4.265625 -0.9375q1.78125 -0.9375 2.703125 -2.671875q0.921875 -1.75 0.921875 -4.171875q0 -2.421875 -0.921875 -4.171875q-0.921875 -1.75 -2.703125 -2.6875q-1.78125 -0.9375 -4.265625 -0.9375l-3.546875 0l0 15.578125zm18.69757 3.1875l0 -21.953125l3.375 0l0 13.640625l0 8.3125l-3.375 0zm13.265625 0l-7.78125 -11.125l2.296875 -2.609375l9.59375 13.546875l0 0.1875l-4.109375 0zm-11.546875 -4.5l0.03125 -4.765625l10.75 -12.6875l4.171875 0l0 0.1875l-14.953125 17.265625zm23.302734 4.984375q-1.875 0 -3.265625 -0.5625q-1.375 -0.5625 -2.265625 -1.53125q-0.890625 -0.96875 -1.3125 -2.09375l2.96875 -1.296875q0.5625 1.265625 1.578125 1.921875q1.03125 0.65625 2.375 0.65625q1.234375 0 2.125 -0.4375q0.890625 -0.453125 0.890625 -1.46875q0 -0.640625 -0.421875 -1.046875q-0.40625 -0.421875 -1.109375 -0.6875q-0.6875 -0.28125 -1.5625 -0.5l-1.875 -0.421875q-1.109375 -0.28125 -2.109375 -0.875q-0.984375 -0.609375 -1.609375 -1.515625q-0.609375 -0.921875 -0.609375 -2.1875q0 -1.40625 0.8125 -2.421875q0.8125 -1.03125 2.1875 -1.578125q1.390625 -0.5625 2.984375 -0.5625q1.46875 0 2.671875 0.390625q1.21875 0.375 2.125 1.125q0.90625 0.75 1.421875 1.859375l-2.84375 1.28125q-0.53125 -1.03125 -1.421875 -1.4375q-0.890625 -0.421875 -1.921875 -0.421875q-1.171875 0 -1.953125 0.46875q-0.78125 0.46875 -0.78125 1.234375q0 0.796875 0.6875 1.265625q0.6875 0.453125 1.703125 0.734375l2.265625 0.546875q2.328125 0.59375 3.5 1.78125q1.171875 1.171875 1.171875 2.859375q0 1.5 -0.859375 2.625q-0.859375 1.109375 -2.328125 1.703125q-1.453125 0.59375 -3.21875 0.59375z" fill-rule="nonzero"/><path fill="#000000" fill-opacity="0.0" d="m261.2676 176.17867l314.96066 0l0 56.56694l-314.96066 0z" fill-rule="evenodd"/><path fill="#000000" d="m403.4558 214.61867l8.28125 -21.953125l3.828125 0l8.3125 21.953125l-3.703125 0l-5.578125 -15.484375l-0.828125 -2.515625l-0.1875 0l-0.828125 2.515625l-5.578125 15.484375l-3.71875 0zm9.9375 -5.640625l0 -3.125l5.09375 0l1.09375 3.125l-6.1875 0zm-5.96875 0l1.09375 -3.125l4.875 0l0 3.125l-5.96875 0zm18.974518 12.265625l0 -22.265625l3.09375 0l0 2.125l0.1875 0q0.421875 -0.671875 1.140625 -1.265625q0.71875 -0.609375 1.703125 -0.96875q0.984375 -0.375 2.171875 -0.375q2.15625 0 3.84375 1.078125q1.6875 1.0625 2.671875 2.9375q1.0 1.875 1.0 4.296875q0 2.421875 -1.0 4.296875q-0.984375 1.859375 -2.671875 2.9375q-1.6875 1.0625 -3.84375 1.0625q-1.765625 0 -3.09375 -0.796875q-1.3125 -0.796875 -1.921875 -1.765625l-0.1875 0l0.1875 2.171875l0 6.53125l-3.28125 0zm7.8125 -9.171875q1.21875 0 2.3125 -0.640625q1.09375 -0.640625 1.75 -1.828125q0.65625 -1.203125 0.65625 -2.796875q0 -1.625 -0.65625 -2.796875q-0.65625 -1.1875 -1.75 -1.828125q-1.09375 -0.65625 -2.3125 -0.65625q-1.234375 0 -2.3125 0.65625q-1.0625 0.640625 -1.734375 1.828125q-0.671875 1.171875 -0.671875 2.796875q0 1.625 0.671875 2.8125q0.671875 1.171875 1.734375 1.8125q1.078125 0.640625 2.3125 0.640625zm10.703827 9.171875l0 -22.265625l3.09375 0l0 2.125l0.1875 0q0.421875 -0.671875 1.140625 -1.265625q0.71875 -0.609375 1.703125 -0.96875q0.984375 -0.375 2.171875 -0.375q2.15625 0 3.84375 1.078125q1.6875 1.0625 2.671875 2.9375q1.0 1.875 1.0 4.296875q0 2.421875 -1.0 4.296875q-0.984375 1.859375 -2.671875 2.9375q-1.6875 1.0625 -3.84375 1.0625q-1.765625 0 -3.09375 -0.796875q-1.3125 -0.796875 -1.921875 -1.765625l-0.1875 0l0.1875 2.171875l0 6.53125l-3.28125 0zm7.8125 -9.171875q1.21875 0 2.3125 -0.640625q1.09375 -0.640625 1.75 -1.828125q0.65625 -1.203125 0.65625 -2.796875q0 -1.625 -0.65625 -2.796875q-0.65625 -1.1875 -1.75 -1.828125q-1.09375 -0.65625 -2.3125 -0.65625q-1.234375 0 -2.3125 0.65625q-1.0625 0.640625 -1.734375 1.828125q-0.671875 1.171875 -0.671875 2.796875q0 1.625 0.671875 2.8125q0.671875 1.171875 1.734375 1.8125q1.078125 0.640625 2.3125 0.640625zm23.575317 1.046875l0 -13.609375l2.8125 0l0 13.609375l-2.8125 0zm-5.421875 -5.390625l0 -2.828125l13.671875 0l0 2.828125l-13.671875 0zm30.650146 7.375q-1.75 0 -3.34375 -0.6875q-1.59375 -0.6875 -2.8125 -2.03125q-1.203125 -1.359375 -1.78125 -3.34375l3.1875 -1.28125q0.484375 1.765625 1.703125 2.96875q1.234375 1.1875 3.078125 1.1875q1.046875 0 1.9375 -0.359375q0.90625 -0.375 1.453125 -1.09375q0.5625 -0.71875 0.5625 -1.765625q0 -0.96875 -0.46875 -1.65625q-0.453125 -0.703125 -1.46875 -1.265625q-1.0 -0.5625 -2.5625 -1.125l-1.390625 -0.484375q-0.890625 -0.34375 -1.8125 -0.828125q-0.90625 -0.484375 -1.6875 -1.203125q-0.78125 -0.734375 -1.25 -1.703125q-0.453125 -0.984375 -0.453125 -2.28125q0 -1.65625 0.875 -3.0q0.875 -1.34375 2.421875 -2.15625q1.546875 -0.8125 3.59375 -0.8125q2.125 0 3.546875 0.75q1.421875 0.75 2.234375 1.796875q0.8125 1.03125 1.125 1.984375l-3.046875 1.296875q-0.171875 -0.65625 -0.65625 -1.265625q-0.46875 -0.609375 -1.25 -1.015625q-0.78125 -0.421875 -1.921875 -0.421875q-0.984375 0 -1.796875 0.375q-0.8125 0.359375 -1.296875 0.984375q-0.484375 0.625 -0.484375 1.453125q0 1.203125 0.96875 1.953125q0.984375 0.75 2.859375 1.359375l1.40625 0.5q1.078125 0.359375 2.109375 0.875q1.046875 0.5 1.90625 1.28125q0.859375 0.78125 1.359375 1.90625q0.515625 1.109375 0.515625 2.640625q0 1.6875 -0.65625 2.9375q-0.65625 1.234375 -1.75 2.015625q-1.09375 0.78125 -2.40625 1.140625q-1.296875 0.375 -2.546875 0.375zm11.25238 -0.484375l0 -21.953125l7.015686 0q3.46875 0 5.96875 1.40625q2.5 1.390625 3.859375 3.875q1.359375 2.484375 1.359375 5.703125q0 3.21875 -1.359375 5.703125q-1.359375 2.46875 -3.859375 3.875q-2.5 1.390625 -5.96875 1.390625l-7.015686 0zm3.375 -3.1875l3.546936 0q2.484375 0 4.265625 -0.9375q1.78125 -0.9375 2.703125 -2.671875q0.921875 -1.75 0.921875 -4.171875q0 -2.421875 -0.921875 -4.171875q-0.921875 -1.75 -2.703125 -2.6875q-1.78125 -0.9375 -4.265625 -0.9375l-3.546936 0l0 15.578125zm18.697632 3.1875l0 -21.953125l3.375 0l0 13.640625l0 8.3125l-3.375 0zm13.265625 0l-7.78125 -11.125l2.296875 -2.609375l9.59375 13.546875l0 0.1875l-4.109375 0zm-11.546875 -4.5l0.03125 -4.765625l10.75 -12.6875l4.171875 0l0 0.1875l-14.953125 17.265625zm23.302673 4.984375q-1.875 0 -3.265625 -0.5625q-1.375 -0.5625 -2.265625 -1.53125q-0.890625 -0.96875 -1.3125 -2.09375l2.96875 -1.296875q0.5625 1.265625 1.578125 1.921875q1.03125 0.65625 2.375 0.65625q1.234375 0 2.125 -0.4375q0.890625 -0.453125 0.890625 -1.46875q0 -0.640625 -0.421875 -1.046875q-0.40625 -0.421875 -1.109375 -0.6875q-0.6875 -0.28125 -1.5625 -0.5l-1.875 -0.421875q-1.109375 -0.28125 -2.109375 -0.875q-0.984375 -0.609375 -1.609375 -1.515625q-0.609375 -0.921875 -0.609375 -2.1875q0 -1.40625 0.8125 -2.421875q0.8125 -1.03125 2.1875 -1.578125q1.390625 -0.5625 2.984375 -0.5625q1.46875 0 2.671875 0.390625q1.21875 0.375 2.125 1.125q0.90625 0.75 1.421875 1.859375l-2.84375 1.28125q-0.53125 -1.03125 -1.421875 -1.4375q-0.890625 -0.421875 -1.921875 -0.421875q-1.171875 0 -1.953125 0.46875q-0.78125 0.46875 -0.78125 1.234375q0 0.796875 0.6875 1.265625q0.6875 0.453125 1.703125 0.734375l2.265625 0.546875q2.328125 0.59375 3.5 1.78125q1.171875 1.171875 1.171875 2.859375q0 1.5 -0.859375 2.625q-0.859375 1.109375 -2.328125 1.703125q-1.453125 0.59375 -3.21875 0.59375z" fill-rule="nonzero"/><path fill="#000000" fill-opacity="0.0" d="m867.72314 166.52756l282.77173 0l0 56.566925l-282.77173 0z" fill-rule="evenodd"/><path fill="#000000" d="m877.1763 204.96756l8.28125 -21.953125l3.828125 0l8.3125 21.953125l-3.703125 0l-5.578125 -15.484375l-0.828125 -2.515625l-0.1875 0l-0.828125 2.515625l-5.578125 15.484375l-3.71875 0zm9.9375 -5.640625l0 -3.125l5.09375 0l1.09375 3.125l-6.1875 0zm-5.96875 0l1.09375 -3.125l4.875 0l0 3.125l-5.96875 0zm18.974548 12.265625l0 -22.265625l3.09375 0l0 2.125l0.1875 0q0.421875 -0.671875 1.140625 -1.265625q0.71875 -0.609375 1.703125 -0.96875q0.984375 -0.375 2.171875 -0.375q2.15625 0 3.84375 1.078125q1.6875 1.0625 2.671875 2.9375q1.0 1.875 1.0 4.296875q0 2.421875 -1.0 4.296875q-0.984375 1.859375 -2.671875 2.9375q-1.6875 1.0625 -3.84375 1.0625q-1.765625 0 -3.09375 -0.796875q-1.3125 -0.796875 -1.921875 -1.765625l-0.1875 0l0.1875 2.171875l0 6.53125l-3.28125 0zm7.8125 -9.171875q1.21875 0 2.3125 -0.640625q1.09375 -0.640625 1.75 -1.828125q0.65625 -1.203125 0.65625 -2.796875q0 -1.625 -0.65625 -2.796875q-0.65625 -1.1875 -1.75 -1.828125q-1.09375 -0.65625 -2.3125 -0.65625q-1.234375 0 -2.3125 0.65625q-1.0625 0.640625 -1.734375 1.828125q-0.671875 1.171875 -0.671875 2.796875q0 1.625 0.671875 2.8125q0.671875 1.171875 1.734375 1.8125q1.078125 0.640625 2.3125 0.640625zm10.703796 9.171875l0 -22.265625l3.09375 0l0 2.125l0.1875 0q0.421875 -0.671875 1.140625 -1.265625q0.71875 -0.609375 1.703125 -0.96875q0.984375 -0.375 2.171875 -0.375q2.15625 0 3.84375 1.078125q1.6875 1.0625 2.671875 2.9375q1.0 1.875 1.0 4.296875q0 2.421875 -1.0 4.296875q-0.984375 1.859375 -2.671875 2.9375q-1.6875 1.0625 -3.84375 1.0625q-1.765625 0 -3.09375 -0.796875q-1.3125 -0.796875 -1.921875 -1.765625l-0.1875 0l0.1875 2.171875l0 6.53125l-3.28125 0zm7.8125 -9.171875q1.21875 0 2.3125 -0.640625q1.09375 -0.640625 1.75 -1.828125q0.65625 -1.203125 0.65625 -2.796875q0 -1.625 -0.65625 -2.796875q-0.65625 -1.1875 -1.75 -1.828125q-1.09375 -0.65625 -2.3125 -0.65625q-1.234375 0 -2.3125 0.65625q-1.0625 0.640625 -1.734375 1.828125q-0.671875 1.171875 -0.671875 2.796875q0 1.625 0.671875 2.8125q0.671875 1.171875 1.734375 1.8125q1.078125 0.640625 2.3125 0.640625zm23.575317 1.046875l0 -13.609375l2.8125 0l0 13.609375l-2.8125 0zm-5.421875 -5.390625l0 -2.828125l13.671875 0l0 2.828125l-13.671875 0zm30.650146 7.375q-1.75 0 -3.34375 -0.6875q-1.59375 -0.6875 -2.8125 -2.03125q-1.203125 -1.359375 -1.78125 -3.34375l3.1875 -1.28125q0.484375 1.765625 1.703125 2.96875q1.234375 1.1875 3.078125 1.1875q1.046875 0 1.9375 -0.359375q0.90625 -0.375 1.453125 -1.09375q0.5625 -0.71875 0.5625 -1.765625q0 -0.96875 -0.46875 -1.65625q-0.453125 -0.703125 -1.46875 -1.265625q-1.0 -0.5625 -2.5625 -1.125l-1.390625 -0.484375q-0.890625 -0.34375 -1.8125 -0.828125q-0.90625 -0.484375 -1.6875 -1.203125q-0.78125 -0.734375 -1.25 -1.703125q-0.453125 -0.984375 -0.453125 -2.28125q0 -1.65625 0.875 -3.0q0.875 -1.34375 2.421875 -2.15625q1.546875 -0.8125 3.59375 -0.8125q2.125 0 3.546875 0.75q1.421875 0.75 2.234375 1.796875q0.8125 1.03125 1.125 1.984375l-3.046875 1.296875q-0.171875 -0.65625 -0.65625 -1.265625q-0.46875 -0.609375 -1.25 -1.015625q-0.78125 -0.421875 -1.921875 -0.421875q-0.984375 0 -1.796875 0.375q-0.8125 0.359375 -1.296875 0.984375q-0.484375 0.625 -0.484375 1.453125q0 1.203125 0.96875 1.953125q0.984375 0.75 2.859375 1.359375l1.40625 0.5q1.078125 0.359375 2.109375 0.875q1.046875 0.5 1.90625 1.28125q0.859375 0.78125 1.359375 1.90625q0.515625 1.109375 0.515625 2.640625q0 1.6875 -0.65625 2.9375q-0.65625 1.234375 -1.75 2.015625q-1.09375 0.78125 -2.40625 1.140625q-1.296875 0.375 -2.546875 0.375zm11.252441 -0.484375l0 -21.953125l7.015625 0q3.46875 0 5.96875 1.40625q2.5 1.390625 3.859375 3.875q1.359375 2.484375 1.359375 5.703125q0 3.21875 -1.359375 5.703125q-1.359375 2.46875 -3.859375 3.875q-2.5 1.390625 -5.96875 1.390625l-7.015625 0zm3.375 -3.1875l3.546875 0q2.484375 0 4.265625 -0.9375q1.78125 -0.9375 2.703125 -2.671875q0.921875 -1.75 0.921875 -4.171875q0 -2.421875 -0.921875 -4.171875q-0.921875 -1.75 -2.703125 -2.6875q-1.78125 -0.9375 -4.265625 -0.9375l-3.546875 0l0 15.578125zm18.69757 3.1875l0 -21.953125l3.375 0l0 13.640625l0 8.3125l-3.375 0zm13.265625 0l-7.78125 -11.125l2.296875 -2.609375l9.593689 13.546875l0 0.1875l-4.109314 0zm-11.546875 -4.5l0.03125 -4.765625l10.75 -12.6875l4.171814 0l0 0.1875l-14.953064 17.265625zm23.302673 4.984375q-1.875 0 -3.265625 -0.5625q-1.375 -0.5625 -2.265625 -1.53125q-0.890625 -0.96875 -1.3125 -2.09375l2.96875 -1.296875q0.5625 1.265625 1.578125 1.921875q1.03125 0.65625 2.375 0.65625q1.234375 0 2.125 -0.4375q0.890625 -0.453125 0.890625 -1.46875q0 -0.640625 -0.421875 -1.046875q-0.40625 -0.421875 -1.109375 -0.6875q-0.6875 -0.28125 -1.5625 -0.5l-1.875 -0.421875q-1.109375 -0.28125 -2.109375 -0.875q-0.984375 -0.609375 -1.609375 -1.515625q-0.609375 -0.921875 -0.609375 -2.1875q0 -1.40625 0.8125 -2.421875q0.8125 -1.03125 2.1875 -1.578125q1.390625 -0.5625 2.984375 -0.5625q1.46875 0 2.671875 0.390625q1.21875 0.375 2.125 1.125q0.90625 0.75 1.421875 1.859375l-2.84375 1.28125q-0.53125 -1.03125 -1.421875 -1.4375q-0.890625 -0.421875 -1.921875 -0.421875q-1.171875 0 -1.953125 0.46875q-0.78125 0.46875 -0.78125 1.234375q0 0.796875 0.6875 1.265625q0.6875 0.453125 1.703125 0.734375l2.265625 0.546875q2.328125 0.59375 3.5 1.78125q1.171875 1.171875 1.171875 2.859375q0 1.5 -0.859375 2.625q-0.859375 1.109375 -2.328125 1.703125q-1.453125 0.59375 -3.21875 0.59375z" fill-rule="nonzero"/><path fill="#ffca28" d="m24.471048 322.3921l0 0c0 -8.268158 6.7026653 -14.970825 14.970823 -14.970825l160.893 0c3.9705048 0 7.7783966 1.5772705 10.585968 4.384857c2.8075714 2.8075562 4.384857 6.615448 4.384857 10.585968l0 85.050476c0 8.268158 -6.702667 14.970825 -14.970825 14.970825l-160.893 0c-8.268158 0 -14.970823 -6.702667 -14.970823 -14.970825z" fill-rule="evenodd"/><path stroke="#5f6368" stroke-width="2.0" stroke-miterlimit="400.0" stroke-linecap="butt" d="m24.471048 322.3921l0 0c0 -8.268158 6.7026653 -14.970825 14.970823 -14.970825l160.893 0c3.9705048 0 7.7783966 1.5772705 10.585968 4.384857c2.8075714 2.8075562 4.384857 6.615448 4.384857 10.585968l0 85.050476c0 8.268158 -6.702667 14.970825 -14.970825 14.970825l-160.893 0c-8.268158 0 -14.970823 -6.702667 -14.970823 -14.970825z" fill-rule="evenodd"/><path fill="#000000" d="m100.64001 358.25046q-1.59375 0 -3.0625 -0.625q-1.453125 -0.640625 -2.5625 -1.875q-1.09375 -1.234375 -1.625 -3.046875l2.90625 -1.171875q0.453125 1.625 1.5625 2.71875q1.125 1.078125 2.8125 1.078125q0.953125 0 1.765625 -0.328125q0.828125 -0.34375 1.328125 -1.0q0.515625 -0.65625 0.515625 -1.609375q0 -0.890625 -0.421875 -1.515625q-0.421875 -0.640625 -1.34375 -1.15625q-0.921875 -0.515625 -2.359375 -1.015625l-1.25 -0.453125q-0.8125 -0.3125 -1.65625 -0.75q-0.84375 -0.453125 -1.5625 -1.109375q-0.703125 -0.65625 -1.125 -1.546875q-0.421875 -0.90625 -0.421875 -2.078125q0 -1.515625 0.796875 -2.75q0.796875 -1.234375 2.203125 -1.96875q1.421875 -0.75 3.296875 -0.75q1.9375 0 3.234375 0.6875q1.3125 0.6875 2.046875 1.640625q0.75 0.953125 1.03125 1.8125l-2.78125 1.1875q-0.171875 -0.59375 -0.609375 -1.15625q-0.421875 -0.5625 -1.140625 -0.9375q-0.71875 -0.375 -1.75 -0.375q-0.890625 0 -1.640625 0.34375q-0.734375 0.328125 -1.1875 0.90625q-0.453125 0.578125 -0.453125 1.328125q0 1.09375 0.890625 1.78125q0.90625 0.6875 2.609375 1.234375l1.296875 0.453125q0.984375 0.34375 1.921875 0.8125q0.953125 0.453125 1.734375 1.171875q0.796875 0.703125 1.25 1.734375q0.46875 1.015625 0.46875 2.421875q0 1.53125 -0.609375 2.671875q-0.59375 1.125 -1.59375 1.84375q-0.984375 0.71875 -2.1875 1.046875q-1.1875 0.34375 -2.328125 0.34375zm10.271942 -0.453125l0 -20.046875l6.421875 0q3.15625 0 5.4375 1.28125q2.28125 1.265625 3.53125 3.53125q1.25 2.265625 1.25 5.203125q0 2.953125 -1.25 5.21875q-1.25 2.265625 -3.53125 3.546875q-2.28125 1.265625 -5.4375 1.265625l-6.421875 0zm3.078125 -2.90625l3.25 0q2.265625 0 3.890625 -0.859375q1.625 -0.859375 2.46875 -2.453125q0.84375 -1.59375 0.84375 -3.8125q0 -2.203125 -0.84375 -3.796875q-0.84375 -1.59375 -2.46875 -2.453125q-1.625 -0.859375 -3.890625 -0.859375l-3.25 0l0 14.234375zm17.081963 2.90625l0 -20.046875l3.078125 0l0 12.453125l0 7.59375l-3.078125 0zm12.125 0l-7.109375 -10.15625l2.09375 -2.390625l8.765625 12.375l0 0.171875l-3.75 0zm-10.546875 -4.109375l0.015625 -4.34375l9.828125 -11.59375l3.8125 0l0 0.171875l-13.65625 15.765625z" fill-rule="nonzero"/><path fill="#000000" d="m55.355053 392.25046q-1.9375 0 -3.515625 -0.984375q-1.5625 -0.984375 -2.453125 -2.6875q-0.890625 -1.703125 -0.890625 -3.921875q0 -2.21875 0.890625 -3.921875q0.890625 -1.703125 2.453125 -2.6875q1.578125 -0.984375 3.515625 -0.984375q1.109375 0 2.0 0.34375q0.90625 0.328125 1.5625 0.875q0.65625 0.546875 1.015625 1.171875l0.171875 0l-0.171875 -2.0l0 -5.703125l3.0 0l0 20.046875l-2.828125 0l0 -1.90625l-0.171875 0q-0.359375 0.59375 -1.015625 1.140625q-0.65625 0.546875 -1.5625 0.875q-0.890625 0.34375 -2.0 0.34375zm0.4375 -2.78125q1.125 0 2.109375 -0.578125q1.0 -0.59375 1.59375 -1.671875q0.609375 -1.078125 0.609375 -2.5625q0 -1.484375 -0.609375 -2.5625q-0.59375 -1.078125 -1.59375 -1.65625q-0.984375 -0.59375 -2.109375 -0.59375q-1.109375 0 -2.09375 0.59375q-0.984375 0.578125 -1.609375 1.65625q-0.609375 1.078125 -0.609375 2.5625q0 1.453125 0.609375 2.546875q0.625 1.09375 1.609375 1.6875q0.984375 0.578125 2.09375 0.578125zm17.076824 2.78125q-2.09375 0 -3.75 -0.984375q-1.640625 -0.984375 -2.578125 -2.6875q-0.9375 -1.703125 -0.9375 -3.890625q0 -2.046875 0.890625 -3.78125q0.890625 -1.734375 2.5 -2.78125q1.609375 -1.0625 3.71875 -1.0625q2.203125 0 3.75 0.953125q1.5625 0.953125 2.375 2.609375q0.8125 1.65625 0.8125 3.71875q0 0.3125 -0.015625 0.5625q-0.015625 0.25 -0.03125 0.390625l-12.296875 0l0 -2.265625l9.34375 0q-0.015625 -0.53125 -0.28125 -1.125q-0.25 -0.609375 -0.734375 -1.109375q-0.46875 -0.515625 -1.203125 -0.828125q-0.71875 -0.328125 -1.703125 -0.328125q-1.21875 0 -2.171875 0.640625q-0.953125 0.625 -1.484375 1.75q-0.53125 1.109375 -0.53125 2.59375q0 1.625 0.609375 2.71875q0.625 1.09375 1.625 1.65625q1.015625 0.5625 2.1875 0.5625q1.421875 0 2.390625 -0.65625q0.96875 -0.671875 1.53125 -1.640625l2.484375 1.203125q-0.921875 1.671875 -2.515625 2.734375q-1.59375 1.046875 -3.984375 1.046875zm13.648193 -0.453125l-5.90625 -14.28125l3.359375 0l4.0 10.390625l0.140625 0l4.078125 -10.390625l3.3125 0l-5.96875 14.28125l-3.015625 0zm17.039948 0.453125q-2.09375 0 -3.75 -0.984375q-1.640625 -0.984375 -2.578125 -2.6875q-0.9375 -1.703125 -0.9375 -3.890625q0 -2.046875 0.890625 -3.78125q0.890625 -1.734375 2.5 -2.78125q1.609375 -1.0625 3.71875 -1.0625q2.203125 0 3.75 0.953125q1.5625 0.953125 2.375 2.609375q0.8125 1.65625 0.8125 3.71875q0 0.3125 -0.015625 0.5625q-0.015625 0.25 -0.03125 0.390625l-12.296875 0l0 -2.265625l9.34375 0q-0.015625 -0.53125 -0.28125 -1.125q-0.25 -0.609375 -0.734375 -1.109375q-0.46875 -0.515625 -1.203125 -0.828125q-0.71875 -0.328125 -1.703125 -0.328125q-1.21875 0 -2.171875 0.640625q-0.953125 0.625 -1.484375 1.75q-0.53125 1.109375 -0.53125 2.59375q0 1.625 0.609375 2.71875q0.625 1.09375 1.625 1.65625q1.015625 0.5625 2.1875 0.5625q1.421875 0 2.390625 -0.65625q0.96875 -0.671875 1.53125 -1.640625l2.484375 1.203125q-0.921875 1.671875 -2.515625 2.734375q-1.59375 1.046875 -3.984375 1.046875zm9.615692 -0.453125l0 -20.046875l3.015625 0l0 20.046875l-3.015625 0zm13.155533 0.453125q-2.21875 0 -3.90625 -1.0q-1.671875 -1.015625 -2.625 -2.734375q-0.9375 -1.734375 -0.9375 -3.859375q0 -2.125 0.9375 -3.84375q0.953125 -1.734375 2.625 -2.734375q1.6875 -1.015625 3.90625 -1.015625q2.1875076 0 3.8593826 1.03125q1.6875 1.015625 2.640625 2.734375q0.953125 1.703125 0.953125 3.828125q0 2.125 -0.953125 3.859375q-0.953125 1.71875 -2.640625 2.734375q-1.671875 1.0 -3.8593826 1.0zm0 -2.78125q1.171875 0 2.1718826 -0.5625q1.015625 -0.578125 1.640625 -1.65625q0.640625 -1.078125 0.640625 -2.59375q0 -1.515625 -0.640625 -2.59375q-0.625 -1.078125 -1.640625 -1.640625q-1.0000076 -0.578125 -2.1718826 -0.578125q-1.171875 0 -2.203125 0.578125q-1.015625 0.5625 -1.65625 1.640625q-0.625 1.078125 -0.625 2.59375q0 1.515625 0.625 2.59375q0.640625 1.078125 1.671875 1.65625q1.046875 0.5625 2.1875 0.5625zm10.050072 8.375l0 -20.328125l2.828125 0l0 1.9375l0.171875 0q0.390625 -0.625 1.046875 -1.171875q0.65625 -0.546875 1.546875 -0.875q0.90625 -0.34375 2.0 -0.34375q1.953125 0 3.484375 0.984375q1.546875 0.984375 2.453125 2.6875q0.921875 1.703125 0.921875 3.921875q0 2.21875 -0.921875 3.921875q-0.90625 1.703125 -2.453125 2.6875q-1.53125 0.984375 -3.484375 0.984375q-1.625 0 -2.828125 -0.734375q-1.203125 -0.734375 -1.765625 -1.625l-0.171875 0l0.171875 1.984375l0 5.96875l-3.0 0zm7.140625 -8.375q1.125 0 2.109375 -0.578125q1.0 -0.59375 1.59375 -1.6875q0.609375 -1.09375 0.609375 -2.546875q0 -1.484375 -0.609375 -2.5625q-0.59375 -1.078125 -1.59375 -1.65625q-0.984375 -0.59375 -2.109375 -0.59375q-1.125 0 -2.109375 0.59375q-0.96875 0.578125 -1.59375 1.65625q-0.609375 1.078125 -0.609375 2.5625q0 1.484375 0.609375 2.5625q0.625 1.078125 1.59375 1.671875q0.984375 0.578125 2.109375 0.578125zm16.598312 2.78125q-2.09375 0 -3.7499847 -0.984375q-1.640625 -0.984375 -2.578125 -2.6875q-0.9375 -1.703125 -0.9375 -3.890625q0 -2.046875 0.890625 -3.78125q0.890625 -1.734375 2.5 -2.78125q1.6093597 -1.0625 3.7187347 -1.0625q2.203125 0 3.75 0.953125q1.5625 0.953125 2.375 2.609375q0.8125 1.65625 0.8125 3.71875q0 0.3125 -0.015625 0.5625q-0.015625 0.25 -0.03125 0.390625l-12.29686 0l0 -2.265625l9.343735 0q-0.015625 -0.53125 -0.28125 -1.125q-0.25 -0.609375 -0.734375 -1.109375q-0.46875 -0.515625 -1.203125 -0.828125q-0.71875 -0.328125 -1.703125 -0.328125q-1.21875 0 -2.171875 0.640625q-0.95310974 0.625 -1.4843597 1.75q-0.53125 1.109375 -0.53125 2.59375q0 1.625 0.609375 2.71875q0.62498474 1.09375 1.6249847 1.65625q1.015625 0.5625 2.1875 0.5625q1.421875 0 2.390625 -0.65625q0.96875 -0.671875 1.53125 -1.640625l2.484375 1.203125q-0.921875 1.671875 -2.515625 2.734375q-1.59375 1.046875 -3.984375 1.046875zm9.584442 -0.453125l0 -14.28125l2.859375 0l0 2.09375l0.15625 0q0.34375 -0.71875 0.96875 -1.28125q0.640625 -0.5625 1.453125 -0.890625q0.828125 -0.34375 1.734375 -0.34375q0.578125 0 0.984375 0.078125q0.40625 0.0625 0.75 0.203125l0 3.140625q-0.53125 -0.234375 -1.078125 -0.359375q-0.546875 -0.140625 -1.140625 -0.140625q-1.0625 0 -1.890625 0.578125q-0.828125 0.5625 -1.3125 1.515625q-0.46875 0.953125 -0.46875 2.125l0 7.5625l-3.015625 0zm15.871185 0.453125q-1.703125 0 -2.96875 -0.515625q-1.25 -0.53125 -2.0625 -1.40625q-0.8125 -0.890625 -1.203125 -1.921875l2.703125 -1.171875q0.515625 1.140625 1.453125 1.75q0.9375 0.59375 2.171875 0.59375q1.109375 0 1.921875 -0.40625q0.8125 -0.40625 0.8125 -1.328125q0 -0.578125 -0.375 -0.953125q-0.375 -0.390625 -1.015625 -0.640625q-0.625 -0.25 -1.4375 -0.4375l-1.703125 -0.40625q-1.015625 -0.25 -1.921875 -0.796875q-0.90625 -0.546875 -1.46875 -1.375q-0.5625 -0.84375 -0.5625 -2.0q0 -1.28125 0.734375 -2.21875q0.75 -0.9375 2.0 -1.4375q1.265625 -0.515625 2.734375 -0.515625q1.34375 0 2.4375 0.359375q1.109375 0.34375 1.9375 1.03125q0.828125 0.6875 1.296875 1.703125l-2.59375 1.171875q-0.484375 -0.953125 -1.296875 -1.328125q-0.8125 -0.390625 -1.765625 -0.390625q-1.0625 0 -1.78125 0.4375q-0.703125 0.4375 -0.703125 1.140625q0 0.71875 0.625 1.140625q0.640625 0.421875 1.5625 0.671875l2.0625 0.515625q2.140625 0.53125 3.203125 1.609375q1.0625 1.078125 1.0625 2.609375q0 1.375 -0.796875 2.40625q-0.78125 1.015625 -2.109375 1.5625q-1.328125 0.546875 -2.953125 0.546875z" fill-rule="nonzero"/><path fill="#ffca28" d="m40.471046 338.3921l0 0c0 -8.268158 6.702667 -14.970825 14.970825 -14.970825l160.893 0c3.9705048 0 7.7783966 1.5772705 10.585968 4.384857c2.8075714 2.8075562 4.384857 6.615448 4.384857 10.585968l0 85.050476c0 8.268158 -6.702667 14.970825 -14.970825 14.970825l-160.893 0c-8.268158 0 -14.970825 -6.702667 -14.970825 -14.970825z" fill-rule="evenodd"/><path stroke="#5f6368" stroke-width="2.0" stroke-miterlimit="400.0" stroke-linecap="butt" d="m40.471046 338.3921l0 0c0 -8.268158 6.702667 -14.970825 14.970825 -14.970825l160.893 0c3.9705048 0 7.7783966 1.5772705 10.585968 4.384857c2.8075714 2.8075562 4.384857 6.615448 4.384857 10.585968l0 85.050476c0 8.268158 -6.702667 14.970825 -14.970825 14.970825l-160.893 0c-8.268158 0 -14.970825 -6.702667 -14.970825 -14.970825z" fill-rule="evenodd"/><path fill="#000000" d="m116.64001 374.25046q-1.59375 0 -3.0625 -0.625q-1.453125 -0.640625 -2.5625 -1.875q-1.09375 -1.234375 -1.625 -3.046875l2.90625 -1.171875q0.453125 1.625 1.5625 2.71875q1.125 1.078125 2.8125 1.078125q0.953125 0 1.765625 -0.328125q0.828125 -0.34375 1.328125 -1.0q0.515625 -0.65625 0.515625 -1.609375q0 -0.890625 -0.421875 -1.515625q-0.421875 -0.640625 -1.34375 -1.15625q-0.921875 -0.515625 -2.359375 -1.015625l-1.25 -0.453125q-0.8125 -0.3125 -1.65625 -0.75q-0.84375 -0.453125 -1.5625 -1.109375q-0.703125 -0.65625 -1.125 -1.546875q-0.421875 -0.90625 -0.421875 -2.078125q0 -1.515625 0.796875 -2.75q0.796875 -1.234375 2.203125 -1.96875q1.421875 -0.75 3.296875 -0.75q1.9375 0 3.234375 0.6875q1.3125 0.6875 2.046875 1.640625q0.75 0.953125 1.03125 1.8125l-2.78125 1.1875q-0.171875 -0.59375 -0.609375 -1.15625q-0.421875 -0.5625 -1.140625 -0.9375q-0.71875 -0.375 -1.75 -0.375q-0.890625 0 -1.640625 0.34375q-0.734375 0.328125 -1.1875 0.90625q-0.453125 0.578125 -0.453125 1.328125q0 1.09375 0.890625 1.78125q0.90625 0.6875 2.609375 1.234375l1.296875 0.453125q0.984375 0.34375 1.921875 0.8125q0.953125 0.453125 1.734375 1.171875q0.796875 0.703125 1.25 1.734375q0.46875 1.015625 0.46875 2.421875q0 1.53125 -0.609375 2.671875q-0.59375 1.125 -1.59375 1.84375q-0.984375 0.71875 -2.1875 1.046875q-1.1875 0.34375 -2.328125 0.34375zm10.271942 -0.453125l0 -20.046875l6.4218826 0q3.15625 0 5.4375 1.28125q2.28125 1.265625 3.53125 3.53125q1.25 2.265625 1.25 5.203125q0 2.953125 -1.25 5.21875q-1.25 2.265625 -3.53125 3.546875q-2.28125 1.265625 -5.4375 1.265625l-6.4218826 0zm3.0781326 -2.90625l3.25 0q2.265625 0 3.890625 -0.859375q1.625 -0.859375 2.46875 -2.453125q0.84375 -1.59375 0.84375 -3.8125q0 -2.203125 -0.84375 -3.796875q-0.84375 -1.59375 -2.46875 -2.453125q-1.625 -0.859375 -3.890625 -0.859375l-3.25 0l0 14.234375zm17.081955 2.90625l0 -20.046875l3.078125 0l0 12.453125l0 7.59375l-3.078125 0zm12.125 0l-7.109375 -10.15625l2.09375 -2.390625l8.765625 12.375l0 0.171875l-3.75 0zm-10.546875 -4.109375l0.015625 -4.34375l9.828125 -11.59375l3.8125 0l0 0.171875l-13.65625 15.765625z" fill-rule="nonzero"/><path fill="#000000" d="m71.35505 408.25046q-1.9375 0 -3.515625 -0.984375q-1.5625 -0.984375 -2.453125 -2.6875q-0.890625 -1.703125 -0.890625 -3.921875q0 -2.21875 0.890625 -3.921875q0.890625 -1.703125 2.453125 -2.6875q1.578125 -0.984375 3.515625 -0.984375q1.109375 0 2.0 0.34375q0.90625 0.328125 1.5625 0.875q0.65625 0.546875 1.015625 1.171875l0.171875 0l-0.171875 -2.0l0 -5.703125l3.0 0l0 20.046875l-2.828125 0l0 -1.90625l-0.171875 0q-0.359375 0.59375 -1.015625 1.140625q-0.65625 0.546875 -1.5625 0.875q-0.890625 0.34375 -2.0 0.34375zm0.4375 -2.78125q1.125 0 2.109375 -0.578125q1.0 -0.59375 1.59375 -1.671875q0.609375 -1.078125 0.609375 -2.5625q0 -1.484375 -0.609375 -2.5625q-0.59375 -1.078125 -1.59375 -1.65625q-0.984375 -0.59375 -2.109375 -0.59375q-1.109375 0 -2.09375 0.59375q-0.984375 0.578125 -1.609375 1.65625q-0.609375 1.078125 -0.609375 2.5625q0 1.453125 0.609375 2.546875q0.625 1.09375 1.609375 1.6875q0.984375 0.578125 2.09375 0.578125zm17.076828 2.78125q-2.09375 0 -3.75 -0.984375q-1.640625 -0.984375 -2.578125 -2.6875q-0.9375 -1.703125 -0.9375 -3.890625q0 -2.046875 0.890625 -3.78125q0.890625 -1.734375 2.5 -2.78125q1.609375 -1.0625 3.71875 -1.0625q2.203125 0 3.75 0.953125q1.5625 0.953125 2.375 2.609375q0.8125 1.65625 0.8125 3.71875q0 0.3125 -0.015625 0.5625q-0.015625 0.25 -0.03125 0.390625l-12.296875 0l0 -2.265625l9.34375 0q-0.015625 -0.53125 -0.28125 -1.125q-0.25 -0.609375 -0.734375 -1.109375q-0.46875 -0.515625 -1.203125 -0.828125q-0.71875 -0.328125 -1.703125 -0.328125q-1.21875 0 -2.171875 0.640625q-0.953125 0.625 -1.484375 1.75q-0.53125 1.109375 -0.53125 2.59375q0 1.625 0.609375 2.71875q0.625 1.09375 1.625 1.65625q1.015625 0.5625 2.1875 0.5625q1.421875 0 2.390625 -0.65625q0.96875 -0.671875 1.53125 -1.640625l2.484375 1.203125q-0.921875 1.671875 -2.515625 2.734375q-1.59375 1.046875 -3.984375 1.046875zm13.648193 -0.453125l-5.90625 -14.28125l3.359375 0l4.0 10.390625l0.140625 0l4.078125 -10.390625l3.3125 0l-5.96875 14.28125l-3.015625 0zm17.039948 0.453125q-2.09375 0 -3.75 -0.984375q-1.640625 -0.984375 -2.578125 -2.6875q-0.9375 -1.703125 -0.9375 -3.890625q0 -2.046875 0.890625 -3.78125q0.890625 -1.734375 2.5 -2.78125q1.609375 -1.0625 3.71875 -1.0625q2.203125 0 3.75 0.953125q1.5625 0.953125 2.375 2.609375q0.8125 1.65625 0.8125 3.71875q0 0.3125 -0.015625 0.5625q-0.015625 0.25 -0.03125 0.390625l-12.296875 0l0 -2.265625l9.34375 0q-0.015625 -0.53125 -0.28125 -1.125q-0.25 -0.609375 -0.734375 -1.109375q-0.46875 -0.515625 -1.203125 -0.828125q-0.71875 -0.328125 -1.703125 -0.328125q-1.21875 0 -2.171875 0.640625q-0.953125 0.625 -1.484375 1.75q-0.53125 1.109375 -0.53125 2.59375q0 1.625 0.609375 2.71875q0.625 1.09375 1.625 1.65625q1.015625 0.5625 2.1875 0.5625q1.421875 0 2.390625 -0.65625q0.96875 -0.671875 1.53125 -1.640625l2.484375 1.203125q-0.921875 1.671875 -2.515625 2.734375q-1.59375 1.046875 -3.984375 1.046875zm9.6157 -0.453125l0 -20.046875l3.015625 0l0 20.046875l-3.015625 0zm13.155533 0.453125q-2.21875 0 -3.90625 -1.0q-1.671875 -1.015625 -2.625 -2.734375q-0.9375 -1.734375 -0.9375 -3.859375q0 -2.125 0.9375 -3.84375q0.953125 -1.734375 2.625 -2.734375q1.6875 -1.015625 3.90625 -1.015625q2.1875 0 3.859375 1.03125q1.6875 1.015625 2.640625 2.734375q0.953125 1.703125 0.953125 3.828125q0 2.125 -0.953125 3.859375q-0.953125 1.71875 -2.640625 2.734375q-1.671875 1.0 -3.859375 1.0zm0 -2.78125q1.171875 0 2.171875 -0.5625q1.015625 -0.578125 1.640625 -1.65625q0.640625 -1.078125 0.640625 -2.59375q0 -1.515625 -0.640625 -2.59375q-0.625 -1.078125 -1.640625 -1.640625q-1.0 -0.578125 -2.171875 -0.578125q-1.171875 0 -2.203125 0.578125q-1.015625 0.5625 -1.65625 1.640625q-0.625 1.078125 -0.625 2.59375q0 1.515625 0.625 2.59375q0.640625 1.078125 1.671875 1.65625q1.046875 0.5625 2.1875 0.5625zm10.050064 8.375l0 -20.328125l2.828125 0l0 1.9375l0.171875 0q0.390625 -0.625 1.046875 -1.171875q0.65625 -0.546875 1.546875 -0.875q0.90625 -0.34375 2.0 -0.34375q1.953125 0 3.484375 0.984375q1.546875 0.984375 2.453125 2.6875q0.921875 1.703125 0.921875 3.921875q0 2.21875 -0.921875 3.921875q-0.90625 1.703125 -2.453125 2.6875q-1.53125 0.984375 -3.484375 0.984375q-1.625 0 -2.828125 -0.734375q-1.203125 -0.734375 -1.765625 -1.625l-0.171875 0l0.171875 1.984375l0 5.96875l-3.0 0zm7.140625 -8.375q1.125 0 2.109375 -0.578125q1.0 -0.59375 1.59375 -1.6875q0.609375 -1.09375 0.609375 -2.546875q0 -1.484375 -0.609375 -2.5625q-0.59375 -1.078125 -1.59375 -1.65625q-0.984375 -0.59375 -2.109375 -0.59375q-1.125 0 -2.109375 0.59375q-0.96875 0.578125 -1.59375 1.65625q-0.609375 1.078125 -0.609375 2.5625q0 1.484375 0.609375 2.5625q0.625 1.078125 1.59375 1.671875q0.984375 0.578125 2.109375 0.578125zm16.598312 2.78125q-2.09375 0 -3.7499847 -0.984375q-1.640625 -0.984375 -2.578125 -2.6875q-0.9375 -1.703125 -0.9375 -3.890625q0 -2.046875 0.890625 -3.78125q0.890625 -1.734375 2.5 -2.78125q1.6093597 -1.0625 3.7187347 -1.0625q2.203125 0 3.75 0.953125q1.5625 0.953125 2.375 2.609375q0.8125 1.65625 0.8125 3.71875q0 0.3125 -0.015625 0.5625q-0.015625 0.25 -0.03125 0.390625l-12.29686 0l0 -2.265625l9.343735 0q-0.015625 -0.53125 -0.28125 -1.125q-0.25 -0.609375 -0.734375 -1.109375q-0.46875 -0.515625 -1.203125 -0.828125q-0.71875 -0.328125 -1.703125 -0.328125q-1.21875 0 -2.171875 0.640625q-0.95310974 0.625 -1.4843597 1.75q-0.53125 1.109375 -0.53125 2.59375q0 1.625 0.609375 2.71875q0.62498474 1.09375 1.6249847 1.65625q1.015625 0.5625 2.1875 0.5625q1.421875 0 2.390625 -0.65625q0.96875 -0.671875 1.53125 -1.640625l2.484375 1.203125q-0.921875 1.671875 -2.515625 2.734375q-1.59375 1.046875 -3.984375 1.046875zm9.584442 -0.453125l0 -14.28125l2.859375 0l0 2.09375l0.15625 0q0.34375 -0.71875 0.96875 -1.28125q0.640625 -0.5625 1.453125 -0.890625q0.828125 -0.34375 1.734375 -0.34375q0.578125 0 0.984375 0.078125q0.40625 0.0625 0.75 0.203125l0 3.140625q-0.53125 -0.234375 -1.078125 -0.359375q-0.546875 -0.140625 -1.140625 -0.140625q-1.0625 0 -1.890625 0.578125q-0.828125 0.5625 -1.3125 1.515625q-0.46875 0.953125 -0.46875 2.125l0 7.5625l-3.015625 0zm15.871185 0.453125q-1.703125 0 -2.96875 -0.515625q-1.25 -0.53125 -2.0625 -1.40625q-0.8125 -0.890625 -1.203125 -1.921875l2.703125 -1.171875q0.515625 1.140625 1.453125 1.75q0.9375 0.59375 2.171875 0.59375q1.109375 0 1.921875 -0.40625q0.8125 -0.40625 0.8125 -1.328125q0 -0.578125 -0.375 -0.953125q-0.375 -0.390625 -1.015625 -0.640625q-0.625 -0.25 -1.4375 -0.4375l-1.703125 -0.40625q-1.015625 -0.25 -1.921875 -0.796875q-0.90625 -0.546875 -1.46875 -1.375q-0.5625 -0.84375 -0.5625 -2.0q0 -1.28125 0.734375 -2.21875q0.75 -0.9375 2.0 -1.4375q1.265625 -0.515625 2.734375 -0.515625q1.34375 0 2.4375 0.359375q1.109375 0.34375 1.9375 1.03125q0.828125 0.6875 1.296875 1.703125l-2.59375 1.171875q-0.484375 -0.953125 -1.296875 -1.328125q-0.8125 -0.390625 -1.765625 -0.390625q-1.0625 0 -1.78125 0.4375q-0.703125 0.4375 -0.703125 1.140625q0 0.71875 0.625 1.140625q0.640625 0.421875 1.5625 0.671875l2.0625 0.515625q2.140625 0.53125 3.203125 1.609375q1.0625 1.078125 1.0625 2.609375q0 1.375 -0.796875 2.40625q-0.78125 1.015625 -2.109375 1.5625q-1.328125 0.546875 -2.953125 0.546875z" fill-rule="nonzero"/><path fill="#f0f7cf" d="m926.7178 306.3934l0 0c0 -8.268158 6.7026367 -14.970825 14.970825 -14.970825l160.89294 0c3.970581 0 7.7784424 1.5772705 10.58606 4.384857c2.807495 2.8075562 4.3847656 6.615448 4.3847656 10.585968l0 85.050476c0 8.268158 -6.7026367 14.970825 -14.970825 14.970825l-160.89294 0c-8.268188 0 -14.970825 -6.702667 -14.970825 -14.970825z" fill-rule="evenodd"/><path stroke="#78909c" stroke-width="2.0" stroke-miterlimit="400.0" stroke-linecap="butt" d="m926.7178 306.3934l0 0c0 -8.268158 6.7026367 -14.970825 14.970825 -14.970825l160.89294 0c3.970581 0 7.7784424 1.5772705 10.58606 4.384857c2.807495 2.8075562 4.3847656 6.615448 4.3847656 10.585968l0 85.050476c0 8.268158 -6.7026367 14.970825 -14.970825 14.970825l-160.89294 0c-8.268188 0 -14.970825 -6.702667 -14.970825 -14.970825z" fill-rule="evenodd"/><path fill="#000000" d="m995.69086 341.79865l7.5625 -20.046875l3.5 0l7.578125 20.046875l-3.375 0l-5.109375 -14.140625l-0.75 -2.296875l-0.171875 0l-0.75 2.296875l-5.09375 14.140625l-3.390625 0zm9.0625 -5.15625l0 -2.859375l4.65625 0l1.0 2.859375l-5.65625 0zm-5.453125 0l1.015625 -2.859375l4.4375 0l0 2.859375l-5.453125 0zm17.331177 11.203125l0 -20.328125l2.828125 0l0 1.9375l0.171875 0q0.390625 -0.625 1.046875 -1.171875q0.65625 -0.546875 1.546875 -0.875q0.90625 -0.34375 2.000061 -0.34375q1.953125 0 3.484375 0.984375q1.546875 0.984375 2.453125 2.6875q0.921875 1.703125 0.921875 3.921875q0 2.21875 -0.921875 3.921875q-0.90625 1.703125 -2.453125 2.6875q-1.53125 0.984375 -3.484375 0.984375q-1.625061 0 -2.828186 -0.734375q-1.203125 -0.734375 -1.765625 -1.625l-0.171875 0l0.171875 1.984375l0 5.96875l-3.0 0zm7.140625 -8.375q1.125061 0 2.109436 -0.578125q1.0 -0.59375 1.59375 -1.6875q0.609375 -1.09375 0.609375 -2.546875q0 -1.484375 -0.609375 -2.5625q-0.59375 -1.078125 -1.59375 -1.65625q-0.984375 -0.59375 -2.109436 -0.59375q-1.125 0 -2.109375 0.59375q-0.96875 0.578125 -1.59375 1.65625q-0.609375 1.078125 -0.609375 2.5625q0 1.484375 0.609375 2.5625q0.625 1.078125 1.59375 1.671875q0.984375 0.578125 2.109375 0.578125zm9.771423 8.375l0 -20.328125l2.828125 0l0 1.9375l0.171875 0q0.390625 -0.625 1.046875 -1.171875q0.65625 -0.546875 1.546875 -0.875q0.90625 -0.34375 2.0 -0.34375q1.953125 0 3.484375 0.984375q1.546875 0.984375 2.453125 2.6875q0.921875 1.703125 0.921875 3.921875q0 2.21875 -0.921875 3.921875q-0.90625 1.703125 -2.453125 2.6875q-1.53125 0.984375 -3.484375 0.984375q-1.625 0 -2.828125 -0.734375q-1.203125 -0.734375 -1.765625 -1.625l-0.171875 0l0.171875 1.984375l0 5.96875l-3.0 0zm7.140625 -8.375q1.125 0 2.109375 -0.578125q1.0 -0.59375 1.59375 -1.6875q0.609375 -1.09375 0.609375 -2.546875q0 -1.484375 -0.609375 -2.5625q-0.59375 -1.078125 -1.59375 -1.65625q-0.984375 -0.59375 -2.109375 -0.59375q-1.125 0 -2.109375 0.59375q-0.96875 0.578125 -1.59375 1.65625q-0.609375 1.078125 -0.609375 2.5625q0 1.484375 0.609375 2.5625q0.625 1.078125 1.59375 1.671875q0.984375 0.578125 2.109375 0.578125z" fill-rule="nonzero"/><path fill="#000000" d="m957.60175 376.25177q-1.9375 0 -3.515625 -0.984375q-1.5625 -0.984375 -2.453125 -2.6875q-0.890625 -1.703125 -0.890625 -3.921875q0 -2.21875 0.890625 -3.921875q0.890625 -1.703125 2.453125 -2.6875q1.578125 -0.984375 3.515625 -0.984375q1.109375 0 2.0 0.34375q0.90625 0.328125 1.5625 0.875q0.65625 0.546875 1.015625 1.171875l0.171875 0l-0.171875 -2.0l0 -5.703125l3.0 0l0 20.046875l-2.828125 0l0 -1.90625l-0.171875 0q-0.359375 0.59375 -1.015625 1.140625q-0.65625 0.546875 -1.5625 0.875q-0.890625 0.34375 -2.0 0.34375zm0.4375 -2.78125q1.125 0 2.109375 -0.578125q1.0 -0.59375 1.59375 -1.671875q0.609375 -1.078125 0.609375 -2.5625q0 -1.484375 -0.609375 -2.5625q-0.59375 -1.078125 -1.59375 -1.65625q-0.984375 -0.59375 -2.109375 -0.59375q-1.109375 0 -2.09375 0.59375q-0.984375 0.578125 -1.609375 1.65625q-0.609375 1.078125 -0.609375 2.5625q0 1.453125 0.609375 2.546875q0.625 1.09375 1.609375 1.6875q0.984375 0.578125 2.09375 0.578125zm17.076843 2.78125q-2.09375 0 -3.75 -0.984375q-1.640625 -0.984375 -2.578125 -2.6875q-0.9375 -1.703125 -0.9375 -3.890625q0 -2.046875 0.890625 -3.78125q0.890625 -1.734375 2.5 -2.78125q1.609375 -1.0625 3.71875 -1.0625q2.203125 0 3.75 0.953125q1.5625 0.953125 2.375 2.609375q0.8125 1.65625 0.8125 3.71875q0 0.3125 -0.015625 0.5625q-0.015625 0.25 -0.03125 0.390625l-12.296875 0l0 -2.265625l9.34375 0q-0.015625 -0.53125 -0.28125 -1.125q-0.25 -0.609375 -0.734375 -1.109375q-0.46875 -0.515625 -1.203125 -0.828125q-0.71875 -0.328125 -1.703125 -0.328125q-1.21875 0 -2.171875 0.640625q-0.953125 0.625 -1.484375 1.75q-0.53125 1.109375 -0.53125 2.59375q0 1.625 0.609375 2.71875q0.625 1.09375 1.625 1.65625q1.015625 0.5625 2.1875 0.5625q1.421875 0 2.390625 -0.65625q0.96875 -0.671875 1.53125 -1.640625l2.484375 1.203125q-0.921875 1.671875 -2.515625 2.734375q-1.59375 1.046875 -3.984375 1.046875zm13.648193 -0.453125l-5.90625 -14.28125l3.359375 0l4.0 10.390625l0.140625 0l4.078125 -10.390625l3.3125 0l-5.96875 14.28125l-3.015625 0zm17.039978 0.453125q-2.09375 0 -3.75 -0.984375q-1.640625 -0.984375 -2.578125 -2.6875q-0.9375 -1.703125 -0.9375 -3.890625q0 -2.046875 0.890625 -3.78125q0.890625 -1.734375 2.5 -2.78125q1.609375 -1.0625 3.71875 -1.0625q2.203125 0 3.75 0.953125q1.5625 0.953125 2.375 2.609375q0.8125 1.65625 0.8125 3.71875q0 0.3125 -0.015625 0.5625q-0.015625 0.25 -0.03125 0.390625l-12.296875 0l0 -2.265625l9.34375 0q-0.015625 -0.53125 -0.28125 -1.125q-0.25 -0.609375 -0.734375 -1.109375q-0.46875 -0.515625 -1.203125 -0.828125q-0.71875 -0.328125 -1.703125 -0.328125q-1.21875 0 -2.171875 0.640625q-0.953125 0.625 -1.484375 1.75q-0.53125 1.109375 -0.53125 2.59375q0 1.625 0.609375 2.71875q0.625 1.09375 1.625 1.65625q1.015625 0.5625 2.1875 0.5625q1.421875 0 2.390625 -0.65625q0.96875 -0.671875 1.53125 -1.640625l2.484375 1.203125q-0.921875 1.671875 -2.515625 2.734375q-1.59375 1.046875 -3.984375 1.046875zm9.615662 -0.453125l0 -20.046875l3.015625 0l0 20.046875l-3.015625 0zm13.155518 0.453125q-2.21875 0 -3.90625 -1.0q-1.671875 -1.015625 -2.625 -2.734375q-0.9375 -1.734375 -0.9375 -3.859375q0 -2.125 0.9375 -3.84375q0.953125 -1.734375 2.625 -2.734375q1.6875 -1.015625 3.90625 -1.015625q2.1875 0 3.859375 1.03125q1.6875 1.015625 2.640625 2.734375q0.953125 1.703125 0.953125 3.828125q0 2.125 -0.953125 3.859375q-0.953125 1.71875 -2.640625 2.734375q-1.671875 1.0 -3.859375 1.0zm0 -2.78125q1.171875 0 2.171875 -0.5625q1.015625 -0.578125 1.640625 -1.65625q0.640625 -1.078125 0.640625 -2.59375q0 -1.515625 -0.640625 -2.59375q-0.625 -1.078125 -1.640625 -1.640625q-1.0 -0.578125 -2.171875 -0.578125q-1.171875 0 -2.203125 0.578125q-1.015625 0.5625 -1.65625 1.640625q-0.625 1.078125 -0.625 2.59375q0 1.515625 0.625 2.59375q0.640625 1.078125 1.671875 1.65625q1.046875 0.5625 2.1875 0.5625zm10.050049 8.375l0 -20.328125l2.828125 0l0 1.9375l0.171875 0q0.390625 -0.625 1.046875 -1.171875q0.65625 -0.546875 1.546875 -0.875q0.90625 -0.34375 2.0 -0.34375q1.953125 0 3.484375 0.984375q1.546875 0.984375 2.453125 2.6875q0.921875 1.703125 0.921875 3.921875q0 2.21875 -0.921875 3.921875q-0.90625 1.703125 -2.453125 2.6875q-1.53125 0.984375 -3.484375 0.984375q-1.625 0 -2.828125 -0.734375q-1.203125 -0.734375 -1.765625 -1.625l-0.171875 0l0.171875 1.984375l0 5.96875l-3.0 0zm7.140625 -8.375q1.125 0 2.109375 -0.578125q1.0 -0.59375 1.59375 -1.6875q0.609375 -1.09375 0.609375 -2.546875q0 -1.484375 -0.609375 -2.5625q-0.59375 -1.078125 -1.59375 -1.65625q-0.984375 -0.59375 -2.109375 -0.59375q-1.125 0 -2.109375 0.59375q-0.96875 0.578125 -1.59375 1.65625q-0.609375 1.078125 -0.609375 2.5625q0 1.484375 0.609375 2.5625q0.625 1.078125 1.59375 1.671875q0.984375 0.578125 2.109375 0.578125zm16.598389 2.78125q-2.09375 0 -3.75 -0.984375q-1.640625 -0.984375 -2.578125 -2.6875q-0.9375 -1.703125 -0.9375 -3.890625q0 -2.046875 0.890625 -3.78125q0.890625 -1.734375 2.5 -2.78125q1.609375 -1.0625 3.71875 -1.0625q2.203125 0 3.75 0.953125q1.5625 0.953125 2.375 2.609375q0.8125 1.65625 0.8125 3.71875q0 0.3125 -0.015625 0.5625q-0.015625 0.25 -0.03125 0.390625l-12.296875 0l0 -2.265625l9.34375 0q-0.015625 -0.53125 -0.28125 -1.125q-0.25 -0.609375 -0.734375 -1.109375q-0.46875 -0.515625 -1.203125 -0.828125q-0.71875 -0.328125 -1.703125 -0.328125q-1.21875 0 -2.171875 0.640625q-0.953125 0.625 -1.484375 1.75q-0.53125 1.109375 -0.53125 2.59375q0 1.625 0.609375 2.71875q0.625 1.09375 1.625 1.65625q1.015625 0.5625 2.1875 0.5625q1.421875 0 2.390625 -0.65625q0.96875 -0.671875 1.53125 -1.640625l2.484375 1.203125q-0.921875 1.671875 -2.515625 2.734375q-1.59375 1.046875 -3.984375 1.046875zm9.584473 -0.453125l0 -14.28125l2.859375 0l0 2.09375l0.15625 0q0.34375 -0.71875 0.96875 -1.28125q0.640625 -0.5625 1.453125 -0.890625q0.828125 -0.34375 1.734375 -0.34375q0.578125 0 0.984375 0.078125q0.40625 0.0625 0.75 0.203125l0 3.140625q-0.53125 -0.234375 -1.078125 -0.359375q-0.546875 -0.140625 -1.140625 -0.140625q-1.0625 0 -1.890625 0.578125q-0.828125 0.5625 -1.3125 1.515625q-0.46875 0.953125 -0.46875 2.125l0 7.5625l-3.015625 0zm15.871094 0.453125q-1.703125 0 -2.96875 -0.515625q-1.25 -0.53125 -2.0625 -1.40625q-0.8125 -0.890625 -1.203125 -1.921875l2.703125 -1.171875q0.515625 1.140625 1.453125 1.75q0.9375 0.59375 2.171875 0.59375q1.109375 0 1.921875 -0.40625q0.8125 -0.40625 0.8125 -1.328125q0 -0.578125 -0.375 -0.953125q-0.375 -0.390625 -1.015625 -0.640625q-0.625 -0.25 -1.4375 -0.4375l-1.703125 -0.40625q-1.015625 -0.25 -1.921875 -0.796875q-0.90625 -0.546875 -1.46875 -1.375q-0.5625 -0.84375 -0.5625 -2.0q0 -1.28125 0.734375 -2.21875q0.75 -0.9375 2.0 -1.4375q1.265625 -0.515625 2.734375 -0.515625q1.34375 0 2.4375 0.359375q1.109375 0.34375 1.9375 1.03125q0.828125 0.6875 1.296875 1.703125l-2.59375 1.171875q-0.484375 -0.953125 -1.296875 -1.328125q-0.8125 -0.390625 -1.765625 -0.390625q-1.0625 0 -1.78125 0.4375q-0.703125 0.4375 -0.703125 1.140625q0 0.71875 0.625 1.140625q0.640625 0.421875 1.5625 0.671875l2.0625 0.515625q2.140625 0.53125 3.203125 1.609375q1.0625 1.078125 1.0625 2.609375q0 1.375 -0.796875 2.40625q-0.78125 1.015625 -2.109375 1.5625q-1.328125 0.546875 -2.953125 0.546875z" fill-rule="nonzero"/><path fill="#f0f7cf" d="m942.7178 322.3934l0 0c0 -8.268158 6.7026367 -14.970825 14.970825 -14.970825l160.89294 0c3.970581 0 7.7784424 1.5772705 10.58606 4.384857c2.807495 2.8075562 4.3847656 6.615448 4.3847656 10.585968l0 85.050476c0 8.268158 -6.7026367 14.970825 -14.970825 14.970825l-160.89294 0c-8.268188 0 -14.970825 -6.702667 -14.970825 -14.970825z" fill-rule="evenodd"/><path stroke="#78909c" stroke-width="2.0" stroke-miterlimit="400.0" stroke-linecap="butt" d="m942.7178 322.3934l0 0c0 -8.268158 6.7026367 -14.970825 14.970825 -14.970825l160.89294 0c3.970581 0 7.7784424 1.5772705 10.58606 4.384857c2.807495 2.8075562 4.3847656 6.615448 4.3847656 10.585968l0 85.050476c0 8.268158 -6.7026367 14.970825 -14.970825 14.970825l-160.89294 0c-8.268188 0 -14.970825 -6.702667 -14.970825 -14.970825z" fill-rule="evenodd"/><path fill="#000000" d="m1011.69086 357.79865l7.5625 -20.046875l3.5 0l7.578064 20.046875l-3.375 0l-5.109314 -14.140625l-0.75 -2.296875l-0.171875 0l-0.75 2.296875l-5.09375 14.140625l-3.390625 0zm9.0625 -5.15625l0 -2.859375l4.656189 0l1.0 2.859375l-5.656189 0zm-5.453125 0l1.015625 -2.859375l4.4375 0l0 2.859375l-5.453125 0zm17.331238 11.203125l0 -20.328125l2.828125 0l0 1.9375l0.171875 0q0.390625 -0.625 1.046875 -1.171875q0.65625 -0.546875 1.546875 -0.875q0.90625 -0.34375 2.0 -0.34375q1.953125 0 3.484375 0.984375q1.546875 0.984375 2.453125 2.6875q0.921875 1.703125 0.921875 3.921875q0 2.21875 -0.921875 3.921875q-0.90625 1.703125 -2.453125 2.6875q-1.53125 0.984375 -3.484375 0.984375q-1.625 0 -2.828125 -0.734375q-1.203125 -0.734375 -1.765625 -1.625l-0.171875 0l0.171875 1.984375l0 5.96875l-3.0 0zm7.140625 -8.375q1.125 0 2.109375 -0.578125q1.0 -0.59375 1.59375 -1.6875q0.609375 -1.09375 0.609375 -2.546875q0 -1.484375 -0.609375 -2.5625q-0.59375 -1.078125 -1.59375 -1.65625q-0.984375 -0.59375 -2.109375 -0.59375q-1.125 0 -2.109375 0.59375q-0.96875 0.578125 -1.59375 1.65625q-0.609375 1.078125 -0.609375 2.5625q0 1.484375 0.609375 2.5625q0.625 1.078125 1.59375 1.671875q0.984375 0.578125 2.109375 0.578125zm9.771362 8.375l0 -20.328125l2.828125 0l0 1.9375l0.171875 0q0.390625 -0.625 1.046875 -1.171875q0.65625 -0.546875 1.546875 -0.875q0.90625 -0.34375 2.0 -0.34375q1.953125 0 3.484375 0.984375q1.546875 0.984375 2.453125 2.6875q0.921875 1.703125 0.921875 3.921875q0 2.21875 -0.921875 3.921875q-0.90625 1.703125 -2.453125 2.6875q-1.53125 0.984375 -3.484375 0.984375q-1.625 0 -2.828125 -0.734375q-1.203125 -0.734375 -1.765625 -1.625l-0.171875 0l0.171875 1.984375l0 5.96875l-3.0 0zm7.140625 -8.375q1.125 0 2.109375 -0.578125q1.0 -0.59375 1.59375 -1.6875q0.609375 -1.09375 0.609375 -2.546875q0 -1.484375 -0.609375 -2.5625q-0.59375 -1.078125 -1.59375 -1.65625q-0.984375 -0.59375 -2.109375 -0.59375q-1.125 0 -2.109375 0.59375q-0.96875 0.578125 -1.59375 1.65625q-0.609375 1.078125 -0.609375 2.5625q0 1.484375 0.609375 2.5625q0.625 1.078125 1.59375 1.671875q0.984375 0.578125 2.109375 0.578125z" fill-rule="nonzero"/><path fill="#000000" d="m973.60175 392.25177q-1.9375 0 -3.515625 -0.984375q-1.5625 -0.984375 -2.453125 -2.6875q-0.890625 -1.703125 -0.890625 -3.921875q0 -2.21875 0.890625 -3.921875q0.890625 -1.703125 2.453125 -2.6875q1.578125 -0.984375 3.515625 -0.984375q1.109375 0 2.0 0.34375q0.90625 0.328125 1.5625 0.875q0.65625 0.546875 1.015625 1.171875l0.171875 0l-0.171875 -2.0l0 -5.703125l3.0 0l0 20.046875l-2.828125 0l0 -1.90625l-0.171875 0q-0.359375 0.59375 -1.015625 1.140625q-0.65625 0.546875 -1.5625 0.875q-0.890625 0.34375 -2.0 0.34375zm0.4375 -2.78125q1.125 0 2.109375 -0.578125q1.0 -0.59375 1.59375 -1.671875q0.609375 -1.078125 0.609375 -2.5625q0 -1.484375 -0.609375 -2.5625q-0.59375 -1.078125 -1.59375 -1.65625q-0.984375 -0.59375 -2.109375 -0.59375q-1.109375 0 -2.09375 0.59375q-0.984375 0.578125 -1.609375 1.65625q-0.609375 1.078125 -0.609375 2.5625q0 1.453125 0.609375 2.546875q0.625 1.09375 1.609375 1.6875q0.984375 0.578125 2.09375 0.578125zm17.076843 2.78125q-2.09375 0 -3.75 -0.984375q-1.640625 -0.984375 -2.578125 -2.6875q-0.9375 -1.703125 -0.9375 -3.890625q0 -2.046875 0.890625 -3.78125q0.890625 -1.734375 2.5 -2.78125q1.609375 -1.0625 3.71875 -1.0625q2.203125 0 3.75 0.953125q1.5625 0.953125 2.375 2.609375q0.8125 1.65625 0.8125 3.71875q0 0.3125 -0.015625 0.5625q-0.015625 0.25 -0.03125 0.390625l-12.296875 0l0 -2.265625l9.34375 0q-0.015625 -0.53125 -0.28125 -1.125q-0.25 -0.609375 -0.734375 -1.109375q-0.46875 -0.515625 -1.203125 -0.828125q-0.71875 -0.328125 -1.703125 -0.328125q-1.21875 0 -2.171875 0.640625q-0.953125 0.625 -1.484375 1.75q-0.53125 1.109375 -0.53125 2.59375q0 1.625 0.609375 2.71875q0.625 1.09375 1.625 1.65625q1.015625 0.5625 2.1875 0.5625q1.421875 0 2.390625 -0.65625q0.96875 -0.671875 1.53125 -1.640625l2.484375 1.203125q-0.921875 1.671875 -2.515625 2.734375q-1.59375 1.046875 -3.984375 1.046875zm13.648193 -0.453125l-5.90625 -14.28125l3.359375 0l4.0 10.390625l0.140625 0l4.078125 -10.390625l3.3125 0l-5.96875 14.28125l-3.015625 0zm17.039978 0.453125q-2.09375 0 -3.75 -0.984375q-1.640625 -0.984375 -2.578125 -2.6875q-0.9375 -1.703125 -0.9375 -3.890625q0 -2.046875 0.890625 -3.78125q0.890625 -1.734375 2.5 -2.78125q1.609375 -1.0625 3.71875 -1.0625q2.203125 0 3.749939 0.953125q1.5625 0.953125 2.375 2.609375q0.8125 1.65625 0.8125 3.71875q0 0.3125 -0.015625 0.5625q-0.015625 0.25 -0.03125 0.390625l-12.296814 0l0 -2.265625l9.343689 0q-0.015625 -0.53125 -0.28125 -1.125q-0.25 -0.609375 -0.734375 -1.109375q-0.46875 -0.515625 -1.203064 -0.828125q-0.71875 -0.328125 -1.703125 -0.328125q-1.21875 0 -2.171875 0.640625q-0.953125 0.625 -1.484375 1.75q-0.53125 1.109375 -0.53125 2.59375q0 1.625 0.609375 2.71875q0.625 1.09375 1.625 1.65625q1.015625 0.5625 2.1875 0.5625q1.421875 0 2.390564 -0.65625q0.96875 -0.671875 1.53125 -1.640625l2.484375 1.203125q-0.921875 1.671875 -2.515625 2.734375q-1.59375 1.046875 -3.984314 1.046875zm9.615662 -0.453125l0 -20.046875l3.015625 0l0 20.046875l-3.015625 0zm13.155518 0.453125q-2.21875 0 -3.90625 -1.0q-1.671875 -1.015625 -2.625 -2.734375q-0.9375 -1.734375 -0.9375 -3.859375q0 -2.125 0.9375 -3.84375q0.953125 -1.734375 2.625 -2.734375q1.6875 -1.015625 3.90625 -1.015625q2.1875 0 3.859375 1.03125q1.6875 1.015625 2.640625 2.734375q0.953125 1.703125 0.953125 3.828125q0 2.125 -0.953125 3.859375q-0.953125 1.71875 -2.640625 2.734375q-1.671875 1.0 -3.859375 1.0zm0 -2.78125q1.171875 0 2.171875 -0.5625q1.015625 -0.578125 1.640625 -1.65625q0.640625 -1.078125 0.640625 -2.59375q0 -1.515625 -0.640625 -2.59375q-0.625 -1.078125 -1.640625 -1.640625q-1.0 -0.578125 -2.171875 -0.578125q-1.171875 0 -2.203125 0.578125q-1.015625 0.5625 -1.65625 1.640625q-0.625 1.078125 -0.625 2.59375q0 1.515625 0.625 2.59375q0.640625 1.078125 1.671875 1.65625q1.046875 0.5625 2.1875 0.5625zm10.050049 8.375l0 -20.328125l2.828125 0l0 1.9375l0.171875 0q0.390625 -0.625 1.046875 -1.171875q0.65625 -0.546875 1.546875 -0.875q0.90625 -0.34375 2.0 -0.34375q1.953125 0 3.484375 0.984375q1.546875 0.984375 2.453125 2.6875q0.921875 1.703125 0.921875 3.921875q0 2.21875 -0.921875 3.921875q-0.90625 1.703125 -2.453125 2.6875q-1.53125 0.984375 -3.484375 0.984375q-1.625 0 -2.828125 -0.734375q-1.203125 -0.734375 -1.765625 -1.625l-0.171875 0l0.171875 1.984375l0 5.96875l-3.0 0zm7.140625 -8.375q1.125 0 2.109375 -0.578125q1.0 -0.59375 1.59375 -1.6875q0.609375 -1.09375 0.609375 -2.546875q0 -1.484375 -0.609375 -2.5625q-0.59375 -1.078125 -1.59375 -1.65625q-0.984375 -0.59375 -2.109375 -0.59375q-1.125 0 -2.109375 0.59375q-0.96875 0.578125 -1.59375 1.65625q-0.609375 1.078125 -0.609375 2.5625q0 1.484375 0.609375 2.5625q0.625 1.078125 1.59375 1.671875q0.984375 0.578125 2.109375 0.578125zm16.598389 2.78125q-2.09375 0 -3.75 -0.984375q-1.640625 -0.984375 -2.578125 -2.6875q-0.9375 -1.703125 -0.9375 -3.890625q0 -2.046875 0.890625 -3.78125q0.890625 -1.734375 2.5 -2.78125q1.609375 -1.0625 3.71875 -1.0625q2.203125 0 3.75 0.953125q1.5625 0.953125 2.375 2.609375q0.8125 1.65625 0.8125 3.71875q0 0.3125 -0.015625 0.5625q-0.015625 0.25 -0.03125 0.390625l-12.296875 0l0 -2.265625l9.34375 0q-0.015625 -0.53125 -0.28125 -1.125q-0.25 -0.609375 -0.734375 -1.109375q-0.46875 -0.515625 -1.203125 -0.828125q-0.71875 -0.328125 -1.703125 -0.328125q-1.21875 0 -2.171875 0.640625q-0.953125 0.625 -1.484375 1.75q-0.53125 1.109375 -0.53125 2.59375q0 1.625 0.609375 2.71875q0.625 1.09375 1.625 1.65625q1.015625 0.5625 2.1875 0.5625q1.421875 0 2.390625 -0.65625q0.96875 -0.671875 1.53125 -1.640625l2.484375 1.203125q-0.921875 1.671875 -2.515625 2.734375q-1.59375 1.046875 -3.984375 1.046875zm9.584473 -0.453125l0 -14.28125l2.859375 0l0 2.09375l0.15625 0q0.34375 -0.71875 0.96875 -1.28125q0.640625 -0.5625 1.453125 -0.890625q0.828125 -0.34375 1.734375 -0.34375q0.578125 0 0.984375 0.078125q0.40625 0.0625 0.75 0.203125l0 3.140625q-0.53125 -0.234375 -1.078125 -0.359375q-0.546875 -0.140625 -1.140625 -0.140625q-1.0625 0 -1.890625 0.578125q-0.828125 0.5625 -1.3125 1.515625q-0.46875 0.953125 -0.46875 2.125l0 7.5625l-3.015625 0zm15.871094 0.453125q-1.703125 0 -2.96875 -0.515625q-1.25 -0.53125 -2.0625 -1.40625q-0.8125 -0.890625 -1.203125 -1.921875l2.703125 -1.171875q0.515625 1.140625 1.453125 1.75q0.9375 0.59375 2.171875 0.59375q1.109375 0 1.921875 -0.40625q0.8125 -0.40625 0.8125 -1.328125q0 -0.578125 -0.375 -0.953125q-0.375 -0.390625 -1.015625 -0.640625q-0.625 -0.25 -1.4375 -0.4375l-1.703125 -0.40625q-1.015625 -0.25 -1.921875 -0.796875q-0.90625 -0.546875 -1.46875 -1.375q-0.5625 -0.84375 -0.5625 -2.0q0 -1.28125 0.734375 -2.21875q0.75 -0.9375 2.0 -1.4375q1.265625 -0.515625 2.734375 -0.515625q1.34375 0 2.4375 0.359375q1.109375 0.34375 1.9375 1.03125q0.828125 0.6875 1.296875 1.703125l-2.59375 1.171875q-0.484375 -0.953125 -1.296875 -1.328125q-0.8125 -0.390625 -1.765625 -0.390625q-1.0625 0 -1.78125 0.4375q-0.703125 0.4375 -0.703125 1.140625q0 0.71875 0.625 1.140625q0.640625 0.421875 1.5625 0.671875l2.0625 0.515625q2.140625 0.53125 3.203125 1.609375q1.0625 1.078125 1.0625 2.609375q0 1.375 -0.796875 2.40625q-0.78125 1.015625 -2.109375 1.5625q-1.328125 0.546875 -2.953125 0.546875z" fill-rule="nonzero"/><path fill="#f0f7cf" d="m958.7178 338.3934l0 0c0 -8.268158 6.7026367 -14.970825 14.970825 -14.970825l160.89294 0c3.970581 0 7.7784424 1.5772705 10.58606 4.384857c2.807495 2.8075562 4.3847656 6.615448 4.3847656 10.585968l0 85.050476c0 8.268158 -6.7026367 14.970825 -14.970825 14.970825l-160.89294 0c-8.268188 0 -14.970825 -6.702667 -14.970825 -14.970825z" fill-rule="evenodd"/><path stroke="#78909c" stroke-width="2.0" stroke-miterlimit="400.0" stroke-linecap="butt" d="m958.7178 338.3934l0 0c0 -8.268158 6.7026367 -14.970825 14.970825 -14.970825l160.89294 0c3.970581 0 7.7784424 1.5772705 10.58606 4.384857c2.807495 2.8075562 4.3847656 6.615448 4.3847656 10.585968l0 85.050476c0 8.268158 -6.7026367 14.970825 -14.970825 14.970825l-160.89294 0c-8.268188 0 -14.970825 -6.702667 -14.970825 -14.970825z" fill-rule="evenodd"/><path fill="#000000" d="m1027.6908 373.79865l7.5625 -20.046875l3.5 0l7.578125 20.046875l-3.375 0l-5.109375 -14.140625l-0.75 -2.296875l-0.171875 0l-0.75 2.296875l-5.09375 14.140625l-3.390625 0zm9.0625 -5.15625l0 -2.859375l4.65625 0l1.0 2.859375l-5.65625 0zm-5.453125 0l1.015625 -2.859375l4.4375 0l0 2.859375l-5.453125 0zm17.331299 11.203125l0 -20.328125l2.828125 0l0 1.9375l0.171875 0q0.390625 -0.625 1.046875 -1.171875q0.65625 -0.546875 1.546875 -0.875q0.90625 -0.34375 2.0 -0.34375q1.953125 0 3.484375 0.984375q1.546875 0.984375 2.453125 2.6875q0.921875 1.703125 0.921875 3.921875q0 2.21875 -0.921875 3.921875q-0.90625 1.703125 -2.453125 2.6875q-1.53125 0.984375 -3.484375 0.984375q-1.625 0 -2.828125 -0.734375q-1.203125 -0.734375 -1.765625 -1.625l-0.171875 0l0.171875 1.984375l0 5.96875l-3.0 0zm7.140625 -8.375q1.125 0 2.109375 -0.578125q1.0 -0.59375 1.59375 -1.6875q0.609375 -1.09375 0.609375 -2.546875q0 -1.484375 -0.609375 -2.5625q-0.59375 -1.078125 -1.59375 -1.65625q-0.984375 -0.59375 -2.109375 -0.59375q-1.125 0 -2.109375 0.59375q-0.96875 0.578125 -1.59375 1.65625q-0.609375 1.078125 -0.609375 2.5625q0 1.484375 0.609375 2.5625q0.625 1.078125 1.59375 1.671875q0.984375 0.578125 2.109375 0.578125zm9.771362 8.375l0 -20.328125l2.828125 0l0 1.9375l0.171875 0q0.390625 -0.625 1.046875 -1.171875q0.65625 -0.546875 1.546875 -0.875q0.90625 -0.34375 2.0 -0.34375q1.953125 0 3.484375 0.984375q1.546875 0.984375 2.453125 2.6875q0.921875 1.703125 0.921875 3.921875q0 2.21875 -0.921875 3.921875q-0.90625 1.703125 -2.453125 2.6875q-1.53125 0.984375 -3.484375 0.984375q-1.625 0 -2.828125 -0.734375q-1.203125 -0.734375 -1.765625 -1.625l-0.171875 0l0.171875 1.984375l0 5.96875l-3.0 0zm7.140625 -8.375q1.125 0 2.109375 -0.578125q1.0 -0.59375 1.59375 -1.6875q0.609375 -1.09375 0.609375 -2.546875q0 -1.484375 -0.609375 -2.5625q-0.59375 -1.078125 -1.59375 -1.65625q-0.984375 -0.59375 -2.109375 -0.59375q-1.125 0 -2.109375 0.59375q-0.96875 0.578125 -1.59375 1.65625q-0.609375 1.078125 -0.609375 2.5625q0 1.484375 0.609375 2.5625q0.625 1.078125 1.59375 1.671875q0.984375 0.578125 2.109375 0.578125z" fill-rule="nonzero"/><path fill="#000000" d="m989.60175 408.25177q-1.9375 0 -3.515625 -0.984375q-1.5625 -0.984375 -2.453125 -2.6875q-0.890625 -1.703125 -0.890625 -3.921875q0 -2.21875 0.890625 -3.921875q0.890625 -1.703125 2.453125 -2.6875q1.578125 -0.984375 3.515625 -0.984375q1.109375 0 2.0 0.34375q0.90625 0.328125 1.5625 0.875q0.65625 0.546875 1.015625 1.171875l0.171875 0l-0.171875 -2.0l0 -5.703125l3.0 0l0 20.046875l-2.828125 0l0 -1.90625l-0.171875 0q-0.359375 0.59375 -1.015625 1.140625q-0.65625 0.546875 -1.5625 0.875q-0.890625 0.34375 -2.0 0.34375zm0.4375 -2.78125q1.125 0 2.109375 -0.578125q1.0 -0.59375 1.59375 -1.671875q0.609375 -1.078125 0.609375 -2.5625q0 -1.484375 -0.609375 -2.5625q-0.59375 -1.078125 -1.59375 -1.65625q-0.984375 -0.59375 -2.109375 -0.59375q-1.109375 0 -2.09375 0.59375q-0.984375 0.578125 -1.609375 1.65625q-0.609375 1.078125 -0.609375 2.5625q0 1.453125 0.609375 2.546875q0.625 1.09375 1.609375 1.6875q0.984375 0.578125 2.09375 0.578125zm17.076843 2.78125q-2.09375 0 -3.75 -0.984375q-1.640625 -0.984375 -2.578125 -2.6875q-0.9375 -1.703125 -0.9375 -3.890625q0 -2.046875 0.890625 -3.78125q0.890625 -1.734375 2.5 -2.78125q1.609375 -1.0625 3.71875 -1.0625q2.203125 0 3.75 0.953125q1.5625 0.953125 2.375 2.609375q0.8125 1.65625 0.8125 3.71875q0 0.3125 -0.015625 0.5625q-0.015625 0.25 -0.03125 0.390625l-12.296875 0l0 -2.265625l9.34375 0q-0.015625 -0.53125 -0.28125 -1.125q-0.25 -0.609375 -0.734375 -1.109375q-0.46875 -0.515625 -1.203125 -0.828125q-0.71875 -0.328125 -1.703125 -0.328125q-1.21875 0 -2.171875 0.640625q-0.953125 0.625 -1.484375 1.75q-0.53125 1.109375 -0.53125 2.59375q0 1.625 0.609375 2.71875q0.625 1.09375 1.625 1.65625q1.015625 0.5625 2.1875 0.5625q1.421875 0 2.390625 -0.65625q0.96875 -0.671875 1.53125 -1.640625l2.484375 1.203125q-0.921875 1.671875 -2.515625 2.734375q-1.59375 1.046875 -3.984375 1.046875zm13.648193 -0.453125l-5.90625 -14.28125l3.359375 0l4.0 10.390625l0.140625 0l4.078125 -10.390625l3.3125 0l-5.96875 14.28125l-3.015625 0zm17.039917 0.453125q-2.09375 0 -3.75 -0.984375q-1.640625 -0.984375 -2.578125 -2.6875q-0.9375 -1.703125 -0.9375 -3.890625q0 -2.046875 0.890625 -3.78125q0.890625 -1.734375 2.5 -2.78125q1.609375 -1.0625 3.71875 -1.0625q2.203125 0 3.75 0.953125q1.5625 0.953125 2.375 2.609375q0.8125 1.65625 0.8125 3.71875q0 0.3125 -0.015625 0.5625q-0.015625 0.25 -0.03125 0.390625l-12.296875 0l0 -2.265625l9.34375 0q-0.015625 -0.53125 -0.28125 -1.125q-0.25 -0.609375 -0.734375 -1.109375q-0.46875 -0.515625 -1.203125 -0.828125q-0.71875 -0.328125 -1.703125 -0.328125q-1.21875 0 -2.171875 0.640625q-0.953125 0.625 -1.484375 1.75q-0.53125 1.109375 -0.53125 2.59375q0 1.625 0.609375 2.71875q0.625 1.09375 1.625 1.65625q1.015625 0.5625 2.1875 0.5625q1.421875 0 2.390625 -0.65625q0.96875 -0.671875 1.53125 -1.640625l2.484375 1.203125q-0.921875 1.671875 -2.515625 2.734375q-1.59375 1.046875 -3.984375 1.046875zm9.615723 -0.453125l0 -20.046875l3.015625 0l0 20.046875l-3.015625 0zm13.155518 0.453125q-2.21875 0 -3.90625 -1.0q-1.671875 -1.015625 -2.625 -2.734375q-0.9375 -1.734375 -0.9375 -3.859375q0 -2.125 0.9375 -3.84375q0.953125 -1.734375 2.625 -2.734375q1.6875 -1.015625 3.90625 -1.015625q2.1875 0 3.859375 1.03125q1.6875 1.015625 2.640625 2.734375q0.953125 1.703125 0.953125 3.828125q0 2.125 -0.953125 3.859375q-0.953125 1.71875 -2.640625 2.734375q-1.671875 1.0 -3.859375 1.0zm0 -2.78125q1.171875 0 2.171875 -0.5625q1.015625 -0.578125 1.640625 -1.65625q0.640625 -1.078125 0.640625 -2.59375q0 -1.515625 -0.640625 -2.59375q-0.625 -1.078125 -1.640625 -1.640625q-1.0 -0.578125 -2.171875 -0.578125q-1.171875 0 -2.203125 0.578125q-1.015625 0.5625 -1.65625 1.640625q-0.625 1.078125 -0.625 2.59375q0 1.515625 0.625 2.59375q0.640625 1.078125 1.671875 1.65625q1.046875 0.5625 2.1875 0.5625zm10.050049 8.375l0 -20.328125l2.828125 0l0 1.9375l0.171875 0q0.390625 -0.625 1.046875 -1.171875q0.65625 -0.546875 1.546875 -0.875q0.90625 -0.34375 2.0 -0.34375q1.953125 0 3.484375 0.984375q1.546875 0.984375 2.453125 2.6875q0.921875 1.703125 0.921875 3.921875q0 2.21875 -0.921875 3.921875q-0.90625 1.703125 -2.453125 2.6875q-1.53125 0.984375 -3.484375 0.984375q-1.625 0 -2.828125 -0.734375q-1.203125 -0.734375 -1.765625 -1.625l-0.171875 0l0.171875 1.984375l0 5.96875l-3.0 0zm7.140625 -8.375q1.125 0 2.109375 -0.578125q1.0 -0.59375 1.59375 -1.6875q0.609375 -1.09375 0.609375 -2.546875q0 -1.484375 -0.609375 -2.5625q-0.59375 -1.078125 -1.59375 -1.65625q-0.984375 -0.59375 -2.109375 -0.59375q-1.125 0 -2.109375 0.59375q-0.96875 0.578125 -1.59375 1.65625q-0.609375 1.078125 -0.609375 2.5625q0 1.484375 0.609375 2.5625q0.625 1.078125 1.59375 1.671875q0.984375 0.578125 2.109375 0.578125zm16.598389 2.78125q-2.09375 0 -3.75 -0.984375q-1.640625 -0.984375 -2.578125 -2.6875q-0.9375 -1.703125 -0.9375 -3.890625q0 -2.046875 0.890625 -3.78125q0.890625 -1.734375 2.5 -2.78125q1.609375 -1.0625 3.71875 -1.0625q2.203125 0 3.75 0.953125q1.5625 0.953125 2.375 2.609375q0.8125 1.65625 0.8125 3.71875q0 0.3125 -0.015625 0.5625q-0.015625 0.25 -0.03125 0.390625l-12.296875 0l0 -2.265625l9.34375 0q-0.015625 -0.53125 -0.28125 -1.125q-0.25 -0.609375 -0.734375 -1.109375q-0.46875 -0.515625 -1.203125 -0.828125q-0.71875 -0.328125 -1.703125 -0.328125q-1.21875 0 -2.171875 0.640625q-0.953125 0.625 -1.484375 1.75q-0.53125 1.109375 -0.53125 2.59375q0 1.625 0.609375 2.71875q0.625 1.09375 1.625 1.65625q1.015625 0.5625 2.1875 0.5625q1.421875 0 2.390625 -0.65625q0.96875 -0.671875 1.53125 -1.640625l2.484375 1.203125q-0.921875 1.671875 -2.515625 2.734375q-1.59375 1.046875 -3.984375 1.046875zm9.584473 -0.453125l0 -14.28125l2.859375 0l0 2.09375l0.15625 0q0.34375 -0.71875 0.96875 -1.28125q0.640625 -0.5625 1.453125 -0.890625q0.828125 -0.34375 1.734375 -0.34375q0.578125 0 0.984375 0.078125q0.40625 0.0625 0.75 0.203125l0 3.140625q-0.53125 -0.234375 -1.078125 -0.359375q-0.546875 -0.140625 -1.140625 -0.140625q-1.0625 0 -1.890625 0.578125q-0.828125 0.5625 -1.3125 1.515625q-0.46875 0.953125 -0.46875 2.125l0 7.5625l-3.015625 0zm15.871094 0.453125q-1.703125 0 -2.96875 -0.515625q-1.25 -0.53125 -2.0625 -1.40625q-0.8125 -0.890625 -1.203125 -1.921875l2.703125 -1.171875q0.515625 1.140625 1.453125 1.75q0.9375 0.59375 2.171875 0.59375q1.109375 0 1.921875 -0.40625q0.8125 -0.40625 0.8125 -1.328125q0 -0.578125 -0.375 -0.953125q-0.375 -0.390625 -1.015625 -0.640625q-0.625 -0.25 -1.4375 -0.4375l-1.703125 -0.40625q-1.015625 -0.25 -1.921875 -0.796875q-0.90625 -0.546875 -1.46875 -1.375q-0.5625 -0.84375 -0.5625 -2.0q0 -1.28125 0.734375 -2.21875q0.75 -0.9375 2.0 -1.4375q1.265625 -0.515625 2.734375 -0.515625q1.34375 0 2.4375 0.359375q1.109375 0.34375 1.9375 1.03125q0.828125 0.6875 1.296875 1.703125l-2.59375 1.171875q-0.484375 -0.953125 -1.296875 -1.328125q-0.8125 -0.390625 -1.765625 -0.390625q-1.0625 0 -1.78125 0.4375q-0.703125 0.4375 -0.703125 1.140625q0 0.71875 0.625 1.140625q0.640625 0.421875 1.5625 0.671875l2.0625 0.515625q2.140625 0.53125 3.203125 1.609375q1.0625 1.078125 1.0625 2.609375q0 1.375 -0.796875 2.40625q-0.78125 1.015625 -2.109375 1.5625q-1.328125 0.546875 -2.953125 0.546875z" fill-rule="nonzero"/></g></svg>