<svg version="1.1" viewBox="0.0 0.0 865.7034120734908 577.1758530183727" fill="none" stroke="none" stroke-linecap="square" stroke-miterlimit="10" xmlns:xlink="http://www.w3.org/1999/xlink" xmlns="http://www.w3.org/2000/svg"><clipPath id="p.0"><path d="m0 0l865.7034 0l0 577.17584l-865.7034 0l0 -577.17584z" clip-rule="nonzero"/></clipPath><g clip-path="url(#p.0)"><path fill="#000000" fill-opacity="0.0" d="m0 0l865.7034 0l0 577.17584l-865.7034 0z" fill-rule="evenodd"/><g filter="url(#shadowFilter-p.1)"><use xlink:href="#p.1" transform=""/></g><defs><filter id="shadowFilter-p.1" filterUnits="userSpaceOnUse"><feGaussianBlur in="SourceAlpha" stdDeviation="5.0" result="blur"/><feComponentTransfer in="blur" color-interpolation-filters="sRGB"><feFuncR type="linear" slope="0" intercept="0.0"/><feFuncG type="linear" slope="0" intercept="0.0"/><feFuncB type="linear" slope="0" intercept="0.0"/><feFuncA type="linear" slope="0.22" intercept="0"/></feComponentTransfer></filter></defs><g id="p.1"><path fill="#f1f3f4" d="m9.009187 96.50179l0 0c0 -15.4338 12.511565 -27.945366 27.945366 -27.945366l791.7943 0c7.411621 0 14.519592 2.9442368 19.760376 8.185013c5.2407837 5.2407684 8.184998 12.348785 8.184998 19.760353l0 440.73917c0 15.433838 -12.511536 27.945374 -27.945374 27.945374l-791.7943 0l0 0c-15.4338 0 -27.945366 -12.511536 -27.945366 -27.945374z" fill-rule="evenodd"/></g><path fill="#ffffff" d="m82.38451 200.81778l0 0c0 -21.747223 17.629616 -39.37683 39.37684 -39.37683l223.703 0c10.44339 0 20.459045 4.1486206 27.843628 11.533203c7.384613 7.384598 11.533234 17.400238 11.533234 27.843628l0 225.84476c0 21.747223 -17.629639 39.37683 -39.37686 39.37683l-223.703 0l0 0c-21.747223 0 -39.37684 -17.629608 -39.37684 -39.37683z" fill-rule="evenodd"/><path stroke="#78909c" stroke-width="2.0" stroke-miterlimit="400.0" stroke-linecap="butt" d="m82.38451 200.81778l0 0c0 -21.747223 17.629616 -39.37683 39.37684 -39.37683l223.703 0c10.44339 0 20.459045 4.1486206 27.843628 11.533203c7.384613 7.384598 11.533234 17.400238 11.533234 27.843628l0 225.84476c0 21.747223 -17.629639 39.37683 -39.37686 39.37683l-223.703 0l0 0c-21.747223 0 -39.37684 -17.629608 -39.37684 -39.37683z" fill-rule="evenodd"/><path fill="#000000" d="m128.68411 324.07327q-1.59375 0 -3.0625 -0.625q-1.453125 -0.640625 -2.5625 -1.875q-1.09375 -1.234375 -1.625 -3.046875l2.90625 -1.171875q0.453125 1.625 1.5625 2.71875q1.125 1.078125 2.8125 1.078125q0.953125 0 1.765625 -0.328125q0.828125 -0.34375 1.328125 -1.0q0.515625 -0.65625 0.515625 -1.609375q0 -0.890625 -0.421875 -1.515625q-0.421875 -0.640625 -1.34375 -1.15625q-0.921875 -0.515625 -2.359375 -1.015625l-1.25 -0.453125q-0.8125 -0.3125 -1.65625 -0.75q-0.84375 -0.453125 -1.5625 -1.109375q-0.703125 -0.65625 -1.125 -1.546875q-0.421875 -0.90625 -0.421875 -2.078125q0 -1.515625 0.796875 -2.75q0.796875 -1.234375 2.203125 -1.96875q1.421875 -0.75 3.296875 -0.75q1.9375 0 3.234375 0.6875q1.3125 0.6875 2.046875 1.640625q0.75 0.953125 1.03125 1.8125l-2.78125 1.1875q-0.171875 -0.59375 -0.609375 -1.15625q-0.421875 -0.5625 -1.140625 -0.9375q-0.71875 -0.375 -1.75 -0.375q-0.890625 0 -1.640625 0.34375q-0.734375 0.328125 -1.1875 0.90625q-0.453125 0.578125 -0.453125 1.328125q0 1.09375 0.890625 1.78125q0.90625 0.6875 2.609375 1.234375l1.296875 0.453125q0.984375 0.34375 1.921875 0.8125q0.953125 0.453125 1.734375 1.171875q0.796875 0.703125 1.25 1.734375q0.46875 1.015625 0.46875 2.421875q0 1.53125 -0.609375 2.671875q-0.59375 1.125 -1.59375 1.84375q-0.984375 0.71875 -2.1875 1.046875q-1.1875 0.34375 -2.328125 0.34375zm10.271942 -0.453125l0 -20.046875l6.421875 0q3.15625 0 5.4375 1.28125q2.28125 1.265625 3.53125 3.53125q1.25 2.265625 1.25 5.203125q0 2.953125 -1.25 5.21875q-1.25 2.265625 -3.53125 3.546875q-2.28125 1.265625 -5.4375 1.265625l-6.421875 0zm3.078125 -2.90625l3.25 0q2.265625 0 3.890625 -0.859375q1.625 -0.859375 2.46875 -2.453125q0.84375 -1.59375 0.84375 -3.8125q0 -2.203125 -0.84375 -3.796875q-0.84375 -1.59375 -2.46875 -2.453125q-1.625 -0.859375 -3.890625 -0.859375l-3.25 0l0 14.234375zm17.081955 2.90625l0 -20.046875l3.078125 0l0 12.453125l0 7.59375l-3.078125 0zm12.125 0l-7.109375 -10.15625l2.09375 -2.390625l8.765625 12.375l0 0.171875l-3.75 0zm-10.546875 -4.109375l0.015625 -4.34375l9.828125 -11.59375l3.8125 0l0 0.171875l-13.65625 15.765625zm32.247482 4.5625q-2.21875 0 -4.125 -0.796875q-1.890625 -0.796875 -3.3125 -2.203125q-1.40625 -1.421875 -2.203125 -3.34375q-0.796875 -1.921875 -0.796875 -4.140625q0 -2.234375 0.796875 -4.140625q0.796875 -1.90625 2.203125 -3.3125q1.421875 -1.421875 3.3125 -2.21875q1.90625 -0.796875 4.125 -0.796875q1.5625 0 2.90625 0.390625q1.34375 0.390625 2.46875 1.125q1.125 0.734375 2.046875 1.765625l-2.15625 2.09375q-0.671875 -0.8125 -1.453125 -1.359375q-0.78125 -0.546875 -1.71875 -0.8125q-0.9375 -0.28125 -2.0625 -0.28125q-2.015625 0 -3.703125 0.9375q-1.671875 0.9375 -2.671875 2.625q-0.984375 1.671875 -0.984375 3.984375q0 2.296875 0.984375 4.0q1.0 1.6875 2.671875 2.625q1.6875 0.9375 3.703125 0.9375q1.234375 0 2.25 -0.328125q1.03125 -0.34375 1.890625 -0.984375q0.875 -0.640625 1.59375 -1.515625l2.21875 2.140625q-0.921875 1.078125 -2.15625 1.890625q-1.234375 0.8125 -2.6875 1.265625q-1.453125 0.453125 -3.140625 0.453125zm14.84697 0q-1.546875 0 -2.734375 -0.609375q-1.1875 -0.625 -1.875 -1.703125q-0.6875 -1.078125 -0.6875 -2.484375q0 -1.53125 0.796875 -2.59375q0.796875 -1.078125 2.140625 -1.625q1.34375 -0.5625 2.96875 -0.5625q0.890625 0 1.65625 0.125q0.78125 0.125 1.34375 0.296875q0.578125 0.15625 0.921875 0.359375l0 -0.75q0 -1.40625 -1.015625 -2.25q-1.0 -0.84375 -2.59375 -0.84375q-1.09375 0 -2.078125 0.5q-0.984375 0.484375 -1.5625 1.328125l-2.078125 -1.59375q0.625 -0.875 1.5 -1.484375q0.890625 -0.625 1.984375 -0.953125q1.109375 -0.34375 2.3125 -0.34375q3.109375 0 4.78125 1.53125q1.6875 1.53125 1.6875 4.265625l0 8.9375l-2.9375 0l0 -1.765625l-0.171875 0q-0.359375 0.5625 -1.0 1.0625q-0.625 0.5 -1.484375 0.828125q-0.84375 0.328125 -1.875 0.328125zm0.53125 -2.46875q1.171875 0 2.078125 -0.5625q0.90625 -0.5625 1.40625 -1.46875q0.515625 -0.90625 0.515625 -1.96875q-0.625 -0.375 -1.5 -0.609375q-0.875 -0.234375 -1.859375 -0.234375q-1.84375 0 -2.640625 0.734375q-0.78125 0.71875 -0.78125 1.8125q0 1.015625 0.75 1.65625q0.765625 0.640625 2.03125 0.640625zm10.303696 2.015625l0 -20.046875l3.015625 0l0 20.046875l-3.015625 0zm6.608017 0l0 -20.046875l3.015625 0l0 20.046875l-3.015625 0zm6.795532 0l0 -14.28125l3.03125 0l0 14.28125l-3.03125 0zm1.515625 -16.375q-0.84375 0 -1.453125 -0.59375q-0.59375 -0.609375 -0.59375 -1.453125q0 -0.875 0.59375 -1.4375q0.609375 -0.578125 1.453125 -0.578125q0.875 0 1.453125 0.578125q0.59375 0.5625 0.59375 1.4375q0 0.84375 -0.59375 1.453125q-0.578125 0.59375 -1.453125 0.59375zm5.2656555 16.375l0 -14.28125l2.859375 0l0 1.96875l0.15625 0q0.625 -1.046875 1.84375 -1.734375q1.21875 -0.6875 2.671875 -0.6875q2.625 0 3.9375 1.5625q1.328125 1.546875 1.328125 4.15625l0 9.015625l-3.0 0l0 -8.625q0 -1.734375 -0.875 -2.53125q-0.859375 -0.796875 -2.265625 -0.796875q-1.078125 0 -1.890625 0.609375q-0.8125 0.59375 -1.28125 1.578125q-0.46875 0.96875 -0.46875 2.09375l0 7.671875l-3.015625 0zm22.537582 6.5q-1.875 0 -3.234375 -0.609375q-1.359375 -0.59375 -2.2031403 -1.53125q-0.828125 -0.9375 -1.203125 -1.921875l2.8125153 -1.171875q0.4375 1.109375 1.421875 1.828125q1.0 0.71875 2.40625 0.71875q1.984375 0 3.109375 -1.1875q1.125 -1.171875 1.125 -3.328125l0 -1.375l-0.171875 0q-0.671875 0.984375 -1.859375 1.609375q-1.171875 0.609375 -2.703125 0.609375q-1.828125 0 -3.359375 -0.921875q-1.5156403 -0.921875 -2.4218903 -2.59375q-0.90625 -1.671875 -0.90625 -3.90625q0 -2.265625 0.90625 -3.921875q0.90625 -1.671875 2.4218903 -2.59375q1.53125 -0.9375 3.359375 -0.9375q1.53125 0 2.703125 0.609375q1.1875 0.59375 1.859375 1.640625l0.171875 0l0 -1.796875l2.875 0l0 13.53125q0 2.3125 -0.90625 3.9375q-0.90625 1.625 -2.515625 2.46875q-1.59375 0.84375 -3.6875 0.84375zm0.03125 -9.109375q1.125 0 2.078125 -0.546875q0.96875 -0.546875 1.546875 -1.59375q0.578125 -1.046875 0.578125 -2.53125q0 -1.5625 -0.578125 -2.59375q-0.578125 -1.046875 -1.546875 -1.578125q-0.953125 -0.53125 -2.078125 -0.53125q-1.125 0 -2.09375 0.53125q-0.953125 0.53125 -1.546875 1.59375q-0.59375 1.046875 -0.59375 2.578125q0 1.515625 0.59375 2.5625q0.59375 1.046875 1.546875 1.578125q0.96875 0.53125 2.09375 0.53125zm26.512878 3.0625q-2.21875 0 -4.125 -0.796875q-1.890625 -0.796875 -3.3125 -2.203125q-1.40625 -1.421875 -2.203125 -3.34375q-0.796875 -1.921875 -0.796875 -4.140625q0 -2.234375 0.796875 -4.140625q0.796875 -1.90625 2.203125 -3.3125q1.421875 -1.421875 3.3125 -2.21875q1.90625 -0.796875 4.125 -0.796875q1.5625 0 2.90625 0.390625q1.34375 0.390625 2.46875 1.125q1.125 0.734375 2.046875 1.765625l-2.15625 2.09375q-0.671875 -0.8125 -1.453125 -1.359375q-0.78125 -0.546875 -1.71875 -0.8125q-0.9375 -0.28125 -2.0625 -0.28125q-2.015625 0 -3.703125 0.9375q-1.671875 0.9375 -2.671875 2.625q-0.984375 1.671875 -0.984375 3.984375q0 2.296875 0.984375 4.0q1.0 1.6875 2.671875 2.625q1.6875 0.9375 3.703125 0.9375q1.234375 0 2.25 -0.328125q1.03125 -0.34375 1.890625 -0.984375q0.875 -0.640625 1.59375 -1.515625l2.21875 2.140625q-0.921875 1.078125 -2.15625 1.890625q-1.234375 0.8125 -2.6875 1.265625q-1.453125 0.453125 -3.140625 0.453125zm17.08133 0q-2.21875 0 -3.90625 -1.0q-1.671875 -1.015625 -2.625 -2.734375q-0.9375 -1.734375 -0.9375 -3.859375q0 -2.125 0.9375 -3.84375q0.953125 -1.734375 2.625 -2.734375q1.6875 -1.015625 3.90625 -1.015625q2.1875 0 3.859375 1.03125q1.6875 1.015625 2.640625 2.734375q0.953125 1.703125 0.953125 3.828125q0 2.125 -0.953125 3.859375q-0.953125 1.71875 -2.640625 2.734375q-1.671875 1.0 -3.859375 1.0zm0 -2.78125q1.171875 0 2.171875 -0.5625q1.015625 -0.578125 1.640625 -1.65625q0.640625 -1.078125 0.640625 -2.59375q0 -1.515625 -0.640625 -2.59375q-0.625 -1.078125 -1.640625 -1.640625q-1.0 -0.578125 -2.171875 -0.578125q-1.171875 0 -2.203125 0.578125q-1.015625 0.5625 -1.65625 1.640625q-0.625 1.078125 -0.625 2.59375q0 1.515625 0.625 2.59375q0.640625 1.078125 1.671875 1.65625q1.046875 0.5625 2.1875 0.5625zm16.330688 2.78125q-1.9375 0 -3.515625 -0.984375q-1.5625 -0.984375 -2.453125 -2.6875q-0.890625 -1.703125 -0.890625 -3.921875q0 -2.21875 0.890625 -3.921875q0.890625 -1.703125 2.453125 -2.6875q1.578125 -0.984375 3.515625 -0.984375q1.109375 0 2.0 0.34375q0.90625 0.328125 1.5625 0.875q0.65625 0.546875 1.015625 1.171875l0.171875 0l-0.171875 -2.0l0 -5.703125l3.0 0l0 20.046875l-2.828125 0l0 -1.90625l-0.171875 0q-0.359375 0.59375 -1.015625 1.140625q-0.65625 0.546875 -1.5625 0.875q-0.890625 0.34375 -2.0 0.34375zm0.4375 -2.78125q1.125 0 2.109375 -0.578125q1.0 -0.59375 1.59375 -1.671875q0.609375 -1.078125 0.609375 -2.5625q0 -1.484375 -0.609375 -2.5625q-0.59375 -1.078125 -1.59375 -1.65625q-0.984375 -0.59375 -2.109375 -0.59375q-1.109375 0 -2.09375 0.59375q-0.984375 0.578125 -1.609375 1.65625q-0.609375 1.078125 -0.609375 2.5625q0 1.453125 0.609375 2.546875q0.625 1.09375 1.609375 1.6875q0.984375 0.578125 2.09375 0.578125zm17.076843 2.78125q-2.09375 0 -3.75 -0.984375q-1.640625 -0.984375 -2.578125 -2.6875q-0.9375 -1.703125 -0.9375 -3.890625q0 -2.046875 0.890625 -3.78125q0.890625 -1.734375 2.5 -2.78125q1.609375 -1.0625 3.71875 -1.0625q2.203125 0 3.75 0.953125q1.5625 0.953125 2.375 2.609375q0.8125 1.65625 0.8125 3.71875q0 0.3125 -0.015625 0.5625q-0.015625 0.25 -0.03125 0.390625l-12.296875 0l0 -2.265625l9.34375 0q-0.015625 -0.53125 -0.28125 -1.125q-0.25 -0.609375 -0.734375 -1.109375q-0.46875 -0.515625 -1.203125 -0.828125q-0.71875 -0.328125 -1.703125 -0.328125q-1.21875 0 -2.171875 0.640625q-0.953125 0.625 -1.484375 1.75q-0.53125 1.109375 -0.53125 2.59375q0 1.625 0.609375 2.71875q0.625 1.09375 1.625 1.65625q1.015625 0.5625 2.1875 0.5625q1.421875 0 2.390625 -0.65625q0.96875 -0.671875 1.53125 -1.640625l2.484375 1.203125q-0.921875 1.671875 -2.515625 2.734375q-1.59375 1.046875 -3.984375 1.046875z" fill-rule="nonzero"/><path fill="#000000" fill-opacity="0.0" d="m591.1482 239.93307l-103.15372 0l0 73.79526l-103.14548 0" fill-rule="evenodd"/><path stroke="#4285f4" stroke-width="4.0" stroke-linejoin="round" stroke-linecap="butt" d="m567.1482 239.93307l-79.15372 0l0 73.79526l-103.14548 0" fill-rule="evenodd"/><path fill="#4285f4" stroke="#4285f4" stroke-width="4.0" stroke-linecap="butt" d="m567.1482 246.54l18.152405 -6.6069183l-18.152405 -6.6069336z" fill-rule="evenodd"/><path fill="#000000" fill-opacity="0.0" d="m275.37152 11.989694l314.96063 0l0 56.566933l-314.96063 0z" fill-rule="evenodd"/><path fill="#000000" d="m343.8959 50.42969l8.28125 -21.953125l3.828125 0l8.3125 21.953125l-3.703125 0l-5.578125 -15.484375l-0.828125 -2.515625l-0.1875 0l-0.828125 2.515625l-5.578125 15.484375l-3.71875 0zm9.9375 -5.640625l0 -3.125l5.09375 0l1.09375 3.125l-6.1875 0zm-5.96875 0l1.09375 -3.125l4.875 0l0 3.125l-5.96875 0zm18.974518 12.265625l0 -22.265625l3.09375 0l0 2.125l0.1875 0q0.421875 -0.671875 1.140625 -1.265625q0.71875 -0.609375 1.703125 -0.96875q0.984375 -0.375 2.171875 -0.375q2.15625 0 3.84375 1.078125q1.6875 1.0625 2.671875 2.9375q1.0 1.875 1.0 4.296875q0 2.421875 -1.0 4.296875q-0.984375 1.859375 -2.671875 2.9375q-1.6875 1.0625 -3.84375 1.0625q-1.765625 0 -3.09375 -0.796875q-1.3125 -0.796875 -1.921875 -1.765625l-0.1875 0l0.1875 2.171875l0 6.53125l-3.28125 0zm7.8125 -9.171875q1.21875 0 2.3125 -0.640625q1.09375 -0.640625 1.75 -1.828125q0.65625 -1.203125 0.65625 -2.796875q0 -1.625 -0.65625 -2.796875q-0.65625 -1.1875 -1.75 -1.828125q-1.09375 -0.65625 -2.3125 -0.65625q-1.234375 0 -2.3125 0.65625q-1.0625 0.640625 -1.734375 1.828125q-0.671875 1.171875 -0.671875 2.796875q0 1.625 0.671875 2.8125q0.671875 1.171875 1.734375 1.8125q1.078125 0.640625 2.3125 0.640625zm10.703827 9.171875l0 -22.265625l3.09375 0l0 2.125l0.1875 0q0.421875 -0.671875 1.140625 -1.265625q0.71875 -0.609375 1.703125 -0.96875q0.984375 -0.375 2.171875 -0.375q2.15625 0 3.84375 1.078125q1.6875 1.0625 2.671875 2.9375q1.0 1.875 1.0 4.296875q0 2.421875 -1.0 4.296875q-0.984375 1.859375 -2.671875 2.9375q-1.6875 1.0625 -3.84375 1.0625q-1.765625 0 -3.09375 -0.796875q-1.3125 -0.796875 -1.921875 -1.765625l-0.1875 0l0.1875 2.171875l0 6.53125l-3.28125 0zm7.8125 -9.171875q1.21875 0 2.3125 -0.640625q1.09375 -0.640625 1.75 -1.828125q0.65625 -1.203125 0.65625 -2.796875q0 -1.625 -0.65625 -2.796875q-0.65625 -1.1875 -1.75 -1.828125q-1.09375 -0.65625 -2.3125 -0.65625q-1.234375 0 -2.3125 0.65625q-1.0625 0.640625 -1.734375 1.828125q-0.671875 1.171875 -0.671875 2.796875q0 1.625 0.671875 2.8125q0.671875 1.171875 1.734375 1.8125q1.078125 0.640625 2.3125 0.640625zm18.731567 2.546875l0 -21.953125l7.546875 0q1.984375 0 3.609375 0.84375q1.625 0.84375 2.59375 2.359375q0.96875 1.515625 0.96875 3.515625q0 1.953125 -0.96875 3.5q-0.96875 1.53125 -2.59375 2.375q-1.625 0.84375 -3.609375 0.84375l-5.703125 0l0 -3.1875l5.78125 0q1.203125 0 2.03125 -0.5q0.828125 -0.515625 1.265625 -1.328125q0.453125 -0.8125 0.453125 -1.703125q0 -0.890625 -0.453125 -1.6875q-0.4375 -0.796875 -1.265625 -1.3125q-0.828125 -0.53125 -2.03125 -0.53125l-4.25 0l0 18.765625l-3.375 0zm17.632324 0l0 -15.640625l3.125 0l0 2.3125l0.1875 0q0.359375 -0.796875 1.046875 -1.40625q0.6875 -0.625 1.59375 -0.984375q0.90625 -0.375 1.890625 -0.375q0.640625 0 1.078125 0.078125q0.453125 0.078125 0.828125 0.234375l0 3.421875q-0.59375 -0.234375 -1.1875 -0.390625q-0.59375 -0.15625 -1.234375 -0.15625q-1.171875 0 -2.078125 0.625q-0.90625 0.625 -1.421875 1.671875q-0.515625 1.046875 -0.515625 2.328125l0 8.28125l-3.3125 0zm18.71695 0.484375q-2.421875 0 -4.265625 -1.09375q-1.828125 -1.109375 -2.875 -2.984375q-1.03125 -1.890625 -1.03125 -4.21875q0 -2.328125 1.03125 -4.21875q1.046875 -1.890625 2.875 -2.984375q1.84375 -1.109375 4.265625 -1.109375q2.40625 0 4.234375 1.125q1.84375 1.109375 2.875 2.984375q1.046875 1.875 1.046875 4.203125q0 2.328125 -1.046875 4.21875q-1.03125 1.875 -2.875 2.984375q-1.828125 1.09375 -4.234375 1.09375zm0 -3.03125q1.296875 0 2.390625 -0.625q1.109375 -0.625 1.796875 -1.796875q0.6875 -1.1875 0.6875 -2.84375q0 -1.65625 -0.6875 -2.828125q-0.6875 -1.1875 -1.796875 -1.8125q-1.09375 -0.640625 -2.390625 -0.640625q-1.28125 0 -2.40625 0.640625q-1.109375 0.625 -1.796875 1.8125q-0.6875 1.171875 -0.6875 2.828125q0 1.65625 0.6875 2.84375q0.6875 1.171875 1.8125 1.796875q1.140625 0.625 2.390625 0.625zm18.437714 3.03125q-2.359375 0 -4.1875 -1.0625q-1.828125 -1.078125 -2.859375 -2.953125q-1.015625 -1.890625 -1.015625 -4.28125q0 -2.390625 1.015625 -4.265625q1.03125 -1.875 2.859375 -2.953125q1.828125 -1.09375 4.1875 -1.09375q2.59375 0 4.390625 1.171875q1.796875 1.15625 2.5625 3.15625l-3.0 1.21875q-0.5625 -1.25 -1.59375 -1.875q-1.015625 -0.640625 -2.421875 -0.640625q-1.296875 0 -2.375 0.671875q-1.0625 0.65625 -1.703125 1.828125q-0.640625 1.15625 -0.640625 2.78125q0 1.59375 0.640625 2.796875q0.640625 1.1875 1.703125 1.828125q1.078125 0.640625 2.375 0.640625q1.5 0 2.53125 -0.671875q1.046875 -0.671875 1.640625 -1.90625l2.9375 1.296875q-0.859375 1.859375 -2.65625 3.09375q-1.796875 1.21875 -4.390625 1.21875zm16.889801 0q-2.296875 0 -4.109375 -1.0625q-1.8125 -1.078125 -2.84375 -2.9375q-1.015625 -1.875 -1.015625 -4.265625q0 -2.25 0.96875 -4.140625q0.984375 -1.90625 2.75 -3.046875q1.765625 -1.15625 4.0625 -1.15625q2.421875 0 4.125 1.046875q1.703125 1.03125 2.59375 2.84375q0.890625 1.8125 0.890625 4.078125q0 0.34375 -0.015625 0.625q-0.015625 0.265625 -0.046875 0.421875l-13.46875 0l0 -2.484375l10.25 0q-0.03125 -0.578125 -0.3125 -1.234375q-0.28125 -0.671875 -0.796875 -1.21875q-0.515625 -0.546875 -1.3125 -0.90625q-0.796875 -0.359375 -1.875 -0.359375q-1.34375 0 -2.390625 0.703125q-1.046875 0.6875 -1.625 1.921875q-0.578125 1.21875 -0.578125 2.84375q0 1.78125 0.671875 2.984375q0.671875 1.1875 1.765625 1.796875q1.109375 0.609375 2.40625 0.609375q1.5625 0 2.609375 -0.71875q1.0625 -0.71875 1.671875 -1.796875l2.734375 1.328125q-1.015625 1.828125 -2.765625 2.984375q-1.734375 1.140625 -4.34375 1.140625zm16.343231 0q-1.875 0 -3.265625 -0.5625q-1.375 -0.5625 -2.265625 -1.53125q-0.890625 -0.96875 -1.3125 -2.09375l2.96875 -1.296875q0.5625 1.265625 1.578125 1.921875q1.03125 0.65625 2.375 0.65625q1.234375 0 2.125 -0.4375q0.890625 -0.453125 0.890625 -1.46875q0 -0.640625 -0.421875 -1.046875q-0.40625 -0.421875 -1.109375 -0.6875q-0.6875 -0.28125 -1.5625 -0.5l-1.875 -0.421875q-1.109375 -0.28125 -2.109375 -0.875q-0.984375 -0.609375 -1.609375 -1.515625q-0.609375 -0.921875 -0.609375 -2.1875q0 -1.40625 0.8125 -2.421875q0.8125 -1.03125 2.1875 -1.578125q1.390625 -0.5625 2.984375 -0.5625q1.46875 0 2.671875 0.390625q1.21875 0.375 2.125 1.125q0.90625 0.75 1.421875 1.859375l-2.84375 1.28125q-0.53125 -1.03125 -1.421875 -1.4375q-0.890625 -0.421875 -1.921875 -0.421875q-1.171875 0 -1.953125 0.46875q-0.78125 0.46875 -0.78125 1.234375q0 0.796875 0.6875 1.265625q0.6875 0.453125 1.703125 0.734375l2.265625 0.546875q2.328125 0.59375 3.5 1.78125q1.171875 1.171875 1.171875 2.859375q0 1.5 -0.859375 2.625q-0.859375 1.109375 -2.328125 1.703125q-1.453125 0.59375 -3.21875 0.59375zm14.990936 0q-1.875 0 -3.2655945 -0.5625q-1.375 -0.5625 -2.265625 -1.53125q-0.890625 -0.96875 -1.3125 -2.09375l2.96875 -1.296875q0.5625 1.265625 1.5780945 1.921875q1.03125 0.65625 2.375 0.65625q1.234375 0 2.125 -0.4375q0.890625 -0.453125 0.890625 -1.46875q0 -0.640625 -0.421875 -1.046875q-0.40625 -0.421875 -1.109375 -0.6875q-0.6875 -0.28125 -1.5625 -0.5l-1.875 -0.421875q-1.1093445 -0.28125 -2.1093445 -0.875q-0.984375 -0.609375 -1.609375 -1.515625q-0.609375 -0.921875 -0.609375 -2.1875q0 -1.40625 0.8125 -2.421875q0.8125 -1.03125 2.1875 -1.578125q1.3905945 -0.5625 2.9843445 -0.5625q1.46875 0 2.671875 0.390625q1.21875 0.375 2.125 1.125q0.90625 0.75 1.421875 1.859375l-2.84375 1.28125q-0.53125 -1.03125 -1.421875 -1.4375q-0.890625 -0.421875 -1.921875 -0.421875q-1.171875 0 -1.953125 0.46875q-0.7812195 0.46875 -0.7812195 1.234375q0 0.796875 0.6874695 1.265625q0.6875 0.453125 1.703125 0.734375l2.265625 0.546875q2.328125 0.59375 3.5 1.78125q1.171875 1.171875 1.171875 2.859375q0 1.5 -0.859375 2.625q-0.859375 1.109375 -2.328125 1.703125q-1.453125 0.59375 -3.21875 0.59375z" fill-rule="nonzero"/><path fill="#ffca28" d="m591.1482 197.40784l0 0c0 -8.268158 6.7026978 -14.970825 14.970825 -14.970825l160.893 0c3.97052 0 7.7783813 1.5772705 10.585999 4.384842c2.8075562 2.8075867 4.3848267 6.6154633 4.3848267 10.585983l0 85.050476c0 8.268158 -6.7026367 14.970825 -14.970825 14.970825l-160.893 0c-8.268127 0 -14.970825 -6.702667 -14.970825 -14.970825z" fill-rule="evenodd"/><path stroke="#5f6368" stroke-width="2.0" stroke-miterlimit="400.0" stroke-linecap="butt" d="m591.1482 197.40784l0 0c0 -8.268158 6.7026978 -14.970825 14.970825 -14.970825l160.893 0c3.97052 0 7.7783813 1.5772705 10.585999 4.384842c2.8075562 2.8075867 4.3848267 6.6154633 4.3848267 10.585983l0 85.050476c0 8.268158 -6.7026367 14.970825 -14.970825 14.970825l-160.893 0c-8.268127 0 -14.970825 -6.702667 -14.970825 -14.970825z" fill-rule="evenodd"/><path fill="#000000" d="m654.73114 250.26619q-1.59375 0 -3.0625 -0.625q-1.453125 -0.640625 -2.5625 -1.875q-1.09375 -1.234375 -1.625 -3.046875l2.90625 -1.171875q0.453125 1.625 1.5625 2.71875q1.125 1.078125 2.8125 1.078125q0.953125 0 1.765625 -0.328125q0.828125 -0.34375 1.328125 -1.0q0.515625 -0.65625 0.515625 -1.609375q0 -0.890625 -0.421875 -1.515625q-0.421875 -0.640625 -1.34375 -1.15625q-0.921875 -0.515625 -2.359375 -1.015625l-1.25 -0.453125q-0.8125 -0.3125 -1.65625 -0.75q-0.84375 -0.453125 -1.5625 -1.109375q-0.703125 -0.65625 -1.125 -1.546875q-0.421875 -0.90625 -0.421875 -2.078125q0 -1.515625 0.796875 -2.75q0.796875 -1.234375 2.203125 -1.96875q1.421875 -0.75 3.296875 -0.75q1.9375 0 3.234375 0.6875q1.3125 0.6875 2.046875 1.640625q0.75 0.953125 1.03125 1.8125l-2.78125 1.1875q-0.171875 -0.59375 -0.609375 -1.15625q-0.421875 -0.5625 -1.140625 -0.9375q-0.71875 -0.375 -1.75 -0.375q-0.890625 0 -1.640625 0.34375q-0.734375 0.328125 -1.1875 0.90625q-0.453125 0.578125 -0.453125 1.328125q0 1.09375 0.890625 1.78125q0.90625 0.6875 2.609375 1.234375l1.296875 0.453125q0.984375 0.34375 1.921875 0.8125q0.953125 0.453125 1.734375 1.171875q0.796875 0.703125 1.25 1.734375q0.46875 1.015625 0.46875 2.421875q0 1.53125 -0.609375 2.671875q-0.59375 1.125 -1.59375 1.84375q-0.984375 0.71875 -2.1875 1.046875q-1.1875 0.34375 -2.328125 0.34375zm10.271912 -0.453125l0 -20.046875l6.421875 0q3.15625 0 5.4375 1.28125q2.28125 1.265625 3.53125 3.53125q1.25 2.265625 1.25 5.203125q0 2.953125 -1.25 5.21875q-1.25 2.265625 -3.53125 3.546875q-2.28125 1.265625 -5.4375 1.265625l-6.421875 0zm3.078125 -2.90625l3.25 0q2.265625 0 3.890625 -0.859375q1.625 -0.859375 2.46875 -2.453125q0.84375 -1.59375 0.84375 -3.8125q0 -2.203125 -0.84375 -3.796875q-0.84375 -1.59375 -2.46875 -2.453125q-1.625 -0.859375 -3.890625 -0.859375l-3.25 0l0 14.234375zm17.08197 2.90625l0 -20.046875l3.078125 0l0 12.453125l0 7.59375l-3.078125 0zm12.125 0l-7.109375 -10.15625l2.09375 -2.390625l8.765625 12.375l0 0.171875l-3.75 0zm-10.546875 -4.109375l0.015625 -4.34375l9.828125 -11.59375l3.8125 0l0 0.171875l-13.65625 15.765625zm20.686218 4.109375l7.5625 -20.046875l3.5 0l7.578125 20.046875l-3.375 0l-5.109375 -14.140625l-0.75 -2.296875l-0.171875 0l-0.75 2.296875l-5.09375 14.140625l-3.390625 0zm9.0625 -5.15625l0 -2.859375l4.65625 0l1.0 2.859375l-5.65625 0zm-5.453125 0l1.015625 -2.859375l4.4375 0l0 2.859375l-5.453125 0z" fill-rule="nonzero"/><path fill="#f0f7cf" d="m591.1482 354.11255l0 0c0 -8.268158 6.7026978 -14.970825 14.970825 -14.970825l160.893 0c3.97052 0 7.7783813 1.577301 10.585999 4.384857c2.8075562 2.8075867 4.3848267 6.6154785 4.3848267 10.585968l0 85.050476c0 8.268158 -6.7026367 14.970825 -14.970825 14.970825l-160.893 0c-8.268127 0 -14.970825 -6.702667 -14.970825 -14.970825z" fill-rule="evenodd"/><path stroke="#78909c" stroke-width="2.0" stroke-miterlimit="400.0" stroke-linecap="butt" d="m591.1482 354.11255l0 0c0 -8.268158 6.7026978 -14.970825 14.970825 -14.970825l160.893 0c3.97052 0 7.7783813 1.577301 10.585999 4.384857c2.8075562 2.8075867 4.3848267 6.6154785 4.3848267 10.585968l0 85.050476c0 8.268158 -6.7026367 14.970825 -14.970825 14.970825l-160.893 0c-8.268127 0 -14.970825 -6.702667 -14.970825 -14.970825z" fill-rule="evenodd"/><path fill="#000000" d="m655.29114 406.97092q-1.59375 0 -3.0625 -0.625q-1.453125 -0.640625 -2.5625 -1.875q-1.09375 -1.234375 -1.625 -3.046875l2.90625 -1.171875q0.453125 1.625 1.5625 2.71875q1.125 1.078125 2.8125 1.078125q0.953125 0 1.765625 -0.328125q0.828125 -0.34375 1.328125 -1.0q0.515625 -0.65625 0.515625 -1.609375q0 -0.890625 -0.421875 -1.515625q-0.421875 -0.640625 -1.34375 -1.15625q-0.921875 -0.515625 -2.359375 -1.015625l-1.25 -0.453125q-0.8125 -0.3125 -1.65625 -0.75q-0.84375 -0.453125 -1.5625 -1.109375q-0.703125 -0.65625 -1.125 -1.546875q-0.421875 -0.90625 -0.421875 -2.078125q0 -1.515625 0.796875 -2.75q0.796875 -1.234375 2.203125 -1.96875q1.421875 -0.75 3.296875 -0.75q1.9375 0 3.234375 0.6875q1.3125 0.6875 2.046875 1.640625q0.75 0.953125 1.03125 1.8125l-2.78125 1.1875q-0.171875 -0.59375 -0.609375 -1.15625q-0.421875 -0.5625 -1.140625 -0.9375q-0.71875 -0.375 -1.75 -0.375q-0.890625 0 -1.640625 0.34375q-0.734375 0.328125 -1.1875 0.90625q-0.453125 0.578125 -0.453125 1.328125q0 1.09375 0.890625 1.78125q0.90625 0.6875 2.609375 1.234375l1.296875 0.453125q0.984375 0.34375 1.921875 0.8125q0.953125 0.453125 1.734375 1.171875q0.796875 0.703125 1.25 1.734375q0.46875 1.015625 0.46875 2.421875q0 1.53125 -0.609375 2.671875q-0.59375 1.125 -1.59375 1.84375q-0.984375 0.71875 -2.1875 1.046875q-1.1875 0.34375 -2.328125 0.34375zm10.271912 -0.453125l0 -20.046875l6.421875 0q3.15625 0 5.4375 1.28125q2.28125 1.265625 3.53125 3.53125q1.25 2.265625 1.25 5.203125q0 2.953125 -1.25 5.21875q-1.25 2.265625 -3.53125 3.546875q-2.28125 1.265625 -5.4375 1.265625l-6.421875 0zm3.078125 -2.90625l3.25 0q2.265625 0 3.890625 -0.859375q1.625 -0.859375 2.46875 -2.453125q0.84375 -1.59375 0.84375 -3.8125q0 -2.203125 -0.84375 -3.796875q-0.84375 -1.59375 -2.46875 -2.453125q-1.625 -0.859375 -3.890625 -0.859375l-3.25 0l0 14.234375zm17.08197 2.90625l0 -20.046875l3.078125 0l0 12.453125l0 7.59375l-3.078125 0zm12.125 0l-7.109375 -10.15625l2.09375 -2.390625l8.765625 12.375l0 0.171875l-3.75 0zm-10.546875 -4.109375l0.015625 -4.34375l9.828125 -11.59375l3.8125 0l0 0.171875l-13.65625 15.765625zm23.369995 4.109375l0 -20.046875l7.5 0q1.65625 0 3.0 0.703125q1.34375 0.703125 2.140625 1.90625q0.796875 1.203125 0.796875 2.703125q0 1.546875 -0.75 2.640625q-0.75 1.09375 -1.96875 1.65625l0 0.140625q1.515625 0.5 2.46875 1.734375q0.953125 1.21875 0.953125 2.9375q0 1.671875 -0.859375 2.9375q-0.84375 1.265625 -2.296875 1.984375q-1.4375 0.703125 -3.140625 0.703125l-7.84375 0zm1.6875 -8.875l0 -2.75l5.671875 0q0.984375 0 1.671875 -0.40625q0.6875 -0.40625 1.046875 -1.0625q0.375 -0.65625 0.375 -1.359375q0 -0.6875 -0.359375 -1.3125q-0.34375 -0.640625 -1.015625 -1.046875q-0.671875 -0.40625 -1.59375 -0.40625l-4.40625 0l0 14.359375l4.765625 0q1.0 0 1.734375 -0.421875q0.734375 -0.421875 1.109375 -1.109375q0.375 -0.703125 0.375 -1.46875q0 -0.796875 -0.390625 -1.484375q-0.390625 -0.6875 -1.140625 -1.109375q-0.734375 -0.421875 -1.796875 -0.421875l-6.046875 0z" fill-rule="nonzero"/><path fill="#000000" fill-opacity="0.0" d="m591.1482 396.6378l-103.15372 0l0 -82.897644l-103.14548 0" fill-rule="evenodd"/><path stroke="#4285f4" stroke-width="4.0" stroke-linejoin="round" stroke-linecap="butt" d="m567.1482 396.6378l-79.15372 0l0 -82.897644l-103.14548 0" fill-rule="evenodd"/><path fill="#4285f4" stroke="#4285f4" stroke-width="4.0" stroke-linecap="butt" d="m567.1482 403.24472l18.152405 -6.6069336l-18.152405 -6.6069336z" fill-rule="evenodd"/></g></svg>