<?xml version="1.0" encoding="UTF-8" standalone="no"?>
<!DOCTYPE svg PUBLIC "-//W3C//DTD SVG 1.1//EN"
 "http://www.w3.org/Graphics/SVG/1.1/DTD/svg11.dtd">
<!-- Generated by graphviz version 2.36.0 (20140111.2315)
 -->
<!-- Title: %3 Pages: 1 -->
<svg width="982pt" height="116pt"
 viewBox="0.00 0.00 982.00 116.00" xmlns="http://www.w3.org/2000/svg" xmlns:xlink="http://www.w3.org/1999/xlink">
<g id="graph0" class="graph" transform="scale(1 1) rotate(0) translate(4 112)">
<title>%3</title>
<polygon fill="white" stroke="none" points="-4,4 -4,-112 978,-112 978,4 -4,4"/>
<!-- c:@N@net@C@HttpProxyConnectJob -->
<g id="node1" class="node"><title>c:@N@net@C@HttpProxyConnectJob</title>
<ellipse fill="none" stroke="black" cx="89" cy="-90" rx="89.0632" ry="18"/>
<text text-anchor="middle" x="89" y="-86.3" font-family="Times,serif" font-size="14.00">HttpProxyConnectJob</text>
</g>
<!-- c:@N@net@C@ConnectJob -->
<g id="node2" class="node"><title>c:@N@net@C@ConnectJob</title>
<ellipse fill="blue" stroke="blue" cx="443" cy="-18" rx="51.4931" ry="18"/>
<text text-anchor="middle" x="443" y="-14.3" font-family="Times,serif" font-size="14.00">ConnectJob</text>
</g>
<!-- c:@N@net@C@HttpProxyConnectJob&#45;&gt;c:@N@net@C@ConnectJob -->
<g id="edge1" class="edge"><title>c:@N@net@C@HttpProxyConnectJob&#45;&gt;c:@N@net@C@ConnectJob</title>
<path fill="none" stroke="black" d="M150.258,-76.8868C217.693,-63.5523 325.041,-42.3252 389.301,-29.6185"/>
<polygon fill="black" stroke="black" points="390.1,-33.0283 399.231,-27.6548 388.742,-26.1612 390.1,-33.0283"/>
</g>
<!-- c:@N@net@C@SOCKSConnectJob -->
<g id="node3" class="node"><title>c:@N@net@C@SOCKSConnectJob</title>
<ellipse fill="none" stroke="black" cx="277" cy="-90" rx="80.389" ry="18"/>
<text text-anchor="middle" x="277" y="-86.3" font-family="Times,serif" font-size="14.00">SOCKSConnectJob</text>
</g>
<!-- c:@N@net@C@SOCKSConnectJob&#45;&gt;c:@N@net@C@ConnectJob -->
<g id="edge2" class="edge"><title>c:@N@net@C@SOCKSConnectJob&#45;&gt;c:@N@net@C@ConnectJob</title>
<path fill="none" stroke="black" d="M313.02,-73.811C339.291,-62.7325 374.927,-47.7055 402.241,-36.1874"/>
<polygon fill="black" stroke="black" points="403.672,-39.3825 411.527,-32.2719 400.952,-32.9325 403.672,-39.3825"/>
</g>
<!-- c:@N@net@C@SSLConnectJob -->
<g id="node4" class="node"><title>c:@N@net@C@SSLConnectJob</title>
<ellipse fill="none" stroke="black" cx="443" cy="-90" rx="67.3907" ry="18"/>
<text text-anchor="middle" x="443" y="-86.3" font-family="Times,serif" font-size="14.00">SSLConnectJob</text>
</g>
<!-- c:@N@net@C@SSLConnectJob&#45;&gt;c:@N@net@C@ConnectJob -->
<g id="edge3" class="edge"><title>c:@N@net@C@SSLConnectJob&#45;&gt;c:@N@net@C@ConnectJob</title>
<path fill="none" stroke="black" d="M443,-71.6966C443,-63.9827 443,-54.7125 443,-46.1124"/>
<polygon fill="black" stroke="black" points="446.5,-46.1043 443,-36.1043 439.5,-46.1044 446.5,-46.1043"/>
</g>
<!-- c:@N@net@C@TransportConnectJob -->
<g id="node5" class="node"><title>c:@N@net@C@TransportConnectJob</title>
<ellipse fill="none" stroke="black" cx="615" cy="-90" rx="86.1637" ry="18"/>
<text text-anchor="middle" x="615" y="-86.3" font-family="Times,serif" font-size="14.00">TransportConnectJob</text>
</g>
<!-- c:@N@net@C@TransportConnectJob&#45;&gt;c:@N@net@C@ConnectJob -->
<g id="edge4" class="edge"><title>c:@N@net@C@TransportConnectJob&#45;&gt;c:@N@net@C@ConnectJob</title>
<path fill="none" stroke="black" d="M577.254,-73.6382C549.92,-62.514 512.971,-47.4764 484.754,-35.9931"/>
<polygon fill="black" stroke="black" points="485.75,-32.6195 475.168,-32.0917 483.111,-39.1031 485.75,-32.6195"/>
</g>
<!-- c:@N@net@C@WebSocketTransportConnectJob -->
<g id="node6" class="node"><title>c:@N@net@C@WebSocketTransportConnectJob</title>
<ellipse fill="none" stroke="black" cx="847" cy="-90" rx="127.083" ry="18"/>
<text text-anchor="middle" x="847" y="-86.3" font-family="Times,serif" font-size="14.00">WebSocketTransportConnectJob</text>
</g>
<!-- c:@N@net@C@WebSocketTransportConnectJob&#45;&gt;c:@N@net@C@ConnectJob -->
<g id="edge5" class="edge"><title>c:@N@net@C@WebSocketTransportConnectJob&#45;&gt;c:@N@net@C@ConnectJob</title>
<path fill="none" stroke="black" d="M769.583,-75.5861C690.093,-61.8132 568.377,-40.7237 498.158,-28.5572"/>
<polygon fill="black" stroke="black" points="498.634,-25.0875 488.183,-26.8288 497.439,-31.9847 498.634,-25.0875"/>
</g>
</g>
</svg>
