<?xml version="1.0" encoding="UTF-8" standalone="no"?>
<!DOCTYPE svg PUBLIC "-//W3C//DTD SVG 1.1//EN"
 "http://www.w3.org/Graphics/SVG/1.1/DTD/svg11.dtd">
<!-- Generated by graphviz version 2.36.0 (20140111.2315)
 -->
<!-- Title: %3 Pages: 1 -->
<svg width="1885pt" height="332pt"
 viewBox="0.00 0.00 1885.00 332.00" xmlns="http://www.w3.org/2000/svg" xmlns:xlink="http://www.w3.org/1999/xlink">
<g id="graph0" class="graph" transform="scale(1 1) rotate(0) translate(4 328)">
<title>%3</title>
<polygon fill="white" stroke="none" points="-4,4 -4,-328 1881,-328 1881,4 -4,4"/>
<!-- c:@N@net@C@UDPClientSocket -->
<g id="node1" class="node"><title>c:@N@net@C@UDPClientSocket</title>
<ellipse fill="none" stroke="black" cx="73" cy="-162" rx="73.1654" ry="18"/>
<text text-anchor="middle" x="73" y="-158.3" font-family="Times,serif" font-size="14.00">UDPClientSocket</text>
</g>
<!-- c:@N@net@C@DatagramClientSocket -->
<g id="node2" class="node"><title>c:@N@net@C@DatagramClientSocket</title>
<ellipse fill="none" stroke="black" cx="280" cy="-90" rx="90.4879" ry="18"/>
<text text-anchor="middle" x="280" y="-86.3" font-family="Times,serif" font-size="14.00">DatagramClientSocket</text>
</g>
<!-- c:@N@net@C@UDPClientSocket&#45;&gt;c:@N@net@C@DatagramClientSocket -->
<g id="edge1" class="edge"><title>c:@N@net@C@UDPClientSocket&#45;&gt;c:@N@net@C@DatagramClientSocket</title>
<path fill="none" stroke="black" d="M114.392,-147.003C146.638,-136.098 191.646,-120.878 226.604,-109.057"/>
<polygon fill="black" stroke="black" points="227.827,-112.338 236.179,-105.819 225.584,-105.707 227.827,-112.338"/>
</g>
<!-- c:@N@net@C@Socket -->
<g id="node18" class="node"><title>c:@N@net@C@Socket</title>
<ellipse fill="none" stroke="blue" cx="529" cy="-18" rx="34.1708" ry="18"/>
<text text-anchor="middle" x="529" y="-14.3" font-family="Times,serif" font-size="14.00">Socket</text>
</g>
<!-- c:@N@net@C@DatagramClientSocket&#45;&gt;c:@N@net@C@Socket -->
<g id="edge14" class="edge"><title>c:@N@net@C@DatagramClientSocket&#45;&gt;c:@N@net@C@Socket</title>
<path fill="none" stroke="black" d="M330.089,-74.9187C377.158,-61.6866 446.638,-42.1539 489.792,-30.0223"/>
<polygon fill="black" stroke="black" points="490.959,-33.3301 499.638,-27.2543 489.064,-26.5913 490.959,-33.3301"/>
</g>
<!-- c:@N@net@C@DatagramSocket -->
<g id="node19" class="node"><title>c:@N@net@C@DatagramSocket</title>
<ellipse fill="none" stroke="blue" cx="280" cy="-18" rx="69.3156" ry="18"/>
<text text-anchor="middle" x="280" y="-14.3" font-family="Times,serif" font-size="14.00">DatagramSocket</text>
</g>
<!-- c:@N@net@C@DatagramClientSocket&#45;&gt;c:@N@net@C@DatagramSocket -->
<g id="edge15" class="edge"><title>c:@N@net@C@DatagramClientSocket&#45;&gt;c:@N@net@C@DatagramSocket</title>
<path fill="none" stroke="black" d="M280,-71.6966C280,-63.9827 280,-54.7125 280,-46.1124"/>
<polygon fill="black" stroke="black" points="283.5,-46.1043 280,-36.1043 276.5,-46.1044 283.5,-46.1043"/>
</g>
<!-- c:@N@net@C@UnixDomainClientSocket -->
<g id="node3" class="node"><title>c:@N@net@C@UnixDomainClientSocket</title>
<ellipse fill="none" stroke="black" cx="267" cy="-162" rx="102.536" ry="18"/>
<text text-anchor="middle" x="267" y="-158.3" font-family="Times,serif" font-size="14.00">UnixDomainClientSocket</text>
</g>
<!-- c:@N@net@C@StreamSocket -->
<g id="node4" class="node"><title>c:@N@net@C@StreamSocket</title>
<ellipse fill="red" stroke="red" cx="656" cy="-90" rx="59.1941" ry="18"/>
<text text-anchor="middle" x="656" y="-86.3" font-family="Times,serif" font-size="14.00">StreamSocket</text>
</g>
<!-- c:@N@net@C@UnixDomainClientSocket&#45;&gt;c:@N@net@C@StreamSocket -->
<g id="edge2" class="edge"><title>c:@N@net@C@UnixDomainClientSocket&#45;&gt;c:@N@net@C@StreamSocket</title>
<path fill="none" stroke="black" d="M335.65,-148.647C409.555,-135.347 525.943,-114.404 596.216,-101.758"/>
<polygon fill="black" stroke="black" points="597.018,-105.17 606.24,-99.9543 595.778,-98.2808 597.018,-105.17"/>
</g>
<!-- c:@N@net@C@StreamSocket&#45;&gt;c:@N@net@C@Socket -->
<g id="edge13" class="edge"><title>c:@N@net@C@StreamSocket&#45;&gt;c:@N@net@C@Socket</title>
<path fill="none" stroke="black" d="M628.755,-73.9832C608.82,-62.9951 581.714,-48.0552 560.79,-36.5218"/>
<polygon fill="black" stroke="black" points="562.397,-33.4112 551.949,-31.6492 559.018,-39.5416 562.397,-33.4112"/>
</g>
<!-- c:@N@net@C@SOCKS5ClientSocket -->
<g id="node5" class="node"><title>c:@N@net@C@SOCKS5ClientSocket</title>
<ellipse fill="none" stroke="black" cx="477" cy="-162" rx="89.0632" ry="18"/>
<text text-anchor="middle" x="477" y="-158.3" font-family="Times,serif" font-size="14.00">SOCKS5ClientSocket</text>
</g>
<!-- c:@N@net@C@SOCKS5ClientSocket&#45;&gt;c:@N@net@C@StreamSocket -->
<g id="edge3" class="edge"><title>c:@N@net@C@SOCKS5ClientSocket&#45;&gt;c:@N@net@C@StreamSocket</title>
<path fill="none" stroke="black" d="M516.282,-145.638C544.39,-134.646 582.269,-119.833 611.496,-108.404"/>
<polygon fill="black" stroke="black" points="613.01,-111.57 621.049,-104.668 610.461,-105.051 613.01,-111.57"/>
</g>
<!-- c:@N@net@C@TCPClientSocket -->
<g id="node6" class="node"><title>c:@N@net@C@TCPClientSocket</title>
<ellipse fill="none" stroke="black" cx="656" cy="-162" rx="72.2155" ry="18"/>
<text text-anchor="middle" x="656" y="-158.3" font-family="Times,serif" font-size="14.00">TCPClientSocket</text>
</g>
<!-- c:@N@net@C@TCPClientSocket&#45;&gt;c:@N@net@C@StreamSocket -->
<g id="edge4" class="edge"><title>c:@N@net@C@TCPClientSocket&#45;&gt;c:@N@net@C@StreamSocket</title>
<path fill="none" stroke="black" d="M656,-143.697C656,-135.983 656,-126.712 656,-118.112"/>
<polygon fill="black" stroke="black" points="659.5,-118.104 656,-108.104 652.5,-118.104 659.5,-118.104"/>
</g>
<!-- c:@N@net@C@SOCKSClientSocket -->
<g id="node7" class="node"><title>c:@N@net@C@SOCKSClientSocket</title>
<ellipse fill="none" stroke="black" cx="831" cy="-162" rx="84.2388" ry="18"/>
<text text-anchor="middle" x="831" y="-158.3" font-family="Times,serif" font-size="14.00">SOCKSClientSocket</text>
</g>
<!-- c:@N@net@C@SOCKSClientSocket&#45;&gt;c:@N@net@C@StreamSocket -->
<g id="edge5" class="edge"><title>c:@N@net@C@SOCKSClientSocket&#45;&gt;c:@N@net@C@StreamSocket</title>
<path fill="none" stroke="black" d="M793.028,-145.811C765.572,-134.829 728.415,-119.966 699.72,-108.488"/>
<polygon fill="black" stroke="black" points="700.924,-105.2 690.339,-104.736 698.324,-111.699 700.924,-105.2"/>
</g>
<!-- c:@N@net@C@HttpProxyClientSocket -->
<g id="node8" class="node"><title>c:@N@net@C@HttpProxyClientSocket</title>
<ellipse fill="none" stroke="black" cx="726" cy="-234" rx="92.413" ry="18"/>
<text text-anchor="middle" x="726" y="-230.3" font-family="Times,serif" font-size="14.00">HttpProxyClientSocket</text>
</g>
<!-- c:@N@net@C@ProxyClientSocket -->
<g id="node9" class="node"><title>c:@N@net@C@ProxyClientSocket</title>
<ellipse fill="none" stroke="black" cx="1011" cy="-162" rx="77.0154" ry="18"/>
<text text-anchor="middle" x="1011" y="-158.3" font-family="Times,serif" font-size="14.00">ProxyClientSocket</text>
</g>
<!-- c:@N@net@C@HttpProxyClientSocket&#45;&gt;c:@N@net@C@ProxyClientSocket -->
<g id="edge6" class="edge"><title>c:@N@net@C@HttpProxyClientSocket&#45;&gt;c:@N@net@C@ProxyClientSocket</title>
<path fill="none" stroke="black" d="M780.951,-219.503C829.325,-207.622 899.676,-190.343 949.826,-178.025"/>
<polygon fill="black" stroke="black" points="950.698,-181.415 959.574,-175.631 949.028,-174.617 950.698,-181.415"/>
</g>
<!-- c:@N@net@C@ProxyClientSocket&#45;&gt;c:@N@net@C@StreamSocket -->
<g id="edge16" class="edge"><title>c:@N@net@C@ProxyClientSocket&#45;&gt;c:@N@net@C@StreamSocket</title>
<path fill="none" stroke="black" d="M953.963,-149.753C888.155,-136.777 780.517,-115.553 714.215,-102.479"/>
<polygon fill="black" stroke="black" points="714.83,-99.033 704.342,-100.532 713.476,-105.901 714.83,-99.033"/>
</g>
<!-- c:@N@net@C@SpdyProxyClientSocket -->
<g id="node10" class="node"><title>c:@N@net@C@SpdyProxyClientSocket</title>
<ellipse fill="none" stroke="black" cx="1198" cy="-234" rx="94.338" ry="18"/>
<text text-anchor="middle" x="1198" y="-230.3" font-family="Times,serif" font-size="14.00">SpdyProxyClientSocket</text>
</g>
<!-- c:@N@net@C@SpdyProxyClientSocket&#45;&gt;c:@N@net@C@ProxyClientSocket -->
<g id="edge7" class="edge"><title>c:@N@net@C@SpdyProxyClientSocket&#45;&gt;c:@N@net@C@ProxyClientSocket</title>
<path fill="none" stroke="black" d="M1156.96,-217.638C1128.25,-206.889 1089.77,-192.486 1059.53,-181.166"/>
<polygon fill="black" stroke="black" points="1060.62,-177.836 1050.02,-177.608 1058.16,-184.391 1060.62,-177.836"/>
</g>
<!-- c:@N@net@C@SpdyStream@C@Delegate -->
<g id="node11" class="node"><title>c:@N@net@C@SpdyStream@C@Delegate</title>
<ellipse fill="none" stroke="blue" cx="1198" cy="-162" rx="42.3701" ry="18"/>
<text text-anchor="middle" x="1198" y="-158.3" font-family="Times,serif" font-size="14.00">Delegate</text>
</g>
<!-- c:@N@net@C@SpdyProxyClientSocket&#45;&gt;c:@N@net@C@SpdyStream@C@Delegate -->
<g id="edge8" class="edge"><title>c:@N@net@C@SpdyProxyClientSocket&#45;&gt;c:@N@net@C@SpdyStream@C@Delegate</title>
<path fill="none" stroke="black" d="M1198,-215.697C1198,-207.983 1198,-198.712 1198,-190.112"/>
<polygon fill="black" stroke="black" points="1201.5,-190.104 1198,-180.104 1194.5,-190.104 1201.5,-190.104"/>
</g>
<!-- c:@N@net@C@HttpProxyClientSocketWrapper -->
<g id="node12" class="node"><title>c:@N@net@C@HttpProxyClientSocketWrapper</title>
<ellipse fill="none" stroke="black" cx="961" cy="-234" rx="124.209" ry="18"/>
<text text-anchor="middle" x="961" y="-230.3" font-family="Times,serif" font-size="14.00">HttpProxyClientSocketWrapper</text>
</g>
<!-- c:@N@net@C@HttpProxyClientSocketWrapper&#45;&gt;c:@N@net@C@ProxyClientSocket -->
<g id="edge9" class="edge"><title>c:@N@net@C@HttpProxyClientSocketWrapper&#45;&gt;c:@N@net@C@ProxyClientSocket</title>
<path fill="none" stroke="black" d="M973.104,-216.055C979.122,-207.629 986.514,-197.28 993.167,-187.966"/>
<polygon fill="black" stroke="black" points="996.044,-189.961 999.008,-179.789 990.347,-185.892 996.044,-189.961"/>
</g>
<!-- c:@N@net@C@SSLServerSocketOpenSSL -->
<g id="node13" class="node"><title>c:@N@net@C@SSLServerSocketOpenSSL</title>
<ellipse fill="none" stroke="black" cx="1350" cy="-306" rx="106.386" ry="18"/>
<text text-anchor="middle" x="1350" y="-302.3" font-family="Times,serif" font-size="14.00">SSLServerSocketOpenSSL</text>
</g>
<!-- c:@N@net@C@SSLServerSocket -->
<g id="node14" class="node"><title>c:@N@net@C@SSLServerSocket</title>
<ellipse fill="none" stroke="black" cx="1384" cy="-234" rx="72.192" ry="18"/>
<text text-anchor="middle" x="1384" y="-230.3" font-family="Times,serif" font-size="14.00">SSLServerSocket</text>
</g>
<!-- c:@N@net@C@SSLServerSocketOpenSSL&#45;&gt;c:@N@net@C@SSLServerSocket -->
<g id="edge10" class="edge"><title>c:@N@net@C@SSLServerSocketOpenSSL&#45;&gt;c:@N@net@C@SSLServerSocket</title>
<path fill="none" stroke="black" d="M1358.4,-287.697C1362.27,-279.728 1366.95,-270.1 1371.24,-261.264"/>
<polygon fill="black" stroke="black" points="1374.47,-262.629 1375.69,-252.104 1368.17,-259.57 1374.47,-262.629"/>
</g>
<!-- c:@N@net@C@SSLSocket -->
<g id="node20" class="node"><title>c:@N@net@C@SSLSocket</title>
<ellipse fill="none" stroke="black" cx="1384" cy="-162" rx="50.0684" ry="18"/>
<text text-anchor="middle" x="1384" y="-158.3" font-family="Times,serif" font-size="14.00">SSLSocket</text>
</g>
<!-- c:@N@net@C@SSLServerSocket&#45;&gt;c:@N@net@C@SSLSocket -->
<g id="edge17" class="edge"><title>c:@N@net@C@SSLServerSocket&#45;&gt;c:@N@net@C@SSLSocket</title>
<path fill="none" stroke="black" d="M1384,-215.697C1384,-207.983 1384,-198.712 1384,-190.112"/>
<polygon fill="black" stroke="black" points="1387.5,-190.104 1384,-180.104 1380.5,-190.104 1387.5,-190.104"/>
</g>
<!-- c:@N@net@C@SSLClientSocketOpenSSL -->
<g id="node15" class="node"><title>c:@N@net@C@SSLClientSocketOpenSSL</title>
<ellipse fill="none" stroke="black" cx="1580" cy="-306" rx="104.937" ry="18"/>
<text text-anchor="middle" x="1580" y="-302.3" font-family="Times,serif" font-size="14.00">SSLClientSocketOpenSSL</text>
</g>
<!-- c:@N@net@C@SSLClientSocket -->
<g id="node16" class="node"><title>c:@N@net@C@SSLClientSocket</title>
<ellipse fill="none" stroke="black" cx="1580" cy="-234" rx="71.2405" ry="18"/>
<text text-anchor="middle" x="1580" y="-230.3" font-family="Times,serif" font-size="14.00">SSLClientSocket</text>
</g>
<!-- c:@N@net@C@SSLClientSocketOpenSSL&#45;&gt;c:@N@net@C@SSLClientSocket -->
<g id="edge11" class="edge"><title>c:@N@net@C@SSLClientSocketOpenSSL&#45;&gt;c:@N@net@C@SSLClientSocket</title>
<path fill="none" stroke="black" d="M1580,-287.697C1580,-279.983 1580,-270.712 1580,-262.112"/>
<polygon fill="black" stroke="black" points="1583.5,-262.104 1580,-252.104 1576.5,-262.104 1583.5,-262.104"/>
</g>
<!-- c:@N@net@C@SSLClientSocket&#45;&gt;c:@N@net@C@SSLSocket -->
<g id="edge18" class="edge"><title>c:@N@net@C@SSLClientSocket&#45;&gt;c:@N@net@C@SSLSocket</title>
<path fill="none" stroke="black" d="M1540.34,-218.834C1507.76,-207.199 1461.65,-190.734 1427.96,-178.699"/>
<polygon fill="black" stroke="black" points="1428.96,-175.341 1418.36,-175.273 1426.61,-181.933 1428.96,-175.341"/>
</g>
<!-- c:@N@net@C@SSLClientSocketNSS -->
<g id="node17" class="node"><title>c:@N@net@C@SSLClientSocketNSS</title>
<ellipse fill="none" stroke="black" cx="1790" cy="-306" rx="87.1385" ry="18"/>
<text text-anchor="middle" x="1790" y="-302.3" font-family="Times,serif" font-size="14.00">SSLClientSocketNSS</text>
</g>
<!-- c:@N@net@C@SSLClientSocketNSS&#45;&gt;c:@N@net@C@SSLClientSocket -->
<g id="edge12" class="edge"><title>c:@N@net@C@SSLClientSocketNSS&#45;&gt;c:@N@net@C@SSLClientSocket</title>
<path fill="none" stroke="black" d="M1746.23,-290.411C1712.61,-279.204 1666.11,-263.705 1630.84,-251.948"/>
<polygon fill="black" stroke="black" points="1631.81,-248.579 1621.21,-248.737 1629.59,-255.22 1631.81,-248.579"/>
</g>
<!-- c:@N@net@C@SSLSocket&#45;&gt;c:@N@net@C@StreamSocket -->
<g id="edge19" class="edge"><title>c:@N@net@C@SSLSocket&#45;&gt;c:@N@net@C@StreamSocket</title>
<path fill="none" stroke="black" d="M1338.12,-154.805C1312.02,-151.386 1278.71,-147.197 1249,-144 1058.6,-123.51 833.193,-104.918 723.179,-96.2089"/>
<polygon fill="black" stroke="black" points="723.142,-92.6952 712.897,-95.3973 722.591,-99.6735 723.142,-92.6952"/>
</g>
</g>
</svg>
