<?xml version="1.0" encoding="utf-8"?>
<svg xmlns="http://www.w3.org/2000/svg" xmlns:xlink="http://www.w3.org/1999/xlink" width="1067px" height="583px" viewBox="0 0 1067 583" version="1.1">
    
    <title>vpn-app-arch</title>
    <desc>Created with Sketch.</desc>
    <g id="Page-1" stroke="none" stroke-width="1" fill="none" fill-rule="evenodd">
        <path d="M7.99249531,14.0075046 L1058.0231,14.992517 C1062.43235,14.9966533 1066.00697,18.5676489 1066.01558,22.9768885 L1066.98434,518.984375 C1066.99297,523.402645 1063.41825,526.991355 1058.99998,526.999985 C1058.99478,526.999995 1058.98957,527 1058.98436,527 L7.99249883,527 C3.57422083,527 -0.00750117041,523.418278 -0.00750117041,519 L-0.0150022881,22 C-0.0150022881,17.581722 3.56671971,14 7.98499771,14 C7.98749926,14 7.9900008,14.0000012 7.99250235,14.0000035 Z" id="Rectangle-Copy-15" fill="#455A65"/>
        <path d="M0,408 L1067,408 L1067,525 C1067,529.418278 1063.41828,533 1059,533 L8,533 C3.581722,533 5.41083001e-16,529.418278 0,525 L0,408 Z" id="Rectangle-Copy-3" fill="#EFEFEF"/>
        <path d="M8,14 L256,14 L256,132 C256,136.418278 252.418278,140 248,140 L0,140 L0,22 C-5.41083001e-16,17.581722 3.581722,14 8,14 Z" id="Rectangle-Copy-5" fill="#77BF5E"/>
        <path d="M1066.63949,24.9 C1066.63949,28.9130488 1066.63949,112.656365 1066.63949,276.129949 C1066.63949,282.149523 1061.76652,287.029351 1055.75541,287.029351 L821.747771,287.029351 C815.736661,287.029351 810.863694,282.149523 810.863694,276.129949 L810.863694,148.377101 C810.863694,143.958823 807.281972,140.377101 802.863694,140.377101 L288.428025,140.377101 C282.416916,140.377101 277.543949,135.497272 277.543949,129.477699 L277.595006,14 L1055.75541,14 C1061.76652,14 1066.63949,18.8804268 1066.63949,24.9 Z" id="Path" fill="#4C7D2E"/>
        <path d="M0,162 L781,162 C785.418278,162 789,165.581722 789,170 L789,279 C789,283.418278 785.418278,287 781,287 L0,287 L0,162 Z" id="Rectangle-Copy-12" fill="#77BF5E"/>
        <path d="M533.5,162 L533.5,287" id="Line" stroke="#4C7D2E" stroke-linecap="square" stroke-dasharray="3,3"/>
        <path d="M490.323547,599.485058 L490.323547,524.657033" id="Line-2-Copy-7" stroke="#2195F2" stroke-width="4" stroke-linecap="square" transform="translate(490.323547, 562.071046) rotate(-90.000000) translate(-490.323547, -562.071046) "/>
        <path d="M666.123746,600.166767 L666.12084,523.978232" id="Line-2-Copy-6" stroke="#06E5FF" stroke-width="4" stroke-linecap="square" transform="translate(666.122293, 562.072499) rotate(-270.000000) translate(-666.122293, -562.072499) "/>
        <text id="Traffic-direction:" fill="#455A65" font-family="Roboto-Regular, Roboto" font-size="14" font-weight="normal">
            <tspan x="322.132442" y="566">Traffic direction:</tspan>
        </text>
        <text id="Outgoing" fill="#455A65" font-family="Roboto-Regular, Roboto" font-size="14" font-weight="normal">
            <tspan x="536.766879" y="566.72485">Outgoing</tspan>
        </text>
        <text id="Incoming" fill="#455A65" font-family="Roboto-Regular, Roboto" font-size="14" font-weight="normal">
            <tspan x="715.100637" y="566.72485">Incoming</tspan>
        </text>
        <text id="VPN-gateway" fill-opacity="0.7" fill="#4A4A4A" font-family="Roboto-Regular, Roboto" font-size="26" font-weight="normal">
            <tspan x="454.647461" y="477">VPN gateway</tspan>
        </text>
        <text id="App" fill="#FFFFFF" font-family="Roboto-Regular, Roboto" font-size="26" font-weight="normal">
            <tspan x="106.205566" y="84">App</tspan>
        </text>
        <text id="System-network" fill="#FFFFFF" font-family="Roboto-Regular, Roboto" font-size="26" font-weight="normal">
            <tspan x="174.209961" y="232">System network</tspan>
        </text>
        <text id="Local-TUN-interface" fill="#FFFFFF" font-family="Roboto-Regular, Roboto" font-size="16" font-weight="normal">
            <tspan x="591.707031" y="234">Local TUN interface</tspan>
        </text>
        <text id="Protected-socket" fill="#FFFFFF" font-family="Roboto-Regular, Roboto" font-size="18" font-weight="normal">
            <tspan x="871.196777" y="235">Protected socket</tspan>
        </text>
        <text id="Your-app-(VpnService" fill="#FFFFFF" font-family="Roboto-Regular, Roboto" font-size="26" font-weight="normal">
            <tspan x="543.491215" y="83">Your app (VpnService)</tspan>
        </text>
        <text id="internet" fill="#D8D8D8" font-family="Roboto-Regular, Roboto" font-size="26" font-weight="normal">
            <tspan x="489.76804" y="354">internet</tspan>
        </text>
        <path id="Line-2" d="M103.619745,181.773509 L103.619745,104.954046 L103.619745,102.954046 L107.619745,102.954046 L107.619745,104.954046 L107.619745,181.773509 L117.619745,181.773509 L105.619745,205.773509 L93.6197452,181.773509 L103.619745,181.773509 Z" fill="#258EE1" fill-rule="nonzero"/>
        <path id="Line-2-Copy-5" d="M920.204459,470.5 L908.204459,446.5 L932.204459,446.5 L920.204459,470.5 Z M918.204459,258.954046 L918.204459,256.954046 L922.204459,256.954046 L922.204459,258.954046 L922.204459,262.954046 L922.204459,264.954046 L918.204459,264.954046 L918.204459,262.954046 L918.204459,258.954046 Z M918.204459,274.954046 L918.204459,272.954046 L922.204459,272.954046 L922.204459,274.954046 L922.204459,278.954046 L922.204459,280.954046 L918.204459,280.954046 L918.204459,278.954046 L918.204459,274.954046 Z M918.204459,290.954046 L918.204459,288.954046 L922.204459,288.954046 L922.204459,290.954046 L922.204459,294.954046 L922.204459,296.954046 L918.204459,296.954046 L918.204459,294.954046 L918.204459,290.954046 Z M918.204459,306.954046 L918.204459,304.954046 L922.204459,304.954046 L922.204459,306.954046 L922.204459,310.954046 L922.204459,312.954046 L918.204459,312.954046 L918.204459,310.954046 L918.204459,306.954046 Z M918.204459,322.954046 L918.204459,320.954046 L922.204459,320.954046 L922.204459,322.954046 L922.204459,326.954046 L922.204459,328.954046 L918.204459,328.954046 L918.204459,326.954046 L918.204459,322.954046 Z M918.204459,338.954046 L918.204459,336.954046 L922.204459,336.954046 L922.204459,338.954046 L922.204459,342.954046 L922.204459,344.954046 L918.204459,344.954046 L918.204459,342.954046 L918.204459,338.954046 Z M918.204459,354.954046 L918.204459,352.954046 L922.204459,352.954046 L922.204459,354.954046 L922.204459,358.954046 L922.204459,360.954046 L918.204459,360.954046 L918.204459,358.954046 L918.204459,354.954046 Z M918.204459,370.954046 L918.204459,368.954046 L922.204459,368.954046 L922.204459,370.954046 L922.204459,374.954046 L922.204459,376.954046 L918.204459,376.954046 L918.204459,374.954046 L918.204459,370.954046 Z M918.204459,386.954046 L918.204459,384.954046 L922.204459,384.954046 L922.204459,386.954046 L922.204459,390.954046 L922.204459,392.954046 L918.204459,392.954046 L918.204459,390.954046 L918.204459,386.954046 Z M918.204459,402.954046 L918.204459,400.954046 L922.204459,400.954046 L922.204459,402.954046 L922.204459,406.954046 L922.204459,408.954046 L918.204459,408.954046 L918.204459,406.954046 L918.204459,402.954046 Z M918.204459,418.954046 L918.204459,416.954046 L922.204459,416.954046 L922.204459,418.954046 L922.204459,422.954046 L922.204459,424.954046 L918.204459,424.954046 L918.204459,422.954046 L918.204459,418.954046 Z M918.204459,434.954046 L918.204459,432.954046 L922.204459,432.954046 L922.204459,434.954046 L922.204459,438.954046 L922.204459,440.954046 L918.204459,440.954046 L918.204459,438.954046 L918.204459,434.954046 Z" fill="#258EE1" fill-rule="nonzero"/>
        <path id="Line-2-Copy-2" d="M637.619745,181.773509 L637.619745,104.954046 L637.619745,102.954046 L641.619745,102.954046 L641.619745,104.954046 L641.619745,181.773509 L651.619745,181.773509 L639.619745,205.773509 L627.619745,181.773509 L637.619745,181.773509 Z" fill="#06E5FF" fill-rule="nonzero"/>
        <path id="Line-2-Copy" d="M153.516561,124.954046 L153.516561,201.773509 L153.516561,203.773509 L149.516561,203.773509 L149.516561,201.773509 L149.516561,124.954046 L139.516561,124.954046 L151.516561,100.954046 L163.516561,124.954046 L153.516561,124.954046 Z" fill="#06E5FF" fill-rule="nonzero"/>
        <path id="Line-2-Copy-8" d="M970.5,272.886719 L970.5,274.886719 L970.5,276.886719 L966.5,276.886719 L966.5,274.886719 L966.5,272.886719 L956.5,272.886719 L968.5,248.886719 L980.5,272.886719 L970.5,272.886719 Z M966.5,286.886719 L966.5,284.886719 L970.5,284.886719 L970.5,286.886719 L970.5,290.886719 L970.5,292.886719 L966.5,292.886719 L966.5,290.886719 L966.5,286.886719 Z M966.5,302.886719 L966.5,300.886719 L970.5,300.886719 L970.5,302.886719 L970.5,306.886719 L970.5,308.886719 L966.5,308.886719 L966.5,306.886719 L966.5,302.886719 Z M966.5,318.886719 L966.5,316.886719 L970.5,316.886719 L970.5,318.886719 L970.5,322.886719 L970.5,324.886719 L966.5,324.886719 L966.5,322.886719 L966.5,318.886719 Z M966.5,334.886719 L966.5,332.886719 L970.5,332.886719 L970.5,334.886719 L970.5,338.886719 L970.5,340.886719 L966.5,340.886719 L966.5,338.886719 L966.5,334.886719 Z M966.5,350.886719 L966.5,348.886719 L970.5,348.886719 L970.5,350.886719 L970.5,354.886719 L970.5,356.886719 L966.5,356.886719 L966.5,354.886719 L966.5,350.886719 Z M966.5,366.886719 L966.5,364.886719 L970.5,364.886719 L970.5,366.886719 L970.5,370.886719 L970.5,372.886719 L966.5,372.886719 L966.5,370.886719 L966.5,366.886719 Z M966.5,382.886719 L966.5,380.886719 L970.5,380.886719 L970.5,382.886719 L970.5,386.886719 L970.5,388.886719 L966.5,388.886719 L966.5,386.886719 L966.5,382.886719 Z M966.5,398.886719 L966.5,396.886719 L970.5,396.886719 L970.5,398.886719 L970.5,402.886719 L970.5,404.886719 L966.5,404.886719 L966.5,402.886719 L966.5,398.886719 Z M966.5,414.886719 L966.5,412.886719 L970.5,412.886719 L970.5,414.886719 L970.5,418.886719 L970.5,420.886719 L966.5,420.886719 L966.5,418.886719 L966.5,414.886719 Z M966.5,430.886719 L966.5,428.886719 L970.5,428.886719 L970.5,430.886719 L970.5,434.886719 L970.5,436.886719 L966.5,436.886719 L966.5,434.886719 L966.5,430.886719 Z M966.5,446.886719 L966.5,444.886719 L970.5,444.886719 L970.5,446.886719 L970.5,450.886719 L970.5,452.886719 L966.5,452.886719 L966.5,450.886719 L966.5,446.886719 Z M966.5,462.886719 L966.5,460.886719 L970.5,460.886719 L970.5,462.886719 L970.5,466.886719 L970.5,468.886719 L966.5,468.886719 L966.5,466.886719 L966.5,462.886719 Z" fill="#06E5FF" fill-rule="nonzero"/>
        <path id="Line-2-Copy-3" d="M685.516561,124.954046 L685.516561,201.773509 L685.516561,203.773509 L681.516561,203.773509 L681.516561,201.773509 L681.516561,124.954046 L671.516561,124.954046 L683.516561,100.954046 L695.516561,124.954046 L685.516561,124.954046 Z" fill="#2195F2" fill-rule="nonzero"/>
    </g>
</svg>
